<?xml version="1.0" encoding="utf-8" standalone="no"?>
<!DOCTYPE svg PUBLIC "-//W3C//DTD SVG 1.1//EN"
  "http://www.w3.org/Graphics/SVG/1.1/DTD/svg11.dtd">
<svg xmlns:xlink="http://www.w3.org/1999/xlink" width="504pt" height="576pt" viewBox="0 0 504 576" xmlns="http://www.w3.org/2000/svg" version="1.1">
 <metadata>
  <rdf:RDF xmlns:dc="http://purl.org/dc/elements/1.1/" xmlns:cc="http://creativecommons.org/ns#" xmlns:rdf="http://www.w3.org/1999/02/22-rdf-syntax-ns#">
   <cc:Work>
    <dc:type rdf:resource="http://purl.org/dc/dcmitype/StillImage"/>
    <dc:date>2025-05-13T10:59:17.660914</dc:date>
    <dc:format>image/svg+xml</dc:format>
    <dc:creator>
     <cc:Agent>
      <dc:title>Matplotlib v3.8.4, https://matplotlib.org/</dc:title>
     </cc:Agent>
    </dc:creator>
   </cc:Work>
  </rdf:RDF>
 </metadata>
 <defs>
  <style type="text/css">*{stroke-linejoin: round; stroke-linecap: butt}</style>
 </defs>
 <g id="figure_1">
  <g id="patch_1">
   <path d="M 0 576 
L 504 576 
L 504 0 
L 0 0 
z
" style="fill: #ffffff"/>
  </g>
  <g id="axes_1">
   <g id="patch_2">
    <path d="M 52.641178 262.482812 
L 500.99976 262.482812 
L 500.99976 38.428064 
L 52.641178 38.428064 
z
" style="fill: #ffffff"/>
   </g>
   <g id="patch_3">
    <path d="M 73.021113 262.482812 
L 79.531644 262.482812 
L 79.531644 245.915617 
L 73.021113 245.915617 
z
" clip-path="url(#p0298398e79)" style="fill: #e41a1c"/>
   </g>
   <g id="patch_4">
    <path d="M 92.749996 262.482812 
L 99.260527 262.482812 
L 99.260527 261.422512 
L 92.749996 261.422512 
z
" clip-path="url(#p0298398e79)" style="fill: #e41a1c"/>
   </g>
   <g id="patch_5">
    <path d="M 112.478878 262.482812 
L 118.989409 262.482812 
L 118.989409 246.84338 
L 112.478878 246.84338 
z
" clip-path="url(#p0298398e79)" style="fill: #e41a1c"/>
   </g>
   <g id="patch_6">
    <path d="M 132.20776 262.482812 
L 138.718292 262.482812 
L 138.718292 259.832061 
L 132.20776 259.832061 
z
" clip-path="url(#p0298398e79)" style="fill: #e41a1c"/>
   </g>
   <g id="patch_7">
    <path d="M 151.936643 262.482812 
L 158.447174 262.482812 
L 158.447174 248.168756 
L 151.936643 248.168756 
z
" clip-path="url(#p0298398e79)" style="fill: #e41a1c"/>
   </g>
   <g id="patch_8">
    <path d="M 171.665525 262.482812 
L 178.176057 262.482812 
L 178.176057 261.157437 
L 171.665525 261.157437 
z
" clip-path="url(#p0298398e79)" style="fill: #e41a1c"/>
   </g>
   <g id="patch_9">
    <path d="M 191.394408 262.482812 
L 197.904939 262.482812 
L 197.904939 260.627287 
L 191.394408 260.627287 
z
" clip-path="url(#p0298398e79)" style="fill: #e41a1c"/>
   </g>
   <g id="patch_10">
    <path d="M 211.12329 262.482812 
L 217.633821 262.482812 
L 217.633821 260.627287 
L 211.12329 260.627287 
z
" clip-path="url(#p0298398e79)" style="fill: #e41a1c"/>
   </g>
   <g id="patch_11">
    <path d="M 230.852173 262.482812 
L 237.362704 262.482812 
L 237.362704 260.362212 
L 230.852173 260.362212 
z
" clip-path="url(#p0298398e79)" style="fill: #e41a1c"/>
   </g>
   <g id="patch_12">
    <path d="M 250.581055 262.482812 
L 257.091586 262.482812 
L 257.091586 261.289974 
L 250.581055 261.289974 
z
" clip-path="url(#p0298398e79)" style="fill: #e41a1c"/>
   </g>
   <g id="patch_13">
    <path d="M 270.309938 262.482812 
L 276.820469 262.482812 
L 276.820469 262.0852 
L 270.309938 262.0852 
z
" clip-path="url(#p0298398e79)" style="fill: #e41a1c"/>
   </g>
   <g id="patch_14">
    <path d="M 290.03882 262.482812 
L 296.549351 262.482812 
L 296.549351 258.771761 
L 290.03882 258.771761 
z
" clip-path="url(#p0298398e79)" style="fill: #e41a1c"/>
   </g>
   <g id="patch_15">
    <path d="M 309.767702 262.482812 
L 316.278234 262.482812 
L 316.278234 255.458322 
L 309.767702 255.458322 
z
" clip-path="url(#p0298398e79)" style="fill: #e41a1c"/>
   </g>
   <g id="patch_16">
    <path d="M 329.496585 262.482812 
L 336.007116 262.482812 
L 336.007116 260.892362 
L 329.496585 260.892362 
z
" clip-path="url(#p0298398e79)" style="fill: #e41a1c"/>
   </g>
   <g id="patch_17">
    <path d="M 349.225467 262.482812 
L 355.735999 262.482812 
L 355.735999 260.494749 
L 349.225467 260.494749 
z
" clip-path="url(#p0298398e79)" style="fill: #e41a1c"/>
   </g>
   <g id="patch_18">
    <path d="M 368.95435 262.482812 
L 375.464881 262.482812 
L 375.464881 260.627287 
L 368.95435 260.627287 
z
" clip-path="url(#p0298398e79)" style="fill: #e41a1c"/>
   </g>
   <g id="patch_19">
    <path d="M 388.683232 262.482812 
L 395.193763 262.482812 
L 395.193763 259.036836 
L 388.683232 259.036836 
z
" clip-path="url(#p0298398e79)" style="fill: #e41a1c"/>
   </g>
   <g id="patch_20">
    <path d="M 408.412115 262.482812 
L 414.922646 262.482812 
L 414.922646 254.000409 
L 408.412115 254.000409 
z
" clip-path="url(#p0298398e79)" style="fill: #e41a1c"/>
   </g>
   <g id="patch_21">
    <path d="M 428.140997 262.482812 
L 434.651528 262.482812 
L 434.651528 260.229674 
L 428.140997 260.229674 
z
" clip-path="url(#p0298398e79)" style="fill: #e41a1c"/>
   </g>
   <g id="patch_22">
    <path d="M 447.86988 262.482812 
L 454.380411 262.482812 
L 454.380411 260.892362 
L 447.86988 260.892362 
z
" clip-path="url(#p0298398e79)" style="fill: #e41a1c"/>
   </g>
   <g id="patch_23">
    <path d="M 467.598762 262.482812 
L 474.109293 262.482812 
L 474.109293 262.482812 
L 467.598762 262.482812 
z
" clip-path="url(#p0298398e79)" style="fill: #e41a1c"/>
   </g>
   <g id="patch_24">
    <path d="M 79.531644 262.482812 
L 86.042175 262.482812 
L 86.042175 90.051444 
L 79.531644 90.051444 
z
" clip-path="url(#p0298398e79)" style="fill: #999999"/>
   </g>
   <g id="patch_25">
    <path d="M 99.260527 262.482812 
L 105.771058 262.482812 
L 105.771058 107.413865 
L 99.260527 107.413865 
z
" clip-path="url(#p0298398e79)" style="fill: #999999"/>
   </g>
   <g id="patch_26">
    <path d="M 118.989409 262.482812 
L 125.49994 262.482812 
L 125.49994 112.847905 
L 118.989409 112.847905 
z
" clip-path="url(#p0298398e79)" style="fill: #999999"/>
   </g>
   <g id="patch_27">
    <path d="M 138.718292 262.482812 
L 145.228823 262.482812 
L 145.228823 147.440209 
L 138.718292 147.440209 
z
" clip-path="url(#p0298398e79)" style="fill: #999999"/>
   </g>
   <g id="patch_28">
    <path d="M 158.447174 262.482812 
L 164.957705 262.482812 
L 164.957705 161.754265 
L 158.447174 161.754265 
z
" clip-path="url(#p0298398e79)" style="fill: #999999"/>
   </g>
   <g id="patch_29">
    <path d="M 178.176057 262.482812 
L 184.686588 262.482812 
L 184.686588 141.741093 
L 178.176057 141.741093 
z
" clip-path="url(#p0298398e79)" style="fill: #999999"/>
   </g>
   <g id="patch_30">
    <path d="M 197.904939 262.482812 
L 204.41547 262.482812 
L 204.41547 128.3548 
L 197.904939 128.3548 
z
" clip-path="url(#p0298398e79)" style="fill: #999999"/>
   </g>
   <g id="patch_31">
    <path d="M 217.633821 262.482812 
L 224.144353 262.482812 
L 224.144353 175.140559 
L 217.633821 175.140559 
z
" clip-path="url(#p0298398e79)" style="fill: #999999"/>
   </g>
   <g id="patch_32">
    <path d="M 237.362704 262.482812 
L 243.873235 262.482812 
L 243.873235 189.189541 
L 237.362704 189.189541 
z
" clip-path="url(#p0298398e79)" style="fill: #999999"/>
   </g>
   <g id="patch_33">
    <path d="M 257.091586 262.482812 
L 263.602118 262.482812 
L 263.602118 160.561427 
L 257.091586 160.561427 
z
" clip-path="url(#p0298398e79)" style="fill: #999999"/>
   </g>
   <g id="patch_34">
    <path d="M 276.820469 262.482812 
L 283.331 262.482812 
L 283.331 190.514916 
L 276.820469 190.514916 
z
" clip-path="url(#p0298398e79)" style="fill: #999999"/>
   </g>
   <g id="patch_35">
    <path d="M 296.549351 262.482812 
L 303.059882 262.482812 
L 303.059882 49.097338 
L 296.549351 49.097338 
z
" clip-path="url(#p0298398e79)" style="fill: #999999"/>
   </g>
   <g id="patch_36">
    <path d="M 316.278234 262.482812 
L 322.788765 262.482812 
L 322.788765 104.365501 
L 316.278234 104.365501 
z
" clip-path="url(#p0298398e79)" style="fill: #999999"/>
   </g>
   <g id="patch_37">
    <path d="M 336.007116 262.482812 
L 342.517647 262.482812 
L 342.517647 54.133765 
L 336.007116 54.133765 
z
" clip-path="url(#p0298398e79)" style="fill: #999999"/>
   </g>
   <g id="patch_38">
    <path d="M 355.735999 262.482812 
L 362.24653 262.482812 
L 362.24653 88.726069 
L 355.735999 88.726069 
z
" clip-path="url(#p0298398e79)" style="fill: #999999"/>
   </g>
   <g id="patch_39">
    <path d="M 375.464881 262.482812 
L 381.975412 262.482812 
L 381.975412 113.64313 
L 375.464881 113.64313 
z
" clip-path="url(#p0298398e79)" style="fill: #999999"/>
   </g>
   <g id="patch_40">
    <path d="M 395.193763 262.482812 
L 401.704295 262.482812 
L 401.704295 107.281327 
L 395.193763 107.281327 
z
" clip-path="url(#p0298398e79)" style="fill: #999999"/>
   </g>
   <g id="patch_41">
    <path d="M 414.922646 262.482812 
L 421.433177 262.482812 
L 421.433177 128.752412 
L 414.922646 128.752412 
z
" clip-path="url(#p0298398e79)" style="fill: #999999"/>
   </g>
   <g id="patch_42">
    <path d="M 434.651528 262.482812 
L 441.16206 262.482812 
L 441.16206 114.968506 
L 434.651528 114.968506 
z
" clip-path="url(#p0298398e79)" style="fill: #999999"/>
   </g>
   <g id="patch_43">
    <path d="M 454.380411 262.482812 
L 460.890942 262.482812 
L 460.890942 111.920142 
L 454.380411 111.920142 
z
" clip-path="url(#p0298398e79)" style="fill: #999999"/>
   </g>
   <g id="patch_44">
    <path d="M 474.109293 262.482812 
L 480.619824 262.482812 
L 480.619824 204.961511 
L 474.109293 204.961511 
z
" clip-path="url(#p0298398e79)" style="fill: #999999"/>
   </g>
   <g id="matplotlib.axis_1">
    <g id="xtick_1">
     <g id="line2d_1">
      <defs>
       <path id="m4b95a0a5a4" d="M 0 0 
L 0 3.5 
" style="stroke: #000000; stroke-width: 0.8"/>
      </defs>
      <g>
       <use xlink:href="#m4b95a0a5a4" x="76.276379" y="262.482812" style="stroke: #000000; stroke-width: 0.8"/>
      </g>
     </g>
     <g id="text_1">
      <!-- 1 -->
      <g transform="translate(72.777004 277.841094) scale(0.11 -0.11)">
       <defs>
        <path id="DejaVuSans-31" d="M 794 531 
L 1825 531 
L 1825 4091 
L 703 3866 
L 703 4441 
L 1819 4666 
L 2450 4666 
L 2450 531 
L 3481 531 
L 3481 0 
L 794 0 
L 794 531 
z
" transform="scale(0.015625)"/>
       </defs>
       <use xlink:href="#DejaVuSans-31"/>
      </g>
     </g>
    </g>
    <g id="xtick_2">
     <g id="line2d_2">
      <g>
       <use xlink:href="#m4b95a0a5a4" x="96.005261" y="262.482812" style="stroke: #000000; stroke-width: 0.8"/>
      </g>
     </g>
     <g id="text_2">
      <!-- 2 -->
      <g transform="translate(92.505886 277.841094) scale(0.11 -0.11)">
       <defs>
        <path id="DejaVuSans-32" d="M 1228 531 
L 3431 531 
L 3431 0 
L 469 0 
L 469 531 
Q 828 903 1448 1529 
Q 2069 2156 2228 2338 
Q 2531 2678 2651 2914 
Q 2772 3150 2772 3378 
Q 2772 3750 2511 3984 
Q 2250 4219 1831 4219 
Q 1534 4219 1204 4116 
Q 875 4013 500 3803 
L 500 4441 
Q 881 4594 1212 4672 
Q 1544 4750 1819 4750 
Q 2544 4750 2975 4387 
Q 3406 4025 3406 3419 
Q 3406 3131 3298 2873 
Q 3191 2616 2906 2266 
Q 2828 2175 2409 1742 
Q 1991 1309 1228 531 
z
" transform="scale(0.015625)"/>
       </defs>
       <use xlink:href="#DejaVuSans-32"/>
      </g>
     </g>
    </g>
    <g id="xtick_3">
     <g id="line2d_3">
      <g>
       <use xlink:href="#m4b95a0a5a4" x="115.734144" y="262.482812" style="stroke: #000000; stroke-width: 0.8"/>
      </g>
     </g>
     <g id="text_3">
      <!-- 3 -->
      <g transform="translate(112.234769 277.841094) scale(0.11 -0.11)">
       <defs>
        <path id="DejaVuSans-33" d="M 2597 2516 
Q 3050 2419 3304 2112 
Q 3559 1806 3559 1356 
Q 3559 666 3084 287 
Q 2609 -91 1734 -91 
Q 1441 -91 1130 -33 
Q 819 25 488 141 
L 488 750 
Q 750 597 1062 519 
Q 1375 441 1716 441 
Q 2309 441 2620 675 
Q 2931 909 2931 1356 
Q 2931 1769 2642 2001 
Q 2353 2234 1838 2234 
L 1294 2234 
L 1294 2753 
L 1863 2753 
Q 2328 2753 2575 2939 
Q 2822 3125 2822 3475 
Q 2822 3834 2567 4026 
Q 2313 4219 1838 4219 
Q 1578 4219 1281 4162 
Q 984 4106 628 3988 
L 628 4550 
Q 988 4650 1302 4700 
Q 1616 4750 1894 4750 
Q 2613 4750 3031 4423 
Q 3450 4097 3450 3541 
Q 3450 3153 3228 2886 
Q 3006 2619 2597 2516 
z
" transform="scale(0.015625)"/>
       </defs>
       <use xlink:href="#DejaVuSans-33"/>
      </g>
     </g>
    </g>
    <g id="xtick_4">
     <g id="line2d_4">
      <g>
       <use xlink:href="#m4b95a0a5a4" x="135.463026" y="262.482812" style="stroke: #000000; stroke-width: 0.8"/>
      </g>
     </g>
     <g id="text_4">
      <!-- 4 -->
      <g transform="translate(131.963651 277.841094) scale(0.11 -0.11)">
       <defs>
        <path id="DejaVuSans-34" d="M 2419 4116 
L 825 1625 
L 2419 1625 
L 2419 4116 
z
M 2253 4666 
L 3047 4666 
L 3047 1625 
L 3713 1625 
L 3713 1100 
L 3047 1100 
L 3047 0 
L 2419 0 
L 2419 1100 
L 313 1100 
L 313 1709 
L 2253 4666 
z
" transform="scale(0.015625)"/>
       </defs>
       <use xlink:href="#DejaVuSans-34"/>
      </g>
     </g>
    </g>
    <g id="xtick_5">
     <g id="line2d_5">
      <g>
       <use xlink:href="#m4b95a0a5a4" x="155.191908" y="262.482812" style="stroke: #000000; stroke-width: 0.8"/>
      </g>
     </g>
     <g id="text_5">
      <!-- 5 -->
      <g transform="translate(151.692533 277.841094) scale(0.11 -0.11)">
       <defs>
        <path id="DejaVuSans-35" d="M 691 4666 
L 3169 4666 
L 3169 4134 
L 1269 4134 
L 1269 2991 
Q 1406 3038 1543 3061 
Q 1681 3084 1819 3084 
Q 2600 3084 3056 2656 
Q 3513 2228 3513 1497 
Q 3513 744 3044 326 
Q 2575 -91 1722 -91 
Q 1428 -91 1123 -41 
Q 819 9 494 109 
L 494 744 
Q 775 591 1075 516 
Q 1375 441 1709 441 
Q 2250 441 2565 725 
Q 2881 1009 2881 1497 
Q 2881 1984 2565 2268 
Q 2250 2553 1709 2553 
Q 1456 2553 1204 2497 
Q 953 2441 691 2322 
L 691 4666 
z
" transform="scale(0.015625)"/>
       </defs>
       <use xlink:href="#DejaVuSans-35"/>
      </g>
     </g>
    </g>
    <g id="xtick_6">
     <g id="line2d_6">
      <g>
       <use xlink:href="#m4b95a0a5a4" x="174.920791" y="262.482812" style="stroke: #000000; stroke-width: 0.8"/>
      </g>
     </g>
     <g id="text_6">
      <!-- 6 -->
      <g transform="translate(171.421416 277.841094) scale(0.11 -0.11)">
       <defs>
        <path id="DejaVuSans-36" d="M 2113 2584 
Q 1688 2584 1439 2293 
Q 1191 2003 1191 1497 
Q 1191 994 1439 701 
Q 1688 409 2113 409 
Q 2538 409 2786 701 
Q 3034 994 3034 1497 
Q 3034 2003 2786 2293 
Q 2538 2584 2113 2584 
z
M 3366 4563 
L 3366 3988 
Q 3128 4100 2886 4159 
Q 2644 4219 2406 4219 
Q 1781 4219 1451 3797 
Q 1122 3375 1075 2522 
Q 1259 2794 1537 2939 
Q 1816 3084 2150 3084 
Q 2853 3084 3261 2657 
Q 3669 2231 3669 1497 
Q 3669 778 3244 343 
Q 2819 -91 2113 -91 
Q 1303 -91 875 529 
Q 447 1150 447 2328 
Q 447 3434 972 4092 
Q 1497 4750 2381 4750 
Q 2619 4750 2861 4703 
Q 3103 4656 3366 4563 
z
" transform="scale(0.015625)"/>
       </defs>
       <use xlink:href="#DejaVuSans-36"/>
      </g>
     </g>
    </g>
    <g id="xtick_7">
     <g id="line2d_7">
      <g>
       <use xlink:href="#m4b95a0a5a4" x="194.649673" y="262.482812" style="stroke: #000000; stroke-width: 0.8"/>
      </g>
     </g>
     <g id="text_7">
      <!-- 7 -->
      <g transform="translate(191.150298 277.841094) scale(0.11 -0.11)">
       <defs>
        <path id="DejaVuSans-37" d="M 525 4666 
L 3525 4666 
L 3525 4397 
L 1831 0 
L 1172 0 
L 2766 4134 
L 525 4134 
L 525 4666 
z
" transform="scale(0.015625)"/>
       </defs>
       <use xlink:href="#DejaVuSans-37"/>
      </g>
     </g>
    </g>
    <g id="xtick_8">
     <g id="line2d_8">
      <g>
       <use xlink:href="#m4b95a0a5a4" x="214.378556" y="262.482812" style="stroke: #000000; stroke-width: 0.8"/>
      </g>
     </g>
     <g id="text_8">
      <!-- 8 -->
      <g transform="translate(210.879181 277.841094) scale(0.11 -0.11)">
       <defs>
        <path id="DejaVuSans-38" d="M 2034 2216 
Q 1584 2216 1326 1975 
Q 1069 1734 1069 1313 
Q 1069 891 1326 650 
Q 1584 409 2034 409 
Q 2484 409 2743 651 
Q 3003 894 3003 1313 
Q 3003 1734 2745 1975 
Q 2488 2216 2034 2216 
z
M 1403 2484 
Q 997 2584 770 2862 
Q 544 3141 544 3541 
Q 544 4100 942 4425 
Q 1341 4750 2034 4750 
Q 2731 4750 3128 4425 
Q 3525 4100 3525 3541 
Q 3525 3141 3298 2862 
Q 3072 2584 2669 2484 
Q 3125 2378 3379 2068 
Q 3634 1759 3634 1313 
Q 3634 634 3220 271 
Q 2806 -91 2034 -91 
Q 1263 -91 848 271 
Q 434 634 434 1313 
Q 434 1759 690 2068 
Q 947 2378 1403 2484 
z
M 1172 3481 
Q 1172 3119 1398 2916 
Q 1625 2713 2034 2713 
Q 2441 2713 2670 2916 
Q 2900 3119 2900 3481 
Q 2900 3844 2670 4047 
Q 2441 4250 2034 4250 
Q 1625 4250 1398 4047 
Q 1172 3844 1172 3481 
z
" transform="scale(0.015625)"/>
       </defs>
       <use xlink:href="#DejaVuSans-38"/>
      </g>
     </g>
    </g>
    <g id="xtick_9">
     <g id="line2d_9">
      <g>
       <use xlink:href="#m4b95a0a5a4" x="234.107438" y="262.482812" style="stroke: #000000; stroke-width: 0.8"/>
      </g>
     </g>
     <g id="text_9">
      <!-- 9 -->
      <g transform="translate(230.608063 277.841094) scale(0.11 -0.11)">
       <defs>
        <path id="DejaVuSans-39" d="M 703 97 
L 703 672 
Q 941 559 1184 500 
Q 1428 441 1663 441 
Q 2288 441 2617 861 
Q 2947 1281 2994 2138 
Q 2813 1869 2534 1725 
Q 2256 1581 1919 1581 
Q 1219 1581 811 2004 
Q 403 2428 403 3163 
Q 403 3881 828 4315 
Q 1253 4750 1959 4750 
Q 2769 4750 3195 4129 
Q 3622 3509 3622 2328 
Q 3622 1225 3098 567 
Q 2575 -91 1691 -91 
Q 1453 -91 1209 -44 
Q 966 3 703 97 
z
M 1959 2075 
Q 2384 2075 2632 2365 
Q 2881 2656 2881 3163 
Q 2881 3666 2632 3958 
Q 2384 4250 1959 4250 
Q 1534 4250 1286 3958 
Q 1038 3666 1038 3163 
Q 1038 2656 1286 2365 
Q 1534 2075 1959 2075 
z
" transform="scale(0.015625)"/>
       </defs>
       <use xlink:href="#DejaVuSans-39"/>
      </g>
     </g>
    </g>
    <g id="xtick_10">
     <g id="line2d_10">
      <g>
       <use xlink:href="#m4b95a0a5a4" x="253.836321" y="262.482812" style="stroke: #000000; stroke-width: 0.8"/>
      </g>
     </g>
     <g id="text_10">
      <!-- 10 -->
      <g transform="translate(246.837571 277.841094) scale(0.11 -0.11)">
       <defs>
        <path id="DejaVuSans-30" d="M 2034 4250 
Q 1547 4250 1301 3770 
Q 1056 3291 1056 2328 
Q 1056 1369 1301 889 
Q 1547 409 2034 409 
Q 2525 409 2770 889 
Q 3016 1369 3016 2328 
Q 3016 3291 2770 3770 
Q 2525 4250 2034 4250 
z
M 2034 4750 
Q 2819 4750 3233 4129 
Q 3647 3509 3647 2328 
Q 3647 1150 3233 529 
Q 2819 -91 2034 -91 
Q 1250 -91 836 529 
Q 422 1150 422 2328 
Q 422 3509 836 4129 
Q 1250 4750 2034 4750 
z
" transform="scale(0.015625)"/>
       </defs>
       <use xlink:href="#DejaVuSans-31"/>
       <use xlink:href="#DejaVuSans-30" x="63.623047"/>
      </g>
     </g>
    </g>
    <g id="xtick_11">
     <g id="line2d_11">
      <g>
       <use xlink:href="#m4b95a0a5a4" x="273.565203" y="262.482812" style="stroke: #000000; stroke-width: 0.8"/>
      </g>
     </g>
     <g id="text_11">
      <!-- 11 -->
      <g transform="translate(266.566453 277.841094) scale(0.11 -0.11)">
       <use xlink:href="#DejaVuSans-31"/>
       <use xlink:href="#DejaVuSans-31" x="63.623047"/>
      </g>
     </g>
    </g>
    <g id="xtick_12">
     <g id="line2d_12">
      <g>
       <use xlink:href="#m4b95a0a5a4" x="293.294086" y="262.482812" style="stroke: #000000; stroke-width: 0.8"/>
      </g>
     </g>
     <g id="text_12">
      <!-- 12 -->
      <g transform="translate(286.295336 277.841094) scale(0.11 -0.11)">
       <use xlink:href="#DejaVuSans-31"/>
       <use xlink:href="#DejaVuSans-32" x="63.623047"/>
      </g>
     </g>
    </g>
    <g id="xtick_13">
     <g id="line2d_13">
      <g>
       <use xlink:href="#m4b95a0a5a4" x="313.022968" y="262.482812" style="stroke: #000000; stroke-width: 0.8"/>
      </g>
     </g>
     <g id="text_13">
      <!-- 13 -->
      <g transform="translate(306.024218 277.841094) scale(0.11 -0.11)">
       <use xlink:href="#DejaVuSans-31"/>
       <use xlink:href="#DejaVuSans-33" x="63.623047"/>
      </g>
     </g>
    </g>
    <g id="xtick_14">
     <g id="line2d_14">
      <g>
       <use xlink:href="#m4b95a0a5a4" x="332.75185" y="262.482812" style="stroke: #000000; stroke-width: 0.8"/>
      </g>
     </g>
     <g id="text_14">
      <!-- 14 -->
      <g transform="translate(325.7531 277.841094) scale(0.11 -0.11)">
       <use xlink:href="#DejaVuSans-31"/>
       <use xlink:href="#DejaVuSans-34" x="63.623047"/>
      </g>
     </g>
    </g>
    <g id="xtick_15">
     <g id="line2d_15">
      <g>
       <use xlink:href="#m4b95a0a5a4" x="352.480733" y="262.482812" style="stroke: #000000; stroke-width: 0.8"/>
      </g>
     </g>
     <g id="text_15">
      <!-- 15 -->
      <g transform="translate(345.481983 277.841094) scale(0.11 -0.11)">
       <use xlink:href="#DejaVuSans-31"/>
       <use xlink:href="#DejaVuSans-35" x="63.623047"/>
      </g>
     </g>
    </g>
    <g id="xtick_16">
     <g id="line2d_16">
      <g>
       <use xlink:href="#m4b95a0a5a4" x="372.209615" y="262.482812" style="stroke: #000000; stroke-width: 0.8"/>
      </g>
     </g>
     <g id="text_16">
      <!-- 16 -->
      <g transform="translate(365.210865 277.841094) scale(0.11 -0.11)">
       <use xlink:href="#DejaVuSans-31"/>
       <use xlink:href="#DejaVuSans-36" x="63.623047"/>
      </g>
     </g>
    </g>
    <g id="xtick_17">
     <g id="line2d_17">
      <g>
       <use xlink:href="#m4b95a0a5a4" x="391.938498" y="262.482812" style="stroke: #000000; stroke-width: 0.8"/>
      </g>
     </g>
     <g id="text_17">
      <!-- 17 -->
      <g transform="translate(384.939748 277.841094) scale(0.11 -0.11)">
       <use xlink:href="#DejaVuSans-31"/>
       <use xlink:href="#DejaVuSans-37" x="63.623047"/>
      </g>
     </g>
    </g>
    <g id="xtick_18">
     <g id="line2d_18">
      <g>
       <use xlink:href="#m4b95a0a5a4" x="411.66738" y="262.482812" style="stroke: #000000; stroke-width: 0.8"/>
      </g>
     </g>
     <g id="text_18">
      <!-- 18 -->
      <g transform="translate(404.66863 277.841094) scale(0.11 -0.11)">
       <use xlink:href="#DejaVuSans-31"/>
       <use xlink:href="#DejaVuSans-38" x="63.623047"/>
      </g>
     </g>
    </g>
    <g id="xtick_19">
     <g id="line2d_19">
      <g>
       <use xlink:href="#m4b95a0a5a4" x="431.396263" y="262.482812" style="stroke: #000000; stroke-width: 0.8"/>
      </g>
     </g>
     <g id="text_19">
      <!-- 19 -->
      <g transform="translate(424.397513 277.841094) scale(0.11 -0.11)">
       <use xlink:href="#DejaVuSans-31"/>
       <use xlink:href="#DejaVuSans-39" x="63.623047"/>
      </g>
     </g>
    </g>
    <g id="xtick_20">
     <g id="line2d_20">
      <g>
       <use xlink:href="#m4b95a0a5a4" x="451.125145" y="262.482812" style="stroke: #000000; stroke-width: 0.8"/>
      </g>
     </g>
     <g id="text_20">
      <!-- X -->
      <g transform="translate(447.357645 277.841094) scale(0.11 -0.11)">
       <defs>
        <path id="DejaVuSans-58" d="M 403 4666 
L 1081 4666 
L 2241 2931 
L 3406 4666 
L 4084 4666 
L 2584 2425 
L 4184 0 
L 3506 0 
L 2194 1984 
L 872 0 
L 191 0 
L 1856 2491 
L 403 4666 
z
" transform="scale(0.015625)"/>
       </defs>
       <use xlink:href="#DejaVuSans-58"/>
      </g>
     </g>
    </g>
    <g id="xtick_21">
     <g id="line2d_21">
      <g>
       <use xlink:href="#m4b95a0a5a4" x="470.854028" y="262.482812" style="stroke: #000000; stroke-width: 0.8"/>
      </g>
     </g>
     <g id="text_21">
      <!-- Y -->
      <g transform="translate(467.494731 277.841094) scale(0.11 -0.11)">
       <defs>
        <path id="DejaVuSans-59" d="M -13 4666 
L 666 4666 
L 1959 2747 
L 3244 4666 
L 3922 4666 
L 2272 2222 
L 2272 0 
L 1638 0 
L 1638 2222 
L -13 4666 
z
" transform="scale(0.015625)"/>
       </defs>
       <use xlink:href="#DejaVuSans-59"/>
      </g>
     </g>
    </g>
    <g id="text_22">
     <!-- Mouse chr -->
     <g transform="translate(248.455938 292.487031) scale(0.11 -0.11)">
      <defs>
       <path id="DejaVuSans-4d" d="M 628 4666 
L 1569 4666 
L 2759 1491 
L 3956 4666 
L 4897 4666 
L 4897 0 
L 4281 0 
L 4281 4097 
L 3078 897 
L 2444 897 
L 1241 4097 
L 1241 0 
L 628 0 
L 628 4666 
z
" transform="scale(0.015625)"/>
       <path id="DejaVuSans-6f" d="M 1959 3097 
Q 1497 3097 1228 2736 
Q 959 2375 959 1747 
Q 959 1119 1226 758 
Q 1494 397 1959 397 
Q 2419 397 2687 759 
Q 2956 1122 2956 1747 
Q 2956 2369 2687 2733 
Q 2419 3097 1959 3097 
z
M 1959 3584 
Q 2709 3584 3137 3096 
Q 3566 2609 3566 1747 
Q 3566 888 3137 398 
Q 2709 -91 1959 -91 
Q 1206 -91 779 398 
Q 353 888 353 1747 
Q 353 2609 779 3096 
Q 1206 3584 1959 3584 
z
" transform="scale(0.015625)"/>
       <path id="DejaVuSans-75" d="M 544 1381 
L 544 3500 
L 1119 3500 
L 1119 1403 
Q 1119 906 1312 657 
Q 1506 409 1894 409 
Q 2359 409 2629 706 
Q 2900 1003 2900 1516 
L 2900 3500 
L 3475 3500 
L 3475 0 
L 2900 0 
L 2900 538 
Q 2691 219 2414 64 
Q 2138 -91 1772 -91 
Q 1169 -91 856 284 
Q 544 659 544 1381 
z
M 1991 3584 
L 1991 3584 
z
" transform="scale(0.015625)"/>
       <path id="DejaVuSans-73" d="M 2834 3397 
L 2834 2853 
Q 2591 2978 2328 3040 
Q 2066 3103 1784 3103 
Q 1356 3103 1142 2972 
Q 928 2841 928 2578 
Q 928 2378 1081 2264 
Q 1234 2150 1697 2047 
L 1894 2003 
Q 2506 1872 2764 1633 
Q 3022 1394 3022 966 
Q 3022 478 2636 193 
Q 2250 -91 1575 -91 
Q 1294 -91 989 -36 
Q 684 19 347 128 
L 347 722 
Q 666 556 975 473 
Q 1284 391 1588 391 
Q 1994 391 2212 530 
Q 2431 669 2431 922 
Q 2431 1156 2273 1281 
Q 2116 1406 1581 1522 
L 1381 1569 
Q 847 1681 609 1914 
Q 372 2147 372 2553 
Q 372 3047 722 3315 
Q 1072 3584 1716 3584 
Q 2034 3584 2315 3537 
Q 2597 3491 2834 3397 
z
" transform="scale(0.015625)"/>
       <path id="DejaVuSans-65" d="M 3597 1894 
L 3597 1613 
L 953 1613 
Q 991 1019 1311 708 
Q 1631 397 2203 397 
Q 2534 397 2845 478 
Q 3156 559 3463 722 
L 3463 178 
Q 3153 47 2828 -22 
Q 2503 -91 2169 -91 
Q 1331 -91 842 396 
Q 353 884 353 1716 
Q 353 2575 817 3079 
Q 1281 3584 2069 3584 
Q 2775 3584 3186 3129 
Q 3597 2675 3597 1894 
z
M 3022 2063 
Q 3016 2534 2758 2815 
Q 2500 3097 2075 3097 
Q 1594 3097 1305 2825 
Q 1016 2553 972 2059 
L 3022 2063 
z
" transform="scale(0.015625)"/>
       <path id="DejaVuSans-20" transform="scale(0.015625)"/>
       <path id="DejaVuSans-63" d="M 3122 3366 
L 3122 2828 
Q 2878 2963 2633 3030 
Q 2388 3097 2138 3097 
Q 1578 3097 1268 2742 
Q 959 2388 959 1747 
Q 959 1106 1268 751 
Q 1578 397 2138 397 
Q 2388 397 2633 464 
Q 2878 531 3122 666 
L 3122 134 
Q 2881 22 2623 -34 
Q 2366 -91 2075 -91 
Q 1284 -91 818 406 
Q 353 903 353 1747 
Q 353 2603 823 3093 
Q 1294 3584 2113 3584 
Q 2378 3584 2631 3529 
Q 2884 3475 3122 3366 
z
" transform="scale(0.015625)"/>
       <path id="DejaVuSans-68" d="M 3513 2113 
L 3513 0 
L 2938 0 
L 2938 2094 
Q 2938 2591 2744 2837 
Q 2550 3084 2163 3084 
Q 1697 3084 1428 2787 
Q 1159 2491 1159 1978 
L 1159 0 
L 581 0 
L 581 4863 
L 1159 4863 
L 1159 2956 
Q 1366 3272 1645 3428 
Q 1925 3584 2291 3584 
Q 2894 3584 3203 3211 
Q 3513 2838 3513 2113 
z
" transform="scale(0.015625)"/>
       <path id="DejaVuSans-72" d="M 2631 2963 
Q 2534 3019 2420 3045 
Q 2306 3072 2169 3072 
Q 1681 3072 1420 2755 
Q 1159 2438 1159 1844 
L 1159 0 
L 581 0 
L 581 3500 
L 1159 3500 
L 1159 2956 
Q 1341 3275 1631 3429 
Q 1922 3584 2338 3584 
Q 2397 3584 2469 3576 
Q 2541 3569 2628 3553 
L 2631 2963 
z
" transform="scale(0.015625)"/>
      </defs>
      <use xlink:href="#DejaVuSans-4d"/>
      <use xlink:href="#DejaVuSans-6f" x="86.279297"/>
      <use xlink:href="#DejaVuSans-75" x="147.460938"/>
      <use xlink:href="#DejaVuSans-73" x="210.839844"/>
      <use xlink:href="#DejaVuSans-65" x="262.939453"/>
      <use xlink:href="#DejaVuSans-20" x="324.462891"/>
      <use xlink:href="#DejaVuSans-63" x="356.25"/>
      <use xlink:href="#DejaVuSans-68" x="411.230469"/>
      <use xlink:href="#DejaVuSans-72" x="474.609375"/>
     </g>
    </g>
   </g>
   <g id="matplotlib.axis_2">
    <g id="ytick_1">
     <g id="line2d_22">
      <defs>
       <path id="m165e023fec" d="M 0 0 
L -3.5 0 
" style="stroke: #000000; stroke-width: 0.8"/>
      </defs>
      <g>
       <use xlink:href="#m165e023fec" x="52.641178" y="262.482812" style="stroke: #000000; stroke-width: 0.8"/>
      </g>
     </g>
     <g id="text_23">
      <!-- 0 -->
      <g transform="translate(38.642428 266.661953) scale(0.11 -0.11)">
       <use xlink:href="#DejaVuSans-30"/>
      </g>
     </g>
    </g>
    <g id="ytick_2">
     <g id="line2d_23">
      <g>
       <use xlink:href="#m165e023fec" x="52.641178" y="235.9753" style="stroke: #000000; stroke-width: 0.8"/>
      </g>
     </g>
     <g id="text_24">
      <!-- 200 -->
      <g transform="translate(24.644928 240.154441) scale(0.11 -0.11)">
       <use xlink:href="#DejaVuSans-32"/>
       <use xlink:href="#DejaVuSans-30" x="63.623047"/>
       <use xlink:href="#DejaVuSans-30" x="127.246094"/>
      </g>
     </g>
    </g>
    <g id="ytick_3">
     <g id="line2d_24">
      <g>
       <use xlink:href="#m165e023fec" x="52.641178" y="209.467788" style="stroke: #000000; stroke-width: 0.8"/>
      </g>
     </g>
     <g id="text_25">
      <!-- 400 -->
      <g transform="translate(24.644928 213.646928) scale(0.11 -0.11)">
       <use xlink:href="#DejaVuSans-34"/>
       <use xlink:href="#DejaVuSans-30" x="63.623047"/>
       <use xlink:href="#DejaVuSans-30" x="127.246094"/>
      </g>
     </g>
    </g>
    <g id="ytick_4">
     <g id="line2d_25">
      <g>
       <use xlink:href="#m165e023fec" x="52.641178" y="182.960275" style="stroke: #000000; stroke-width: 0.8"/>
      </g>
     </g>
     <g id="text_26">
      <!-- 600 -->
      <g transform="translate(24.644928 187.139416) scale(0.11 -0.11)">
       <use xlink:href="#DejaVuSans-36"/>
       <use xlink:href="#DejaVuSans-30" x="63.623047"/>
       <use xlink:href="#DejaVuSans-30" x="127.246094"/>
      </g>
     </g>
    </g>
    <g id="ytick_5">
     <g id="line2d_26">
      <g>
       <use xlink:href="#m165e023fec" x="52.641178" y="156.452763" style="stroke: #000000; stroke-width: 0.8"/>
      </g>
     </g>
     <g id="text_27">
      <!-- 800 -->
      <g transform="translate(24.644928 160.631903) scale(0.11 -0.11)">
       <use xlink:href="#DejaVuSans-38"/>
       <use xlink:href="#DejaVuSans-30" x="63.623047"/>
       <use xlink:href="#DejaVuSans-30" x="127.246094"/>
      </g>
     </g>
    </g>
    <g id="ytick_6">
     <g id="line2d_27">
      <g>
       <use xlink:href="#m165e023fec" x="52.641178" y="129.94525" style="stroke: #000000; stroke-width: 0.8"/>
      </g>
     </g>
     <g id="text_28">
      <!-- 1000 -->
      <g transform="translate(17.646178 134.124391) scale(0.11 -0.11)">
       <use xlink:href="#DejaVuSans-31"/>
       <use xlink:href="#DejaVuSans-30" x="63.623047"/>
       <use xlink:href="#DejaVuSans-30" x="127.246094"/>
       <use xlink:href="#DejaVuSans-30" x="190.869141"/>
      </g>
     </g>
    </g>
    <g id="ytick_7">
     <g id="line2d_28">
      <g>
       <use xlink:href="#m165e023fec" x="52.641178" y="103.437738" style="stroke: #000000; stroke-width: 0.8"/>
      </g>
     </g>
     <g id="text_29">
      <!-- 1200 -->
      <g transform="translate(17.646178 107.616879) scale(0.11 -0.11)">
       <use xlink:href="#DejaVuSans-31"/>
       <use xlink:href="#DejaVuSans-32" x="63.623047"/>
       <use xlink:href="#DejaVuSans-30" x="127.246094"/>
       <use xlink:href="#DejaVuSans-30" x="190.869141"/>
      </g>
     </g>
    </g>
    <g id="ytick_8">
     <g id="line2d_29">
      <g>
       <use xlink:href="#m165e023fec" x="52.641178" y="76.930226" style="stroke: #000000; stroke-width: 0.8"/>
      </g>
     </g>
     <g id="text_30">
      <!-- 1400 -->
      <g transform="translate(17.646178 81.109366) scale(0.11 -0.11)">
       <use xlink:href="#DejaVuSans-31"/>
       <use xlink:href="#DejaVuSans-34" x="63.623047"/>
       <use xlink:href="#DejaVuSans-30" x="127.246094"/>
       <use xlink:href="#DejaVuSans-30" x="190.869141"/>
      </g>
     </g>
    </g>
    <g id="ytick_9">
     <g id="line2d_30">
      <g>
       <use xlink:href="#m165e023fec" x="52.641178" y="50.422713" style="stroke: #000000; stroke-width: 0.8"/>
      </g>
     </g>
     <g id="text_31">
      <!-- 1600 -->
      <g transform="translate(17.646178 54.601854) scale(0.11 -0.11)">
       <use xlink:href="#DejaVuSans-31"/>
       <use xlink:href="#DejaVuSans-36" x="63.623047"/>
       <use xlink:href="#DejaVuSans-30" x="127.246094"/>
       <use xlink:href="#DejaVuSans-30" x="190.869141"/>
      </g>
     </g>
    </g>
    <g id="text_32">
     <!-- Matches in fly -->
     <g transform="translate(11.358521 188.715672) rotate(-90) scale(0.11 -0.11)">
      <defs>
       <path id="DejaVuSans-61" d="M 2194 1759 
Q 1497 1759 1228 1600 
Q 959 1441 959 1056 
Q 959 750 1161 570 
Q 1363 391 1709 391 
Q 2188 391 2477 730 
Q 2766 1069 2766 1631 
L 2766 1759 
L 2194 1759 
z
M 3341 1997 
L 3341 0 
L 2766 0 
L 2766 531 
Q 2569 213 2275 61 
Q 1981 -91 1556 -91 
Q 1019 -91 701 211 
Q 384 513 384 1019 
Q 384 1609 779 1909 
Q 1175 2209 1959 2209 
L 2766 2209 
L 2766 2266 
Q 2766 2663 2505 2880 
Q 2244 3097 1772 3097 
Q 1472 3097 1187 3025 
Q 903 2953 641 2809 
L 641 3341 
Q 956 3463 1253 3523 
Q 1550 3584 1831 3584 
Q 2591 3584 2966 3190 
Q 3341 2797 3341 1997 
z
" transform="scale(0.015625)"/>
       <path id="DejaVuSans-74" d="M 1172 4494 
L 1172 3500 
L 2356 3500 
L 2356 3053 
L 1172 3053 
L 1172 1153 
Q 1172 725 1289 603 
Q 1406 481 1766 481 
L 2356 481 
L 2356 0 
L 1766 0 
Q 1100 0 847 248 
Q 594 497 594 1153 
L 594 3053 
L 172 3053 
L 172 3500 
L 594 3500 
L 594 4494 
L 1172 4494 
z
" transform="scale(0.015625)"/>
       <path id="DejaVuSans-69" d="M 603 3500 
L 1178 3500 
L 1178 0 
L 603 0 
L 603 3500 
z
M 603 4863 
L 1178 4863 
L 1178 4134 
L 603 4134 
L 603 4863 
z
" transform="scale(0.015625)"/>
       <path id="DejaVuSans-6e" d="M 3513 2113 
L 3513 0 
L 2938 0 
L 2938 2094 
Q 2938 2591 2744 2837 
Q 2550 3084 2163 3084 
Q 1697 3084 1428 2787 
Q 1159 2491 1159 1978 
L 1159 0 
L 581 0 
L 581 3500 
L 1159 3500 
L 1159 2956 
Q 1366 3272 1645 3428 
Q 1925 3584 2291 3584 
Q 2894 3584 3203 3211 
Q 3513 2838 3513 2113 
z
" transform="scale(0.015625)"/>
       <path id="DejaVuSans-66" d="M 2375 4863 
L 2375 4384 
L 1825 4384 
Q 1516 4384 1395 4259 
Q 1275 4134 1275 3809 
L 1275 3500 
L 2222 3500 
L 2222 3053 
L 1275 3053 
L 1275 0 
L 697 0 
L 697 3053 
L 147 3053 
L 147 3500 
L 697 3500 
L 697 3744 
Q 697 4328 969 4595 
Q 1241 4863 1831 4863 
L 2375 4863 
z
" transform="scale(0.015625)"/>
       <path id="DejaVuSans-6c" d="M 603 4863 
L 1178 4863 
L 1178 0 
L 603 0 
L 603 4863 
z
" transform="scale(0.015625)"/>
       <path id="DejaVuSans-79" d="M 2059 -325 
Q 1816 -950 1584 -1140 
Q 1353 -1331 966 -1331 
L 506 -1331 
L 506 -850 
L 844 -850 
Q 1081 -850 1212 -737 
Q 1344 -625 1503 -206 
L 1606 56 
L 191 3500 
L 800 3500 
L 1894 763 
L 2988 3500 
L 3597 3500 
L 2059 -325 
z
" transform="scale(0.015625)"/>
      </defs>
      <use xlink:href="#DejaVuSans-4d"/>
      <use xlink:href="#DejaVuSans-61" x="86.279297"/>
      <use xlink:href="#DejaVuSans-74" x="147.558594"/>
      <use xlink:href="#DejaVuSans-63" x="186.767578"/>
      <use xlink:href="#DejaVuSans-68" x="241.748047"/>
      <use xlink:href="#DejaVuSans-65" x="305.126953"/>
      <use xlink:href="#DejaVuSans-73" x="366.650391"/>
      <use xlink:href="#DejaVuSans-20" x="418.75"/>
      <use xlink:href="#DejaVuSans-69" x="450.537109"/>
      <use xlink:href="#DejaVuSans-6e" x="478.320312"/>
      <use xlink:href="#DejaVuSans-20" x="541.699219"/>
      <use xlink:href="#DejaVuSans-66" x="573.486328"/>
      <use xlink:href="#DejaVuSans-6c" x="608.691406"/>
      <use xlink:href="#DejaVuSans-79" x="636.474609"/>
     </g>
    </g>
   </g>
   <g id="patch_45">
    <path d="M 52.641178 262.482812 
L 52.641178 38.428064 
" style="fill: none; stroke: #000000; stroke-width: 0.8; stroke-linejoin: miter; stroke-linecap: square"/>
   </g>
   <g id="patch_46">
    <path d="M 500.99976 262.482812 
L 500.99976 38.428064 
" style="fill: none; stroke: #000000; stroke-width: 0.8; stroke-linejoin: miter; stroke-linecap: square"/>
   </g>
   <g id="patch_47">
    <path d="M 52.641178 262.482812 
L 500.99976 262.482812 
" style="fill: none; stroke: #000000; stroke-width: 0.8; stroke-linejoin: miter; stroke-linecap: square"/>
   </g>
   <g id="patch_48">
    <path d="M 52.641178 38.428064 
L 500.99976 38.428064 
" style="fill: none; stroke: #000000; stroke-width: 0.8; stroke-linejoin: miter; stroke-linecap: square"/>
   </g>
   <g id="text_33">
    <!-- Default search (word size=28) -->
    <g transform="translate(177.914844 32.428064) scale(0.13 -0.13)">
     <defs>
      <path id="DejaVuSans-44" d="M 1259 4147 
L 1259 519 
L 2022 519 
Q 2988 519 3436 956 
Q 3884 1394 3884 2338 
Q 3884 3275 3436 3711 
Q 2988 4147 2022 4147 
L 1259 4147 
z
M 628 4666 
L 1925 4666 
Q 3281 4666 3915 4102 
Q 4550 3538 4550 2338 
Q 4550 1131 3912 565 
Q 3275 0 1925 0 
L 628 0 
L 628 4666 
z
" transform="scale(0.015625)"/>
      <path id="DejaVuSans-28" d="M 1984 4856 
Q 1566 4138 1362 3434 
Q 1159 2731 1159 2009 
Q 1159 1288 1364 580 
Q 1569 -128 1984 -844 
L 1484 -844 
Q 1016 -109 783 600 
Q 550 1309 550 2009 
Q 550 2706 781 3412 
Q 1013 4119 1484 4856 
L 1984 4856 
z
" transform="scale(0.015625)"/>
      <path id="DejaVuSans-77" d="M 269 3500 
L 844 3500 
L 1563 769 
L 2278 3500 
L 2956 3500 
L 3675 769 
L 4391 3500 
L 4966 3500 
L 4050 0 
L 3372 0 
L 2619 2869 
L 1863 0 
L 1184 0 
L 269 3500 
z
" transform="scale(0.015625)"/>
      <path id="DejaVuSans-64" d="M 2906 2969 
L 2906 4863 
L 3481 4863 
L 3481 0 
L 2906 0 
L 2906 525 
Q 2725 213 2448 61 
Q 2172 -91 1784 -91 
Q 1150 -91 751 415 
Q 353 922 353 1747 
Q 353 2572 751 3078 
Q 1150 3584 1784 3584 
Q 2172 3584 2448 3432 
Q 2725 3281 2906 2969 
z
M 947 1747 
Q 947 1113 1208 752 
Q 1469 391 1925 391 
Q 2381 391 2643 752 
Q 2906 1113 2906 1747 
Q 2906 2381 2643 2742 
Q 2381 3103 1925 3103 
Q 1469 3103 1208 2742 
Q 947 2381 947 1747 
z
" transform="scale(0.015625)"/>
      <path id="DejaVuSans-7a" d="M 353 3500 
L 3084 3500 
L 3084 2975 
L 922 459 
L 3084 459 
L 3084 0 
L 275 0 
L 275 525 
L 2438 3041 
L 353 3041 
L 353 3500 
z
" transform="scale(0.015625)"/>
      <path id="DejaVuSans-3d" d="M 678 2906 
L 4684 2906 
L 4684 2381 
L 678 2381 
L 678 2906 
z
M 678 1631 
L 4684 1631 
L 4684 1100 
L 678 1100 
L 678 1631 
z
" transform="scale(0.015625)"/>
      <path id="DejaVuSans-29" d="M 513 4856 
L 1013 4856 
Q 1481 4119 1714 3412 
Q 1947 2706 1947 2009 
Q 1947 1309 1714 600 
Q 1481 -109 1013 -844 
L 513 -844 
Q 928 -128 1133 580 
Q 1338 1288 1338 2009 
Q 1338 2731 1133 3434 
Q 928 4138 513 4856 
z
" transform="scale(0.015625)"/>
     </defs>
     <use xlink:href="#DejaVuSans-44"/>
     <use xlink:href="#DejaVuSans-65" x="77.001953"/>
     <use xlink:href="#DejaVuSans-66" x="138.525391"/>
     <use xlink:href="#DejaVuSans-61" x="173.730469"/>
     <use xlink:href="#DejaVuSans-75" x="235.009766"/>
     <use xlink:href="#DejaVuSans-6c" x="298.388672"/>
     <use xlink:href="#DejaVuSans-74" x="326.171875"/>
     <use xlink:href="#DejaVuSans-20" x="365.380859"/>
     <use xlink:href="#DejaVuSans-73" x="397.167969"/>
     <use xlink:href="#DejaVuSans-65" x="449.267578"/>
     <use xlink:href="#DejaVuSans-61" x="510.791016"/>
     <use xlink:href="#DejaVuSans-72" x="572.070312"/>
     <use xlink:href="#DejaVuSans-63" x="610.933594"/>
     <use xlink:href="#DejaVuSans-68" x="665.914062"/>
     <use xlink:href="#DejaVuSans-20" x="729.292969"/>
     <use xlink:href="#DejaVuSans-28" x="761.080078"/>
     <use xlink:href="#DejaVuSans-77" x="800.09375"/>
     <use xlink:href="#DejaVuSans-6f" x="881.880859"/>
     <use xlink:href="#DejaVuSans-72" x="943.0625"/>
     <use xlink:href="#DejaVuSans-64" x="982.425781"/>
     <use xlink:href="#DejaVuSans-20" x="1045.902344"/>
     <use xlink:href="#DejaVuSans-73" x="1077.689453"/>
     <use xlink:href="#DejaVuSans-69" x="1129.789062"/>
     <use xlink:href="#DejaVuSans-7a" x="1157.572266"/>
     <use xlink:href="#DejaVuSans-65" x="1210.0625"/>
     <use xlink:href="#DejaVuSans-3d" x="1271.585938"/>
     <use xlink:href="#DejaVuSans-32" x="1355.375"/>
     <use xlink:href="#DejaVuSans-38" x="1418.998047"/>
     <use xlink:href="#DejaVuSans-29" x="1482.621094"/>
    </g>
   </g>
   <g id="legend_1">
    <g id="patch_49">
     <path d="M 61.041178 83.255564 
L 250.500552 83.255564 
Q 252.900553 83.255564 252.900553 80.855564 
L 252.900553 46.828064 
Q 252.900553 44.428064 250.500552 44.428064 
L 61.041178 44.428064 
Q 58.641178 44.428064 58.641178 46.828064 
L 58.641178 80.855564 
Q 58.641178 83.255564 61.041178 83.255564 
z
" style="fill: #ffffff; opacity: 0.8; stroke: #cccccc; stroke-linejoin: miter"/>
    </g>
    <g id="patch_50">
     <path d="M 63.441178 58.346189 
L 87.441178 58.346189 
L 87.441178 49.946189 
L 63.441178 49.946189 
z
" style="fill: #e41a1c"/>
    </g>
    <g id="text_34">
     <!-- missed eps (686) -->
     <g transform="translate(97.041178 58.346189) scale(0.12 -0.12)">
      <defs>
       <path id="DejaVuSans-6d" d="M 3328 2828 
Q 3544 3216 3844 3400 
Q 4144 3584 4550 3584 
Q 5097 3584 5394 3201 
Q 5691 2819 5691 2113 
L 5691 0 
L 5113 0 
L 5113 2094 
Q 5113 2597 4934 2840 
Q 4756 3084 4391 3084 
Q 3944 3084 3684 2787 
Q 3425 2491 3425 1978 
L 3425 0 
L 2847 0 
L 2847 2094 
Q 2847 2600 2669 2842 
Q 2491 3084 2119 3084 
Q 1678 3084 1418 2786 
Q 1159 2488 1159 1978 
L 1159 0 
L 581 0 
L 581 3500 
L 1159 3500 
L 1159 2956 
Q 1356 3278 1631 3431 
Q 1906 3584 2284 3584 
Q 2666 3584 2933 3390 
Q 3200 3197 3328 2828 
z
" transform="scale(0.015625)"/>
       <path id="DejaVuSans-70" d="M 1159 525 
L 1159 -1331 
L 581 -1331 
L 581 3500 
L 1159 3500 
L 1159 2969 
Q 1341 3281 1617 3432 
Q 1894 3584 2278 3584 
Q 2916 3584 3314 3078 
Q 3713 2572 3713 1747 
Q 3713 922 3314 415 
Q 2916 -91 2278 -91 
Q 1894 -91 1617 61 
Q 1341 213 1159 525 
z
M 3116 1747 
Q 3116 2381 2855 2742 
Q 2594 3103 2138 3103 
Q 1681 3103 1420 2742 
Q 1159 2381 1159 1747 
Q 1159 1113 1420 752 
Q 1681 391 2138 391 
Q 2594 391 2855 752 
Q 3116 1113 3116 1747 
z
" transform="scale(0.015625)"/>
      </defs>
      <use xlink:href="#DejaVuSans-6d"/>
      <use xlink:href="#DejaVuSans-69" x="97.412109"/>
      <use xlink:href="#DejaVuSans-73" x="125.195312"/>
      <use xlink:href="#DejaVuSans-73" x="177.294922"/>
      <use xlink:href="#DejaVuSans-65" x="229.394531"/>
      <use xlink:href="#DejaVuSans-64" x="290.917969"/>
      <use xlink:href="#DejaVuSans-20" x="354.394531"/>
      <use xlink:href="#DejaVuSans-65" x="386.181641"/>
      <use xlink:href="#DejaVuSans-70" x="447.705078"/>
      <use xlink:href="#DejaVuSans-73" x="511.181641"/>
      <use xlink:href="#DejaVuSans-20" x="563.28125"/>
      <use xlink:href="#DejaVuSans-28" x="595.068359"/>
      <use xlink:href="#DejaVuSans-36" x="634.082031"/>
      <use xlink:href="#DejaVuSans-38" x="697.705078"/>
      <use xlink:href="#DejaVuSans-36" x="761.328125"/>
      <use xlink:href="#DejaVuSans-29" x="824.951172"/>
     </g>
    </g>
    <g id="patch_51">
     <path d="M 63.441178 75.959939 
L 87.441178 75.959939 
L 87.441178 67.559939 
L 63.441178 67.559939 
z
" style="fill: #999999"/>
    </g>
    <g id="text_35">
     <!-- BLAST l&lt;50 e&gt;2 (21347) -->
     <g transform="translate(97.041178 75.959939) scale(0.12 -0.12)">
      <defs>
       <path id="DejaVuSans-42" d="M 1259 2228 
L 1259 519 
L 2272 519 
Q 2781 519 3026 730 
Q 3272 941 3272 1375 
Q 3272 1813 3026 2020 
Q 2781 2228 2272 2228 
L 1259 2228 
z
M 1259 4147 
L 1259 2741 
L 2194 2741 
Q 2656 2741 2882 2914 
Q 3109 3088 3109 3444 
Q 3109 3797 2882 3972 
Q 2656 4147 2194 4147 
L 1259 4147 
z
M 628 4666 
L 2241 4666 
Q 2963 4666 3353 4366 
Q 3744 4066 3744 3513 
Q 3744 3084 3544 2831 
Q 3344 2578 2956 2516 
Q 3422 2416 3680 2098 
Q 3938 1781 3938 1306 
Q 3938 681 3513 340 
Q 3088 0 2303 0 
L 628 0 
L 628 4666 
z
" transform="scale(0.015625)"/>
       <path id="DejaVuSans-4c" d="M 628 4666 
L 1259 4666 
L 1259 531 
L 3531 531 
L 3531 0 
L 628 0 
L 628 4666 
z
" transform="scale(0.015625)"/>
       <path id="DejaVuSans-41" d="M 2188 4044 
L 1331 1722 
L 3047 1722 
L 2188 4044 
z
M 1831 4666 
L 2547 4666 
L 4325 0 
L 3669 0 
L 3244 1197 
L 1141 1197 
L 716 0 
L 50 0 
L 1831 4666 
z
" transform="scale(0.015625)"/>
       <path id="DejaVuSans-53" d="M 3425 4513 
L 3425 3897 
Q 3066 4069 2747 4153 
Q 2428 4238 2131 4238 
Q 1616 4238 1336 4038 
Q 1056 3838 1056 3469 
Q 1056 3159 1242 3001 
Q 1428 2844 1947 2747 
L 2328 2669 
Q 3034 2534 3370 2195 
Q 3706 1856 3706 1288 
Q 3706 609 3251 259 
Q 2797 -91 1919 -91 
Q 1588 -91 1214 -16 
Q 841 59 441 206 
L 441 856 
Q 825 641 1194 531 
Q 1563 422 1919 422 
Q 2459 422 2753 634 
Q 3047 847 3047 1241 
Q 3047 1584 2836 1778 
Q 2625 1972 2144 2069 
L 1759 2144 
Q 1053 2284 737 2584 
Q 422 2884 422 3419 
Q 422 4038 858 4394 
Q 1294 4750 2059 4750 
Q 2388 4750 2728 4690 
Q 3069 4631 3425 4513 
z
" transform="scale(0.015625)"/>
       <path id="DejaVuSans-54" d="M -19 4666 
L 3928 4666 
L 3928 4134 
L 2272 4134 
L 2272 0 
L 1638 0 
L 1638 4134 
L -19 4134 
L -19 4666 
z
" transform="scale(0.015625)"/>
       <path id="DejaVuSans-3c" d="M 4684 3150 
L 1459 2003 
L 4684 863 
L 4684 294 
L 678 1747 
L 678 2266 
L 4684 3719 
L 4684 3150 
z
" transform="scale(0.015625)"/>
       <path id="DejaVuSans-3e" d="M 678 3150 
L 678 3719 
L 4684 2266 
L 4684 1747 
L 678 294 
L 678 863 
L 3897 2003 
L 678 3150 
z
" transform="scale(0.015625)"/>
      </defs>
      <use xlink:href="#DejaVuSans-42"/>
      <use xlink:href="#DejaVuSans-4c" x="68.603516"/>
      <use xlink:href="#DejaVuSans-41" x="126.566406"/>
      <use xlink:href="#DejaVuSans-53" x="194.974609"/>
      <use xlink:href="#DejaVuSans-54" x="258.451172"/>
      <use xlink:href="#DejaVuSans-20" x="319.535156"/>
      <use xlink:href="#DejaVuSans-6c" x="351.322266"/>
      <use xlink:href="#DejaVuSans-3c" x="379.105469"/>
      <use xlink:href="#DejaVuSans-35" x="462.894531"/>
      <use xlink:href="#DejaVuSans-30" x="526.517578"/>
      <use xlink:href="#DejaVuSans-20" x="590.140625"/>
      <use xlink:href="#DejaVuSans-65" x="621.927734"/>
      <use xlink:href="#DejaVuSans-3e" x="683.451172"/>
      <use xlink:href="#DejaVuSans-32" x="767.240234"/>
      <use xlink:href="#DejaVuSans-20" x="830.863281"/>
      <use xlink:href="#DejaVuSans-28" x="862.650391"/>
      <use xlink:href="#DejaVuSans-32" x="901.664062"/>
      <use xlink:href="#DejaVuSans-31" x="965.287109"/>
      <use xlink:href="#DejaVuSans-33" x="1028.910156"/>
      <use xlink:href="#DejaVuSans-34" x="1092.533203"/>
      <use xlink:href="#DejaVuSans-37" x="1156.15625"/>
      <use xlink:href="#DejaVuSans-29" x="1219.779297"/>
     </g>
    </g>
   </g>
  </g>
  <g id="axes_2">
   <g id="patch_52">
    <path d="M 52.641178 540.707885 
L 500.99976 540.707885 
L 500.99976 316.653136 
L 52.641178 316.653136 
z
" style="fill: #ffffff"/>
   </g>
   <g id="patch_53">
    <path d="M 73.021113 540.707885 
L 79.531644 540.707885 
L 79.531644 536.824269 
L 73.021113 536.824269 
z
" clip-path="url(#p78e3982ef7)" style="fill: #e41a1c"/>
   </g>
   <g id="patch_54">
    <path d="M 92.749996 540.707885 
L 99.260527 540.707885 
L 99.260527 540.558515 
L 92.749996 540.558515 
z
" clip-path="url(#p78e3982ef7)" style="fill: #e41a1c"/>
   </g>
   <g id="patch_55">
    <path d="M 112.478878 540.707885 
L 118.989409 540.707885 
L 118.989409 537.770278 
L 112.478878 537.770278 
z
" clip-path="url(#p78e3982ef7)" style="fill: #e41a1c"/>
   </g>
   <g id="patch_56">
    <path d="M 132.20776 540.707885 
L 138.718292 540.707885 
L 138.718292 540.160196 
L 132.20776 540.160196 
z
" clip-path="url(#p78e3982ef7)" style="fill: #e41a1c"/>
   </g>
   <g id="patch_57">
    <path d="M 151.936643 540.707885 
L 158.447174 540.707885 
L 158.447174 535.92805 
L 151.936643 535.92805 
z
" clip-path="url(#p78e3982ef7)" style="fill: #e41a1c"/>
   </g>
   <g id="patch_58">
    <path d="M 171.665525 540.707885 
L 178.176057 540.707885 
L 178.176057 540.658095 
L 171.665525 540.658095 
z
" clip-path="url(#p78e3982ef7)" style="fill: #e41a1c"/>
   </g>
   <g id="patch_59">
    <path d="M 191.394408 540.707885 
L 197.904939 540.707885 
L 197.904939 540.359355 
L 191.394408 540.359355 
z
" clip-path="url(#p78e3982ef7)" style="fill: #e41a1c"/>
   </g>
   <g id="patch_60">
    <path d="M 211.12329 540.707885 
L 217.633821 540.707885 
L 217.633821 540.458935 
L 211.12329 540.458935 
z
" clip-path="url(#p78e3982ef7)" style="fill: #e41a1c"/>
   </g>
   <g id="patch_61">
    <path d="M 230.852173 540.707885 
L 237.362704 540.707885 
L 237.362704 540.409145 
L 230.852173 540.409145 
z
" clip-path="url(#p78e3982ef7)" style="fill: #e41a1c"/>
   </g>
   <g id="patch_62">
    <path d="M 250.581055 540.707885 
L 257.091586 540.707885 
L 257.091586 540.558515 
L 250.581055 540.558515 
z
" clip-path="url(#p78e3982ef7)" style="fill: #e41a1c"/>
   </g>
   <g id="patch_63">
    <path d="M 270.309938 540.707885 
L 276.820469 540.707885 
L 276.820469 540.707885 
L 270.309938 540.707885 
z
" clip-path="url(#p78e3982ef7)" style="fill: #e41a1c"/>
   </g>
   <g id="patch_64">
    <path d="M 290.03882 540.707885 
L 296.549351 540.707885 
L 296.549351 540.060616 
L 290.03882 540.060616 
z
" clip-path="url(#p78e3982ef7)" style="fill: #e41a1c"/>
   </g>
   <g id="patch_65">
    <path d="M 309.767702 540.707885 
L 316.278234 540.707885 
L 316.278234 539.313767 
L 309.767702 539.313767 
z
" clip-path="url(#p78e3982ef7)" style="fill: #e41a1c"/>
   </g>
   <g id="patch_66">
    <path d="M 329.496585 540.707885 
L 336.007116 540.707885 
L 336.007116 540.458935 
L 329.496585 540.458935 
z
" clip-path="url(#p78e3982ef7)" style="fill: #e41a1c"/>
   </g>
   <g id="patch_67">
    <path d="M 349.225467 540.707885 
L 355.735999 540.707885 
L 355.735999 540.658095 
L 349.225467 540.658095 
z
" clip-path="url(#p78e3982ef7)" style="fill: #e41a1c"/>
   </g>
   <g id="patch_68">
    <path d="M 368.95435 540.707885 
L 375.464881 540.707885 
L 375.464881 540.458935 
L 368.95435 540.458935 
z
" clip-path="url(#p78e3982ef7)" style="fill: #e41a1c"/>
   </g>
   <g id="patch_69">
    <path d="M 388.683232 540.707885 
L 395.193763 540.707885 
L 395.193763 540.209986 
L 388.683232 540.209986 
z
" clip-path="url(#p78e3982ef7)" style="fill: #e41a1c"/>
   </g>
   <g id="patch_70">
    <path d="M 408.412115 540.707885 
L 414.922646 540.707885 
L 414.922646 538.467338 
L 408.412115 538.467338 
z
" clip-path="url(#p78e3982ef7)" style="fill: #e41a1c"/>
   </g>
   <g id="patch_71">
    <path d="M 428.140997 540.707885 
L 434.651528 540.707885 
L 434.651528 540.409145 
L 428.140997 540.409145 
z
" clip-path="url(#p78e3982ef7)" style="fill: #e41a1c"/>
   </g>
   <g id="patch_72">
    <path d="M 447.86988 540.707885 
L 454.380411 540.707885 
L 454.380411 540.458935 
L 447.86988 540.458935 
z
" clip-path="url(#p78e3982ef7)" style="fill: #e41a1c"/>
   </g>
   <g id="patch_73">
    <path d="M 467.598762 540.707885 
L 474.109293 540.707885 
L 474.109293 540.707885 
L 467.598762 540.707885 
z
" clip-path="url(#p78e3982ef7)" style="fill: #e41a1c"/>
   </g>
   <g id="patch_74">
    <path d="M 79.531644 540.707885 
L 86.042175 540.707885 
L 86.042175 347.423322 
L 79.531644 347.423322 
z
" clip-path="url(#p78e3982ef7)" style="fill: #999999"/>
   </g>
   <g id="patch_75">
    <path d="M 99.260527 540.707885 
L 105.771058 540.707885 
L 105.771058 356.186352 
L 99.260527 356.186352 
z
" clip-path="url(#p78e3982ef7)" style="fill: #999999"/>
   </g>
   <g id="patch_76">
    <path d="M 118.989409 540.707885 
L 125.49994 540.707885 
L 125.49994 410.507181 
L 118.989409 410.507181 
z
" clip-path="url(#p78e3982ef7)" style="fill: #999999"/>
   </g>
   <g id="patch_77">
    <path d="M 138.718292 540.707885 
L 145.228823 540.707885 
L 145.228823 428.033241 
L 138.718292 428.033241 
z
" clip-path="url(#p78e3982ef7)" style="fill: #999999"/>
   </g>
   <g id="patch_78">
    <path d="M 158.447174 540.707885 
L 164.957705 540.707885 
L 164.957705 445.957621 
L 158.447174 445.957621 
z
" clip-path="url(#p78e3982ef7)" style="fill: #999999"/>
   </g>
   <g id="patch_79">
    <path d="M 178.176057 540.707885 
L 184.686588 540.707885 
L 184.686588 418.921682 
L 178.176057 418.921682 
z
" clip-path="url(#p78e3982ef7)" style="fill: #999999"/>
   </g>
   <g id="patch_80">
    <path d="M 197.904939 540.707885 
L 204.41547 540.707885 
L 204.41547 409.511382 
L 197.904939 409.511382 
z
" clip-path="url(#p78e3982ef7)" style="fill: #999999"/>
   </g>
   <g id="patch_81">
    <path d="M 217.633821 540.707885 
L 224.144353 540.707885 
L 224.144353 446.206571 
L 217.633821 446.206571 
z
" clip-path="url(#p78e3982ef7)" style="fill: #999999"/>
   </g>
   <g id="patch_82">
    <path d="M 237.362704 540.707885 
L 243.873235 540.707885 
L 243.873235 452.131574 
L 237.362704 452.131574 
z
" clip-path="url(#p78e3982ef7)" style="fill: #999999"/>
   </g>
   <g id="patch_83">
    <path d="M 257.091586 540.707885 
L 263.602118 540.707885 
L 263.602118 429.975049 
L 257.091586 429.975049 
z
" clip-path="url(#p78e3982ef7)" style="fill: #999999"/>
   </g>
   <g id="patch_84">
    <path d="M 276.820469 540.707885 
L 283.331 540.707885 
L 283.331 467.666037 
L 276.820469 467.666037 
z
" clip-path="url(#p78e3982ef7)" style="fill: #999999"/>
   </g>
   <g id="patch_85">
    <path d="M 296.549351 540.707885 
L 303.059882 540.707885 
L 303.059882 332.635708 
L 296.549351 332.635708 
z
" clip-path="url(#p78e3982ef7)" style="fill: #999999"/>
   </g>
   <g id="patch_86">
    <path d="M 316.278234 540.707885 
L 322.788765 540.707885 
L 322.788765 377.795188 
L 316.278234 377.795188 
z
" clip-path="url(#p78e3982ef7)" style="fill: #999999"/>
   </g>
   <g id="patch_87">
    <path d="M 336.007116 540.707885 
L 342.517647 540.707885 
L 342.517647 371.322495 
L 336.007116 371.322495 
z
" clip-path="url(#p78e3982ef7)" style="fill: #999999"/>
   </g>
   <g id="patch_88">
    <path d="M 355.735999 540.707885 
L 362.24653 540.707885 
L 362.24653 398.159275 
L 355.735999 398.159275 
z
" clip-path="url(#p78e3982ef7)" style="fill: #999999"/>
   </g>
   <g id="patch_89">
    <path d="M 375.464881 540.707885 
L 381.975412 540.707885 
L 381.975412 406.275036 
L 375.464881 406.275036 
z
" clip-path="url(#p78e3982ef7)" style="fill: #999999"/>
   </g>
   <g id="patch_90">
    <path d="M 395.193763 540.707885 
L 401.704295 540.707885 
L 401.704295 372.766403 
L 395.193763 372.766403 
z
" clip-path="url(#p78e3982ef7)" style="fill: #999999"/>
   </g>
   <g id="patch_91">
    <path d="M 414.922646 540.707885 
L 421.433177 540.707885 
L 421.433177 381.330274 
L 414.922646 381.330274 
z
" clip-path="url(#p78e3982ef7)" style="fill: #999999"/>
   </g>
   <g id="patch_92">
    <path d="M 434.651528 540.707885 
L 441.16206 540.707885 
L 441.16206 377.695608 
L 434.651528 377.695608 
z
" clip-path="url(#p78e3982ef7)" style="fill: #999999"/>
   </g>
   <g id="patch_93">
    <path d="M 454.380411 540.707885 
L 460.890942 540.707885 
L 460.890942 407.021885 
L 454.380411 407.021885 
z
" clip-path="url(#p78e3982ef7)" style="fill: #999999"/>
   </g>
   <g id="patch_94">
    <path d="M 474.109293 540.707885 
L 480.619824 540.707885 
L 480.619824 489.822562 
L 474.109293 489.822562 
z
" clip-path="url(#p78e3982ef7)" style="fill: #999999"/>
   </g>
   <g id="matplotlib.axis_3">
    <g id="xtick_22">
     <g id="line2d_31">
      <g>
       <use xlink:href="#m4b95a0a5a4" x="76.276379" y="540.707885" style="stroke: #000000; stroke-width: 0.8"/>
      </g>
     </g>
     <g id="text_36">
      <!-- 1 -->
      <g transform="translate(72.777004 556.066166) scale(0.11 -0.11)">
       <use xlink:href="#DejaVuSans-31"/>
      </g>
     </g>
    </g>
    <g id="xtick_23">
     <g id="line2d_32">
      <g>
       <use xlink:href="#m4b95a0a5a4" x="96.005261" y="540.707885" style="stroke: #000000; stroke-width: 0.8"/>
      </g>
     </g>
     <g id="text_37">
      <!-- 2 -->
      <g transform="translate(92.505886 556.066166) scale(0.11 -0.11)">
       <use xlink:href="#DejaVuSans-32"/>
      </g>
     </g>
    </g>
    <g id="xtick_24">
     <g id="line2d_33">
      <g>
       <use xlink:href="#m4b95a0a5a4" x="115.734144" y="540.707885" style="stroke: #000000; stroke-width: 0.8"/>
      </g>
     </g>
     <g id="text_38">
      <!-- 3 -->
      <g transform="translate(112.234769 556.066166) scale(0.11 -0.11)">
       <use xlink:href="#DejaVuSans-33"/>
      </g>
     </g>
    </g>
    <g id="xtick_25">
     <g id="line2d_34">
      <g>
       <use xlink:href="#m4b95a0a5a4" x="135.463026" y="540.707885" style="stroke: #000000; stroke-width: 0.8"/>
      </g>
     </g>
     <g id="text_39">
      <!-- 4 -->
      <g transform="translate(131.963651 556.066166) scale(0.11 -0.11)">
       <use xlink:href="#DejaVuSans-34"/>
      </g>
     </g>
    </g>
    <g id="xtick_26">
     <g id="line2d_35">
      <g>
       <use xlink:href="#m4b95a0a5a4" x="155.191908" y="540.707885" style="stroke: #000000; stroke-width: 0.8"/>
      </g>
     </g>
     <g id="text_40">
      <!-- 5 -->
      <g transform="translate(151.692533 556.066166) scale(0.11 -0.11)">
       <use xlink:href="#DejaVuSans-35"/>
      </g>
     </g>
    </g>
    <g id="xtick_27">
     <g id="line2d_36">
      <g>
       <use xlink:href="#m4b95a0a5a4" x="174.920791" y="540.707885" style="stroke: #000000; stroke-width: 0.8"/>
      </g>
     </g>
     <g id="text_41">
      <!-- 6 -->
      <g transform="translate(171.421416 556.066166) scale(0.11 -0.11)">
       <use xlink:href="#DejaVuSans-36"/>
      </g>
     </g>
    </g>
    <g id="xtick_28">
     <g id="line2d_37">
      <g>
       <use xlink:href="#m4b95a0a5a4" x="194.649673" y="540.707885" style="stroke: #000000; stroke-width: 0.8"/>
      </g>
     </g>
     <g id="text_42">
      <!-- 7 -->
      <g transform="translate(191.150298 556.066166) scale(0.11 -0.11)">
       <use xlink:href="#DejaVuSans-37"/>
      </g>
     </g>
    </g>
    <g id="xtick_29">
     <g id="line2d_38">
      <g>
       <use xlink:href="#m4b95a0a5a4" x="214.378556" y="540.707885" style="stroke: #000000; stroke-width: 0.8"/>
      </g>
     </g>
     <g id="text_43">
      <!-- 8 -->
      <g transform="translate(210.879181 556.066166) scale(0.11 -0.11)">
       <use xlink:href="#DejaVuSans-38"/>
      </g>
     </g>
    </g>
    <g id="xtick_30">
     <g id="line2d_39">
      <g>
       <use xlink:href="#m4b95a0a5a4" x="234.107438" y="540.707885" style="stroke: #000000; stroke-width: 0.8"/>
      </g>
     </g>
     <g id="text_44">
      <!-- 9 -->
      <g transform="translate(230.608063 556.066166) scale(0.11 -0.11)">
       <use xlink:href="#DejaVuSans-39"/>
      </g>
     </g>
    </g>
    <g id="xtick_31">
     <g id="line2d_40">
      <g>
       <use xlink:href="#m4b95a0a5a4" x="253.836321" y="540.707885" style="stroke: #000000; stroke-width: 0.8"/>
      </g>
     </g>
     <g id="text_45">
      <!-- 10 -->
      <g transform="translate(246.837571 556.066166) scale(0.11 -0.11)">
       <use xlink:href="#DejaVuSans-31"/>
       <use xlink:href="#DejaVuSans-30" x="63.623047"/>
      </g>
     </g>
    </g>
    <g id="xtick_32">
     <g id="line2d_41">
      <g>
       <use xlink:href="#m4b95a0a5a4" x="273.565203" y="540.707885" style="stroke: #000000; stroke-width: 0.8"/>
      </g>
     </g>
     <g id="text_46">
      <!-- 11 -->
      <g transform="translate(266.566453 556.066166) scale(0.11 -0.11)">
       <use xlink:href="#DejaVuSans-31"/>
       <use xlink:href="#DejaVuSans-31" x="63.623047"/>
      </g>
     </g>
    </g>
    <g id="xtick_33">
     <g id="line2d_42">
      <g>
       <use xlink:href="#m4b95a0a5a4" x="293.294086" y="540.707885" style="stroke: #000000; stroke-width: 0.8"/>
      </g>
     </g>
     <g id="text_47">
      <!-- 12 -->
      <g transform="translate(286.295336 556.066166) scale(0.11 -0.11)">
       <use xlink:href="#DejaVuSans-31"/>
       <use xlink:href="#DejaVuSans-32" x="63.623047"/>
      </g>
     </g>
    </g>
    <g id="xtick_34">
     <g id="line2d_43">
      <g>
       <use xlink:href="#m4b95a0a5a4" x="313.022968" y="540.707885" style="stroke: #000000; stroke-width: 0.8"/>
      </g>
     </g>
     <g id="text_48">
      <!-- 13 -->
      <g transform="translate(306.024218 556.066166) scale(0.11 -0.11)">
       <use xlink:href="#DejaVuSans-31"/>
       <use xlink:href="#DejaVuSans-33" x="63.623047"/>
      </g>
     </g>
    </g>
    <g id="xtick_35">
     <g id="line2d_44">
      <g>
       <use xlink:href="#m4b95a0a5a4" x="332.75185" y="540.707885" style="stroke: #000000; stroke-width: 0.8"/>
      </g>
     </g>
     <g id="text_49">
      <!-- 14 -->
      <g transform="translate(325.7531 556.066166) scale(0.11 -0.11)">
       <use xlink:href="#DejaVuSans-31"/>
       <use xlink:href="#DejaVuSans-34" x="63.623047"/>
      </g>
     </g>
    </g>
    <g id="xtick_36">
     <g id="line2d_45">
      <g>
       <use xlink:href="#m4b95a0a5a4" x="352.480733" y="540.707885" style="stroke: #000000; stroke-width: 0.8"/>
      </g>
     </g>
     <g id="text_50">
      <!-- 15 -->
      <g transform="translate(345.481983 556.066166) scale(0.11 -0.11)">
       <use xlink:href="#DejaVuSans-31"/>
       <use xlink:href="#DejaVuSans-35" x="63.623047"/>
      </g>
     </g>
    </g>
    <g id="xtick_37">
     <g id="line2d_46">
      <g>
       <use xlink:href="#m4b95a0a5a4" x="372.209615" y="540.707885" style="stroke: #000000; stroke-width: 0.8"/>
      </g>
     </g>
     <g id="text_51">
      <!-- 16 -->
      <g transform="translate(365.210865 556.066166) scale(0.11 -0.11)">
       <use xlink:href="#DejaVuSans-31"/>
       <use xlink:href="#DejaVuSans-36" x="63.623047"/>
      </g>
     </g>
    </g>
    <g id="xtick_38">
     <g id="line2d_47">
      <g>
       <use xlink:href="#m4b95a0a5a4" x="391.938498" y="540.707885" style="stroke: #000000; stroke-width: 0.8"/>
      </g>
     </g>
     <g id="text_52">
      <!-- 17 -->
      <g transform="translate(384.939748 556.066166) scale(0.11 -0.11)">
       <use xlink:href="#DejaVuSans-31"/>
       <use xlink:href="#DejaVuSans-37" x="63.623047"/>
      </g>
     </g>
    </g>
    <g id="xtick_39">
     <g id="line2d_48">
      <g>
       <use xlink:href="#m4b95a0a5a4" x="411.66738" y="540.707885" style="stroke: #000000; stroke-width: 0.8"/>
      </g>
     </g>
     <g id="text_53">
      <!-- 18 -->
      <g transform="translate(404.66863 556.066166) scale(0.11 -0.11)">
       <use xlink:href="#DejaVuSans-31"/>
       <use xlink:href="#DejaVuSans-38" x="63.623047"/>
      </g>
     </g>
    </g>
    <g id="xtick_40">
     <g id="line2d_49">
      <g>
       <use xlink:href="#m4b95a0a5a4" x="431.396263" y="540.707885" style="stroke: #000000; stroke-width: 0.8"/>
      </g>
     </g>
     <g id="text_54">
      <!-- 19 -->
      <g transform="translate(424.397513 556.066166) scale(0.11 -0.11)">
       <use xlink:href="#DejaVuSans-31"/>
       <use xlink:href="#DejaVuSans-39" x="63.623047"/>
      </g>
     </g>
    </g>
    <g id="xtick_41">
     <g id="line2d_50">
      <g>
       <use xlink:href="#m4b95a0a5a4" x="451.125145" y="540.707885" style="stroke: #000000; stroke-width: 0.8"/>
      </g>
     </g>
     <g id="text_55">
      <!-- X -->
      <g transform="translate(447.357645 556.066166) scale(0.11 -0.11)">
       <use xlink:href="#DejaVuSans-58"/>
      </g>
     </g>
    </g>
    <g id="xtick_42">
     <g id="line2d_51">
      <g>
       <use xlink:href="#m4b95a0a5a4" x="470.854028" y="540.707885" style="stroke: #000000; stroke-width: 0.8"/>
      </g>
     </g>
     <g id="text_56">
      <!-- Y -->
      <g transform="translate(467.494731 556.066166) scale(0.11 -0.11)">
       <use xlink:href="#DejaVuSans-59"/>
      </g>
     </g>
    </g>
    <g id="text_57">
     <!-- Mouse chr -->
     <g transform="translate(248.455938 570.712104) scale(0.11 -0.11)">
      <use xlink:href="#DejaVuSans-4d"/>
      <use xlink:href="#DejaVuSans-6f" x="86.279297"/>
      <use xlink:href="#DejaVuSans-75" x="147.460938"/>
      <use xlink:href="#DejaVuSans-73" x="210.839844"/>
      <use xlink:href="#DejaVuSans-65" x="262.939453"/>
      <use xlink:href="#DejaVuSans-20" x="324.462891"/>
      <use xlink:href="#DejaVuSans-63" x="356.25"/>
      <use xlink:href="#DejaVuSans-68" x="411.230469"/>
      <use xlink:href="#DejaVuSans-72" x="474.609375"/>
     </g>
    </g>
   </g>
   <g id="matplotlib.axis_4">
    <g id="ytick_10">
     <g id="line2d_52">
      <g>
       <use xlink:href="#m165e023fec" x="52.641178" y="540.707885" style="stroke: #000000; stroke-width: 0.8"/>
      </g>
     </g>
     <g id="text_58">
      <!-- 0 -->
      <g transform="translate(38.642428 544.887026) scale(0.11 -0.11)">
       <use xlink:href="#DejaVuSans-30"/>
      </g>
     </g>
    </g>
    <g id="ytick_11">
     <g id="line2d_53">
      <g>
       <use xlink:href="#m165e023fec" x="52.641178" y="515.812913" style="stroke: #000000; stroke-width: 0.8"/>
      </g>
     </g>
     <g id="text_59">
      <!-- 500 -->
      <g transform="translate(24.644928 519.992054) scale(0.11 -0.11)">
       <use xlink:href="#DejaVuSans-35"/>
       <use xlink:href="#DejaVuSans-30" x="63.623047"/>
       <use xlink:href="#DejaVuSans-30" x="127.246094"/>
      </g>
     </g>
    </g>
    <g id="ytick_12">
     <g id="line2d_54">
      <g>
       <use xlink:href="#m165e023fec" x="52.641178" y="490.917941" style="stroke: #000000; stroke-width: 0.8"/>
      </g>
     </g>
     <g id="text_60">
      <!-- 1000 -->
      <g transform="translate(17.646178 495.097081) scale(0.11 -0.11)">
       <use xlink:href="#DejaVuSans-31"/>
       <use xlink:href="#DejaVuSans-30" x="63.623047"/>
       <use xlink:href="#DejaVuSans-30" x="127.246094"/>
       <use xlink:href="#DejaVuSans-30" x="190.869141"/>
      </g>
     </g>
    </g>
    <g id="ytick_13">
     <g id="line2d_55">
      <g>
       <use xlink:href="#m165e023fec" x="52.641178" y="466.022969" style="stroke: #000000; stroke-width: 0.8"/>
      </g>
     </g>
     <g id="text_61">
      <!-- 1500 -->
      <g transform="translate(17.646178 470.202109) scale(0.11 -0.11)">
       <use xlink:href="#DejaVuSans-31"/>
       <use xlink:href="#DejaVuSans-35" x="63.623047"/>
       <use xlink:href="#DejaVuSans-30" x="127.246094"/>
       <use xlink:href="#DejaVuSans-30" x="190.869141"/>
      </g>
     </g>
    </g>
    <g id="ytick_14">
     <g id="line2d_56">
      <g>
       <use xlink:href="#m165e023fec" x="52.641178" y="441.127997" style="stroke: #000000; stroke-width: 0.8"/>
      </g>
     </g>
     <g id="text_62">
      <!-- 2000 -->
      <g transform="translate(17.646178 445.307137) scale(0.11 -0.11)">
       <use xlink:href="#DejaVuSans-32"/>
       <use xlink:href="#DejaVuSans-30" x="63.623047"/>
       <use xlink:href="#DejaVuSans-30" x="127.246094"/>
       <use xlink:href="#DejaVuSans-30" x="190.869141"/>
      </g>
     </g>
    </g>
    <g id="ytick_15">
     <g id="line2d_57">
      <g>
       <use xlink:href="#m165e023fec" x="52.641178" y="416.233025" style="stroke: #000000; stroke-width: 0.8"/>
      </g>
     </g>
     <g id="text_63">
      <!-- 2500 -->
      <g transform="translate(17.646178 420.412165) scale(0.11 -0.11)">
       <use xlink:href="#DejaVuSans-32"/>
       <use xlink:href="#DejaVuSans-35" x="63.623047"/>
       <use xlink:href="#DejaVuSans-30" x="127.246094"/>
       <use xlink:href="#DejaVuSans-30" x="190.869141"/>
      </g>
     </g>
    </g>
    <g id="ytick_16">
     <g id="line2d_58">
      <g>
       <use xlink:href="#m165e023fec" x="52.641178" y="391.338052" style="stroke: #000000; stroke-width: 0.8"/>
      </g>
     </g>
     <g id="text_64">
      <!-- 3000 -->
      <g transform="translate(17.646178 395.517193) scale(0.11 -0.11)">
       <use xlink:href="#DejaVuSans-33"/>
       <use xlink:href="#DejaVuSans-30" x="63.623047"/>
       <use xlink:href="#DejaVuSans-30" x="127.246094"/>
       <use xlink:href="#DejaVuSans-30" x="190.869141"/>
      </g>
     </g>
    </g>
    <g id="ytick_17">
     <g id="line2d_59">
      <g>
       <use xlink:href="#m165e023fec" x="52.641178" y="366.44308" style="stroke: #000000; stroke-width: 0.8"/>
      </g>
     </g>
     <g id="text_65">
      <!-- 3500 -->
      <g transform="translate(17.646178 370.622221) scale(0.11 -0.11)">
       <use xlink:href="#DejaVuSans-33"/>
       <use xlink:href="#DejaVuSans-35" x="63.623047"/>
       <use xlink:href="#DejaVuSans-30" x="127.246094"/>
       <use xlink:href="#DejaVuSans-30" x="190.869141"/>
      </g>
     </g>
    </g>
    <g id="ytick_18">
     <g id="line2d_60">
      <g>
       <use xlink:href="#m165e023fec" x="52.641178" y="341.548108" style="stroke: #000000; stroke-width: 0.8"/>
      </g>
     </g>
     <g id="text_66">
      <!-- 4000 -->
      <g transform="translate(17.646178 345.727249) scale(0.11 -0.11)">
       <use xlink:href="#DejaVuSans-34"/>
       <use xlink:href="#DejaVuSans-30" x="63.623047"/>
       <use xlink:href="#DejaVuSans-30" x="127.246094"/>
       <use xlink:href="#DejaVuSans-30" x="190.869141"/>
      </g>
     </g>
    </g>
    <g id="ytick_19">
     <g id="line2d_61">
      <g>
       <use xlink:href="#m165e023fec" x="52.641178" y="316.653136" style="stroke: #000000; stroke-width: 0.8"/>
      </g>
     </g>
     <g id="text_67">
      <!-- 4500 -->
      <g transform="translate(17.646178 320.832277) scale(0.11 -0.11)">
       <use xlink:href="#DejaVuSans-34"/>
       <use xlink:href="#DejaVuSans-35" x="63.623047"/>
       <use xlink:href="#DejaVuSans-30" x="127.246094"/>
       <use xlink:href="#DejaVuSans-30" x="190.869141"/>
      </g>
     </g>
    </g>
    <g id="text_68">
     <!-- Matches in fly -->
     <g transform="translate(11.358521 466.940745) rotate(-90) scale(0.11 -0.11)">
      <use xlink:href="#DejaVuSans-4d"/>
      <use xlink:href="#DejaVuSans-61" x="86.279297"/>
      <use xlink:href="#DejaVuSans-74" x="147.558594"/>
      <use xlink:href="#DejaVuSans-63" x="186.767578"/>
      <use xlink:href="#DejaVuSans-68" x="241.748047"/>
      <use xlink:href="#DejaVuSans-65" x="305.126953"/>
      <use xlink:href="#DejaVuSans-73" x="366.650391"/>
      <use xlink:href="#DejaVuSans-20" x="418.75"/>
      <use xlink:href="#DejaVuSans-69" x="450.537109"/>
      <use xlink:href="#DejaVuSans-6e" x="478.320312"/>
      <use xlink:href="#DejaVuSans-20" x="541.699219"/>
      <use xlink:href="#DejaVuSans-66" x="573.486328"/>
      <use xlink:href="#DejaVuSans-6c" x="608.691406"/>
      <use xlink:href="#DejaVuSans-79" x="636.474609"/>
     </g>
    </g>
   </g>
   <g id="patch_95">
    <path d="M 52.641178 540.707885 
L 52.641178 316.653136 
" style="fill: none; stroke: #000000; stroke-width: 0.8; stroke-linejoin: miter; stroke-linecap: square"/>
   </g>
   <g id="patch_96">
    <path d="M 500.99976 540.707885 
L 500.99976 316.653136 
" style="fill: none; stroke: #000000; stroke-width: 0.8; stroke-linejoin: miter; stroke-linecap: square"/>
   </g>
   <g id="patch_97">
    <path d="M 52.641178 540.707885 
L 500.99976 540.707885 
" style="fill: none; stroke: #000000; stroke-width: 0.8; stroke-linejoin: miter; stroke-linecap: square"/>
   </g>
   <g id="patch_98">
    <path d="M 52.641178 316.653136 
L 500.99976 316.653136 
" style="fill: none; stroke: #000000; stroke-width: 0.8; stroke-linejoin: miter; stroke-linecap: square"/>
   </g>
   <g id="text_69">
    <!-- Sensitive search (word size=24) -->
    <g transform="translate(172.02625 310.653136) scale(0.13 -0.13)">
     <defs>
      <path id="DejaVuSans-76" d="M 191 3500 
L 800 3500 
L 1894 563 
L 2988 3500 
L 3597 3500 
L 2284 0 
L 1503 0 
L 191 3500 
z
" transform="scale(0.015625)"/>
     </defs>
     <use xlink:href="#DejaVuSans-53"/>
     <use xlink:href="#DejaVuSans-65" x="63.476562"/>
     <use xlink:href="#DejaVuSans-6e" x="125"/>
     <use xlink:href="#DejaVuSans-73" x="188.378906"/>
     <use xlink:href="#DejaVuSans-69" x="240.478516"/>
     <use xlink:href="#DejaVuSans-74" x="268.261719"/>
     <use xlink:href="#DejaVuSans-69" x="307.470703"/>
     <use xlink:href="#DejaVuSans-76" x="335.253906"/>
     <use xlink:href="#DejaVuSans-65" x="394.433594"/>
     <use xlink:href="#DejaVuSans-20" x="455.957031"/>
     <use xlink:href="#DejaVuSans-73" x="487.744141"/>
     <use xlink:href="#DejaVuSans-65" x="539.84375"/>
     <use xlink:href="#DejaVuSans-61" x="601.367188"/>
     <use xlink:href="#DejaVuSans-72" x="662.646484"/>
     <use xlink:href="#DejaVuSans-63" x="701.509766"/>
     <use xlink:href="#DejaVuSans-68" x="756.490234"/>
     <use xlink:href="#DejaVuSans-20" x="819.869141"/>
     <use xlink:href="#DejaVuSans-28" x="851.65625"/>
     <use xlink:href="#DejaVuSans-77" x="890.669922"/>
     <use xlink:href="#DejaVuSans-6f" x="972.457031"/>
     <use xlink:href="#DejaVuSans-72" x="1033.638672"/>
     <use xlink:href="#DejaVuSans-64" x="1073.001953"/>
     <use xlink:href="#DejaVuSans-20" x="1136.478516"/>
     <use xlink:href="#DejaVuSans-73" x="1168.265625"/>
     <use xlink:href="#DejaVuSans-69" x="1220.365234"/>
     <use xlink:href="#DejaVuSans-7a" x="1248.148438"/>
     <use xlink:href="#DejaVuSans-65" x="1300.638672"/>
     <use xlink:href="#DejaVuSans-3d" x="1362.162109"/>
     <use xlink:href="#DejaVuSans-32" x="1445.951172"/>
     <use xlink:href="#DejaVuSans-34" x="1509.574219"/>
     <use xlink:href="#DejaVuSans-29" x="1573.197266"/>
    </g>
   </g>
   <g id="legend_2">
    <g id="patch_99">
     <path d="M 61.041178 361.480636 
L 250.500552 361.480636 
Q 252.900553 361.480636 252.900553 359.080636 
L 252.900553 325.053136 
Q 252.900553 322.653136 250.500552 322.653136 
L 61.041178 322.653136 
Q 58.641178 322.653136 58.641178 325.053136 
L 58.641178 359.080636 
Q 58.641178 361.480636 61.041178 361.480636 
z
" style="fill: #ffffff; opacity: 0.8; stroke: #cccccc; stroke-linejoin: miter"/>
    </g>
    <g id="patch_100">
     <path d="M 63.441178 336.571261 
L 87.441178 336.571261 
L 87.441178 328.171261 
L 63.441178 328.171261 
z
" style="fill: #e41a1c"/>
    </g>
    <g id="text_70">
     <!-- missed eps (387) -->
     <g transform="translate(97.041178 336.571261) scale(0.12 -0.12)">
      <use xlink:href="#DejaVuSans-6d"/>
      <use xlink:href="#DejaVuSans-69" x="97.412109"/>
      <use xlink:href="#DejaVuSans-73" x="125.195312"/>
      <use xlink:href="#DejaVuSans-73" x="177.294922"/>
      <use xlink:href="#DejaVuSans-65" x="229.394531"/>
      <use xlink:href="#DejaVuSans-64" x="290.917969"/>
      <use xlink:href="#DejaVuSans-20" x="354.394531"/>
      <use xlink:href="#DejaVuSans-65" x="386.181641"/>
      <use xlink:href="#DejaVuSans-70" x="447.705078"/>
      <use xlink:href="#DejaVuSans-73" x="511.181641"/>
      <use xlink:href="#DejaVuSans-20" x="563.28125"/>
      <use xlink:href="#DejaVuSans-28" x="595.068359"/>
      <use xlink:href="#DejaVuSans-33" x="634.082031"/>
      <use xlink:href="#DejaVuSans-38" x="697.705078"/>
      <use xlink:href="#DejaVuSans-37" x="761.328125"/>
      <use xlink:href="#DejaVuSans-29" x="824.951172"/>
     </g>
    </g>
    <g id="patch_101">
     <path d="M 63.441178 354.185011 
L 87.441178 354.185011 
L 87.441178 345.785011 
L 63.441178 345.785011 
z
" style="fill: #999999"/>
    </g>
    <g id="text_71">
     <!-- BLAST l&lt;50 e&gt;2 (56789) -->
     <g transform="translate(97.041178 354.185011) scale(0.12 -0.12)">
      <use xlink:href="#DejaVuSans-42"/>
      <use xlink:href="#DejaVuSans-4c" x="68.603516"/>
      <use xlink:href="#DejaVuSans-41" x="126.566406"/>
      <use xlink:href="#DejaVuSans-53" x="194.974609"/>
      <use xlink:href="#DejaVuSans-54" x="258.451172"/>
      <use xlink:href="#DejaVuSans-20" x="319.535156"/>
      <use xlink:href="#DejaVuSans-6c" x="351.322266"/>
      <use xlink:href="#DejaVuSans-3c" x="379.105469"/>
      <use xlink:href="#DejaVuSans-35" x="462.894531"/>
      <use xlink:href="#DejaVuSans-30" x="526.517578"/>
      <use xlink:href="#DejaVuSans-20" x="590.140625"/>
      <use xlink:href="#DejaVuSans-65" x="621.927734"/>
      <use xlink:href="#DejaVuSans-3e" x="683.451172"/>
      <use xlink:href="#DejaVuSans-32" x="767.240234"/>
      <use xlink:href="#DejaVuSans-20" x="830.863281"/>
      <use xlink:href="#DejaVuSans-28" x="862.650391"/>
      <use xlink:href="#DejaVuSans-35" x="901.664062"/>
      <use xlink:href="#DejaVuSans-36" x="965.287109"/>
      <use xlink:href="#DejaVuSans-37" x="1028.910156"/>
      <use xlink:href="#DejaVuSans-38" x="1092.533203"/>
      <use xlink:href="#DejaVuSans-39" x="1156.15625"/>
      <use xlink:href="#DejaVuSans-29" x="1219.779297"/>
     </g>
    </g>
   </g>
  </g>
  <g id="text_72">
   <!-- How many BLAST alignments differ from epsilon matches? -->
   <g transform="translate(71.686563 13.638052) scale(0.14 -0.14)">
    <defs>
     <path id="DejaVuSans-48" d="M 628 4666 
L 1259 4666 
L 1259 2753 
L 3553 2753 
L 3553 4666 
L 4184 4666 
L 4184 0 
L 3553 0 
L 3553 2222 
L 1259 2222 
L 1259 0 
L 628 0 
L 628 4666 
z
" transform="scale(0.015625)"/>
     <path id="DejaVuSans-67" d="M 2906 1791 
Q 2906 2416 2648 2759 
Q 2391 3103 1925 3103 
Q 1463 3103 1205 2759 
Q 947 2416 947 1791 
Q 947 1169 1205 825 
Q 1463 481 1925 481 
Q 2391 481 2648 825 
Q 2906 1169 2906 1791 
z
M 3481 434 
Q 3481 -459 3084 -895 
Q 2688 -1331 1869 -1331 
Q 1566 -1331 1297 -1286 
Q 1028 -1241 775 -1147 
L 775 -588 
Q 1028 -725 1275 -790 
Q 1522 -856 1778 -856 
Q 2344 -856 2625 -561 
Q 2906 -266 2906 331 
L 2906 616 
Q 2728 306 2450 153 
Q 2172 0 1784 0 
Q 1141 0 747 490 
Q 353 981 353 1791 
Q 353 2603 747 3093 
Q 1141 3584 1784 3584 
Q 2172 3584 2450 3431 
Q 2728 3278 2906 2969 
L 2906 3500 
L 3481 3500 
L 3481 434 
z
" transform="scale(0.015625)"/>
     <path id="DejaVuSans-3f" d="M 1222 794 
L 1856 794 
L 1856 0 
L 1222 0 
L 1222 794 
z
M 1838 1253 
L 1241 1253 
L 1241 1734 
Q 1241 2050 1328 2253 
Q 1416 2456 1697 2725 
L 1978 3003 
Q 2156 3169 2236 3316 
Q 2316 3463 2316 3616 
Q 2316 3894 2111 4066 
Q 1906 4238 1569 4238 
Q 1322 4238 1042 4128 
Q 763 4019 459 3809 
L 459 4397 
Q 753 4575 1054 4662 
Q 1356 4750 1678 4750 
Q 2253 4750 2601 4447 
Q 2950 4144 2950 3647 
Q 2950 3409 2837 3195 
Q 2725 2981 2444 2713 
L 2169 2444 
Q 2022 2297 1961 2214 
Q 1900 2131 1875 2053 
Q 1856 1988 1847 1894 
Q 1838 1800 1838 1638 
L 1838 1253 
z
" transform="scale(0.015625)"/>
    </defs>
    <use xlink:href="#DejaVuSans-48"/>
    <use xlink:href="#DejaVuSans-6f" x="75.195312"/>
    <use xlink:href="#DejaVuSans-77" x="136.376953"/>
    <use xlink:href="#DejaVuSans-20" x="218.164062"/>
    <use xlink:href="#DejaVuSans-6d" x="249.951172"/>
    <use xlink:href="#DejaVuSans-61" x="347.363281"/>
    <use xlink:href="#DejaVuSans-6e" x="408.642578"/>
    <use xlink:href="#DejaVuSans-79" x="472.021484"/>
    <use xlink:href="#DejaVuSans-20" x="531.201172"/>
    <use xlink:href="#DejaVuSans-42" x="562.988281"/>
    <use xlink:href="#DejaVuSans-4c" x="631.591797"/>
    <use xlink:href="#DejaVuSans-41" x="689.554688"/>
    <use xlink:href="#DejaVuSans-53" x="757.962891"/>
    <use xlink:href="#DejaVuSans-54" x="821.439453"/>
    <use xlink:href="#DejaVuSans-20" x="882.523438"/>
    <use xlink:href="#DejaVuSans-61" x="914.310547"/>
    <use xlink:href="#DejaVuSans-6c" x="975.589844"/>
    <use xlink:href="#DejaVuSans-69" x="1003.373047"/>
    <use xlink:href="#DejaVuSans-67" x="1031.15625"/>
    <use xlink:href="#DejaVuSans-6e" x="1094.632812"/>
    <use xlink:href="#DejaVuSans-6d" x="1158.011719"/>
    <use xlink:href="#DejaVuSans-65" x="1255.423828"/>
    <use xlink:href="#DejaVuSans-6e" x="1316.947266"/>
    <use xlink:href="#DejaVuSans-74" x="1380.326172"/>
    <use xlink:href="#DejaVuSans-73" x="1419.535156"/>
    <use xlink:href="#DejaVuSans-20" x="1471.634766"/>
    <use xlink:href="#DejaVuSans-64" x="1503.421875"/>
    <use xlink:href="#DejaVuSans-69" x="1566.898438"/>
    <use xlink:href="#DejaVuSans-66" x="1594.681641"/>
    <use xlink:href="#DejaVuSans-66" x="1629.886719"/>
    <use xlink:href="#DejaVuSans-65" x="1665.091797"/>
    <use xlink:href="#DejaVuSans-72" x="1726.615234"/>
    <use xlink:href="#DejaVuSans-20" x="1767.728516"/>
    <use xlink:href="#DejaVuSans-66" x="1799.515625"/>
    <use xlink:href="#DejaVuSans-72" x="1834.720703"/>
    <use xlink:href="#DejaVuSans-6f" x="1873.583984"/>
    <use xlink:href="#DejaVuSans-6d" x="1934.765625"/>
    <use xlink:href="#DejaVuSans-20" x="2032.177734"/>
    <use xlink:href="#DejaVuSans-65" x="2063.964844"/>
    <use xlink:href="#DejaVuSans-70" x="2125.488281"/>
    <use xlink:href="#DejaVuSans-73" x="2188.964844"/>
    <use xlink:href="#DejaVuSans-69" x="2241.064453"/>
    <use xlink:href="#DejaVuSans-6c" x="2268.847656"/>
    <use xlink:href="#DejaVuSans-6f" x="2296.630859"/>
    <use xlink:href="#DejaVuSans-6e" x="2357.8125"/>
    <use xlink:href="#DejaVuSans-20" x="2421.191406"/>
    <use xlink:href="#DejaVuSans-6d" x="2452.978516"/>
    <use xlink:href="#DejaVuSans-61" x="2550.390625"/>
    <use xlink:href="#DejaVuSans-74" x="2611.669922"/>
    <use xlink:href="#DejaVuSans-63" x="2650.878906"/>
    <use xlink:href="#DejaVuSans-68" x="2705.859375"/>
    <use xlink:href="#DejaVuSans-65" x="2769.238281"/>
    <use xlink:href="#DejaVuSans-73" x="2830.761719"/>
    <use xlink:href="#DejaVuSans-3f" x="2882.861328"/>
   </g>
  </g>
 </g>
 <defs>
  <clipPath id="p0298398e79">
   <rect x="52.641178" y="38.428064" width="448.358583" height="224.054749"/>
  </clipPath>
  <clipPath id="p78e3982ef7">
   <rect x="52.641178" y="316.653136" width="448.358583" height="224.054749"/>
  </clipPath>
 </defs>
</svg>
