<?xml version="1.0" encoding="utf-8" standalone="no"?>
<!DOCTYPE svg PUBLIC "-//W3C//DTD SVG 1.1//EN"
  "http://www.w3.org/Graphics/SVG/1.1/DTD/svg11.dtd">
<svg xmlns:xlink="http://www.w3.org/1999/xlink" width="504pt" height="576pt" viewBox="0 0 504 576" xmlns="http://www.w3.org/2000/svg" version="1.1">
 <metadata>
  <rdf:RDF xmlns:dc="http://purl.org/dc/elements/1.1/" xmlns:cc="http://creativecommons.org/ns#" xmlns:rdf="http://www.w3.org/1999/02/22-rdf-syntax-ns#">
   <cc:Work>
    <dc:type rdf:resource="http://purl.org/dc/dcmitype/StillImage"/>
    <dc:date>2025-05-13T10:59:19.570067</dc:date>
    <dc:format>image/svg+xml</dc:format>
    <dc:creator>
     <cc:Agent>
      <dc:title>Matplotlib v3.8.4, https://matplotlib.org/</dc:title>
     </cc:Agent>
    </dc:creator>
   </cc:Work>
  </rdf:RDF>
 </metadata>
 <defs>
  <style type="text/css">*{stroke-linejoin: round; stroke-linecap: butt}</style>
 </defs>
 <g id="figure_1">
  <g id="patch_1">
   <path d="M 0 576 
L 504 576 
L 504 0 
L 0 0 
z
" style="fill: #ffffff"/>
  </g>
  <g id="axes_1">
   <g id="patch_2">
    <path d="M 45.642428 262.482812 
L 500.99976 262.482812 
L 500.99976 38.428064 
L 45.642428 38.428064 
z
" style="fill: #ffffff"/>
   </g>
   <g id="patch_3">
    <path d="M 66.340488 262.482812 
L 72.952647 262.482812 
L 72.952647 96.308874 
L 66.340488 96.308874 
z
" clip-path="url(#p016e13b5d5)" style="fill: #e41a1c"/>
   </g>
   <g id="patch_4">
    <path d="M 86.377333 262.482812 
L 92.989492 262.482812 
L 92.989492 185.930773 
L 86.377333 185.930773 
z
" clip-path="url(#p016e13b5d5)" style="fill: #e41a1c"/>
   </g>
   <g id="patch_5">
    <path d="M 106.414177 262.482812 
L 113.026336 262.482812 
L 113.026336 133.651332 
L 106.414177 133.651332 
z
" clip-path="url(#p016e13b5d5)" style="fill: #e41a1c"/>
   </g>
   <g id="patch_6">
    <path d="M 126.451022 262.482812 
L 133.063181 262.482812 
L 133.063181 187.797896 
L 126.451022 187.797896 
z
" clip-path="url(#p016e13b5d5)" style="fill: #e41a1c"/>
   </g>
   <g id="patch_7">
    <path d="M 146.487867 262.482812 
L 153.100026 262.482812 
L 153.100026 212.070494 
L 146.487867 212.070494 
z
" clip-path="url(#p016e13b5d5)" style="fill: #e41a1c"/>
   </g>
   <g id="patch_8">
    <path d="M 166.524712 262.482812 
L 173.13687 262.482812 
L 173.13687 200.867757 
L 166.524712 200.867757 
z
" clip-path="url(#p016e13b5d5)" style="fill: #e41a1c"/>
   </g>
   <g id="patch_9">
    <path d="M 186.561556 262.482812 
L 193.173715 262.482812 
L 193.173715 184.06365 
L 186.561556 184.06365 
z
" clip-path="url(#p016e13b5d5)" style="fill: #e41a1c"/>
   </g>
   <g id="patch_10">
    <path d="M 206.598401 262.482812 
L 213.21056 262.482812 
L 213.21056 189.665019 
L 206.598401 189.665019 
z
" clip-path="url(#p016e13b5d5)" style="fill: #e41a1c"/>
   </g>
   <g id="patch_11">
    <path d="M 226.635246 262.482812 
L 233.247404 262.482812 
L 233.247404 195.266388 
L 226.635246 195.266388 
z
" clip-path="url(#p016e13b5d5)" style="fill: #e41a1c"/>
   </g>
   <g id="patch_12">
    <path d="M 246.67209 262.482812 
L 253.284249 262.482812 
L 253.284249 217.671863 
L 246.67209 217.671863 
z
" clip-path="url(#p016e13b5d5)" style="fill: #e41a1c"/>
   </g>
   <g id="patch_13">
    <path d="M 266.708935 262.482812 
L 273.321094 262.482812 
L 273.321094 251.280075 
L 266.708935 251.280075 
z
" clip-path="url(#p016e13b5d5)" style="fill: #e41a1c"/>
   </g>
   <g id="patch_14">
    <path d="M 286.74578 262.482812 
L 293.357938 262.482812 
L 293.357938 195.266388 
L 286.74578 195.266388 
z
" clip-path="url(#p016e13b5d5)" style="fill: #e41a1c"/>
   </g>
   <g id="patch_15">
    <path d="M 306.782624 262.482812 
L 313.394783 262.482812 
L 313.394783 156.056807 
L 306.782624 156.056807 
z
" clip-path="url(#p016e13b5d5)" style="fill: #e41a1c"/>
   </g>
   <g id="patch_16">
    <path d="M 326.819469 262.482812 
L 333.431628 262.482812 
L 333.431628 184.06365 
L 326.819469 184.06365 
z
" clip-path="url(#p016e13b5d5)" style="fill: #e41a1c"/>
   </g>
   <g id="patch_17">
    <path d="M 346.856314 262.482812 
L 353.468473 262.482812 
L 353.468473 156.056807 
L 346.856314 156.056807 
z
" clip-path="url(#p016e13b5d5)" style="fill: #e41a1c"/>
   </g>
   <g id="patch_18">
    <path d="M 366.893158 262.482812 
L 373.505317 262.482812 
L 373.505317 197.133511 
L 366.893158 197.133511 
z
" clip-path="url(#p016e13b5d5)" style="fill: #e41a1c"/>
   </g>
   <g id="patch_19">
    <path d="M 386.930003 262.482812 
L 393.542162 262.482812 
L 393.542162 187.797896 
L 386.930003 187.797896 
z
" clip-path="url(#p016e13b5d5)" style="fill: #e41a1c"/>
   </g>
   <g id="patch_20">
    <path d="M 406.966848 262.482812 
L 413.579007 262.482812 
L 413.579007 189.665019 
L 406.966848 189.665019 
z
" clip-path="url(#p016e13b5d5)" style="fill: #e41a1c"/>
   </g>
   <g id="patch_21">
    <path d="M 427.003693 262.482812 
L 433.615851 262.482812 
L 433.615851 184.06365 
L 427.003693 184.06365 
z
" clip-path="url(#p016e13b5d5)" style="fill: #e41a1c"/>
   </g>
   <g id="patch_22">
    <path d="M 447.040537 262.482812 
L 453.652696 262.482812 
L 453.652696 189.665019 
L 447.040537 189.665019 
z
" clip-path="url(#p016e13b5d5)" style="fill: #e41a1c"/>
   </g>
   <g id="patch_23">
    <path d="M 467.077382 262.482812 
L 473.689541 262.482812 
L 473.689541 262.482812 
L 467.077382 262.482812 
z
" clip-path="url(#p016e13b5d5)" style="fill: #e41a1c"/>
   </g>
   <g id="patch_24">
    <path d="M 72.952647 262.482812 
L 79.564806 262.482812 
L 79.564806 200.867757 
L 72.952647 200.867757 
z
" clip-path="url(#p016e13b5d5)" style="fill: #999999"/>
   </g>
   <g id="patch_25">
    <path d="M 92.989492 262.482812 
L 99.60165 262.482812 
L 99.60165 193.399265 
L 92.989492 193.399265 
z
" clip-path="url(#p016e13b5d5)" style="fill: #999999"/>
   </g>
   <g id="patch_26">
    <path d="M 113.026336 262.482812 
L 119.638495 262.482812 
L 119.638495 189.665019 
L 113.026336 189.665019 
z
" clip-path="url(#p016e13b5d5)" style="fill: #999999"/>
   </g>
   <g id="patch_27">
    <path d="M 133.063181 262.482812 
L 139.67534 262.482812 
L 139.67534 230.741723 
L 133.063181 230.741723 
z
" clip-path="url(#p016e13b5d5)" style="fill: #999999"/>
   </g>
   <g id="patch_28">
    <path d="M 153.100026 262.482812 
L 159.712184 262.482812 
L 159.712184 197.133511 
L 153.100026 197.133511 
z
" clip-path="url(#p016e13b5d5)" style="fill: #999999"/>
   </g>
   <g id="patch_29">
    <path d="M 173.13687 262.482812 
L 179.749029 262.482812 
L 179.749029 236.343092 
L 173.13687 236.343092 
z
" clip-path="url(#p016e13b5d5)" style="fill: #999999"/>
   </g>
   <g id="patch_30">
    <path d="M 193.173715 262.482812 
L 199.785874 262.482812 
L 199.785874 228.8746 
L 193.173715 228.8746 
z
" clip-path="url(#p016e13b5d5)" style="fill: #999999"/>
   </g>
   <g id="patch_31">
    <path d="M 213.21056 262.482812 
L 219.822718 262.482812 
L 219.822718 256.881444 
L 213.21056 256.881444 
z
" clip-path="url(#p016e13b5d5)" style="fill: #999999"/>
   </g>
   <g id="patch_32">
    <path d="M 233.247404 262.482812 
L 239.859563 262.482812 
L 239.859563 169.126667 
L 233.247404 169.126667 
z
" clip-path="url(#p016e13b5d5)" style="fill: #999999"/>
   </g>
   <g id="patch_33">
    <path d="M 253.284249 262.482812 
L 259.896408 262.482812 
L 259.896408 200.867757 
L 253.284249 200.867757 
z
" clip-path="url(#p016e13b5d5)" style="fill: #999999"/>
   </g>
   <g id="patch_34">
    <path d="M 273.321094 262.482812 
L 279.933252 262.482812 
L 279.933252 197.133511 
L 273.321094 197.133511 
z
" clip-path="url(#p016e13b5d5)" style="fill: #999999"/>
   </g>
   <g id="patch_35">
    <path d="M 293.357938 262.482812 
L 299.970097 262.482812 
L 299.970097 193.399265 
L 293.357938 193.399265 
z
" clip-path="url(#p016e13b5d5)" style="fill: #999999"/>
   </g>
   <g id="patch_36">
    <path d="M 313.394783 262.482812 
L 320.006942 262.482812 
L 320.006942 159.791053 
L 313.394783 159.791053 
z
" clip-path="url(#p016e13b5d5)" style="fill: #999999"/>
   </g>
   <g id="patch_37">
    <path d="M 333.431628 262.482812 
L 340.043787 262.482812 
L 340.043787 221.406109 
L 333.431628 221.406109 
z
" clip-path="url(#p016e13b5d5)" style="fill: #999999"/>
   </g>
   <g id="patch_38">
    <path d="M 353.468473 262.482812 
L 360.080631 262.482812 
L 360.080631 109.378734 
L 353.468473 109.378734 
z
" clip-path="url(#p016e13b5d5)" style="fill: #999999"/>
   </g>
   <g id="patch_39">
    <path d="M 373.505317 262.482812 
L 380.117476 262.482812 
L 380.117476 169.126667 
L 373.505317 169.126667 
z
" clip-path="url(#p016e13b5d5)" style="fill: #999999"/>
   </g>
   <g id="patch_40">
    <path d="M 393.542162 262.482812 
L 400.154321 262.482812 
L 400.154321 212.070494 
L 393.542162 212.070494 
z
" clip-path="url(#p016e13b5d5)" style="fill: #999999"/>
   </g>
   <g id="patch_41">
    <path d="M 413.579007 262.482812 
L 420.191165 262.482812 
L 420.191165 184.06365 
L 413.579007 184.06365 
z
" clip-path="url(#p016e13b5d5)" style="fill: #999999"/>
   </g>
   <g id="patch_42">
    <path d="M 433.615851 262.482812 
L 440.22801 262.482812 
L 440.22801 200.867757 
L 433.615851 200.867757 
z
" clip-path="url(#p016e13b5d5)" style="fill: #999999"/>
   </g>
   <g id="patch_43">
    <path d="M 453.652696 262.482812 
L 460.264855 262.482812 
L 460.264855 64.567784 
L 453.652696 64.567784 
z
" clip-path="url(#p016e13b5d5)" style="fill: #999999"/>
   </g>
   <g id="patch_44">
    <path d="M 473.689541 262.482812 
L 480.301699 262.482812 
L 480.301699 260.61569 
L 473.689541 260.61569 
z
" clip-path="url(#p016e13b5d5)" style="fill: #999999"/>
   </g>
   <g id="matplotlib.axis_1">
    <g id="xtick_1">
     <g id="line2d_1">
      <defs>
       <path id="m9e69fdcca2" d="M 0 0 
L 0 3.5 
" style="stroke: #000000; stroke-width: 0.8"/>
      </defs>
      <g>
       <use xlink:href="#m9e69fdcca2" x="69.646567" y="262.482812" style="stroke: #000000; stroke-width: 0.8"/>
      </g>
     </g>
     <g id="text_1">
      <!-- 1 -->
      <g transform="translate(66.147192 277.841094) scale(0.11 -0.11)">
       <defs>
        <path id="DejaVuSans-31" d="M 794 531 
L 1825 531 
L 1825 4091 
L 703 3866 
L 703 4441 
L 1819 4666 
L 2450 4666 
L 2450 531 
L 3481 531 
L 3481 0 
L 794 0 
L 794 531 
z
" transform="scale(0.015625)"/>
       </defs>
       <use xlink:href="#DejaVuSans-31"/>
      </g>
     </g>
    </g>
    <g id="xtick_2">
     <g id="line2d_2">
      <g>
       <use xlink:href="#m9e69fdcca2" x="89.683412" y="262.482812" style="stroke: #000000; stroke-width: 0.8"/>
      </g>
     </g>
     <g id="text_2">
      <!-- 2 -->
      <g transform="translate(86.184037 277.841094) scale(0.11 -0.11)">
       <defs>
        <path id="DejaVuSans-32" d="M 1228 531 
L 3431 531 
L 3431 0 
L 469 0 
L 469 531 
Q 828 903 1448 1529 
Q 2069 2156 2228 2338 
Q 2531 2678 2651 2914 
Q 2772 3150 2772 3378 
Q 2772 3750 2511 3984 
Q 2250 4219 1831 4219 
Q 1534 4219 1204 4116 
Q 875 4013 500 3803 
L 500 4441 
Q 881 4594 1212 4672 
Q 1544 4750 1819 4750 
Q 2544 4750 2975 4387 
Q 3406 4025 3406 3419 
Q 3406 3131 3298 2873 
Q 3191 2616 2906 2266 
Q 2828 2175 2409 1742 
Q 1991 1309 1228 531 
z
" transform="scale(0.015625)"/>
       </defs>
       <use xlink:href="#DejaVuSans-32"/>
      </g>
     </g>
    </g>
    <g id="xtick_3">
     <g id="line2d_3">
      <g>
       <use xlink:href="#m9e69fdcca2" x="109.720257" y="262.482812" style="stroke: #000000; stroke-width: 0.8"/>
      </g>
     </g>
     <g id="text_3">
      <!-- 3 -->
      <g transform="translate(106.220882 277.841094) scale(0.11 -0.11)">
       <defs>
        <path id="DejaVuSans-33" d="M 2597 2516 
Q 3050 2419 3304 2112 
Q 3559 1806 3559 1356 
Q 3559 666 3084 287 
Q 2609 -91 1734 -91 
Q 1441 -91 1130 -33 
Q 819 25 488 141 
L 488 750 
Q 750 597 1062 519 
Q 1375 441 1716 441 
Q 2309 441 2620 675 
Q 2931 909 2931 1356 
Q 2931 1769 2642 2001 
Q 2353 2234 1838 2234 
L 1294 2234 
L 1294 2753 
L 1863 2753 
Q 2328 2753 2575 2939 
Q 2822 3125 2822 3475 
Q 2822 3834 2567 4026 
Q 2313 4219 1838 4219 
Q 1578 4219 1281 4162 
Q 984 4106 628 3988 
L 628 4550 
Q 988 4650 1302 4700 
Q 1616 4750 1894 4750 
Q 2613 4750 3031 4423 
Q 3450 4097 3450 3541 
Q 3450 3153 3228 2886 
Q 3006 2619 2597 2516 
z
" transform="scale(0.015625)"/>
       </defs>
       <use xlink:href="#DejaVuSans-33"/>
      </g>
     </g>
    </g>
    <g id="xtick_4">
     <g id="line2d_4">
      <g>
       <use xlink:href="#m9e69fdcca2" x="129.757102" y="262.482812" style="stroke: #000000; stroke-width: 0.8"/>
      </g>
     </g>
     <g id="text_4">
      <!-- 4 -->
      <g transform="translate(126.257727 277.841094) scale(0.11 -0.11)">
       <defs>
        <path id="DejaVuSans-34" d="M 2419 4116 
L 825 1625 
L 2419 1625 
L 2419 4116 
z
M 2253 4666 
L 3047 4666 
L 3047 1625 
L 3713 1625 
L 3713 1100 
L 3047 1100 
L 3047 0 
L 2419 0 
L 2419 1100 
L 313 1100 
L 313 1709 
L 2253 4666 
z
" transform="scale(0.015625)"/>
       </defs>
       <use xlink:href="#DejaVuSans-34"/>
      </g>
     </g>
    </g>
    <g id="xtick_5">
     <g id="line2d_5">
      <g>
       <use xlink:href="#m9e69fdcca2" x="149.793946" y="262.482812" style="stroke: #000000; stroke-width: 0.8"/>
      </g>
     </g>
     <g id="text_5">
      <!-- 5 -->
      <g transform="translate(146.294571 277.841094) scale(0.11 -0.11)">
       <defs>
        <path id="DejaVuSans-35" d="M 691 4666 
L 3169 4666 
L 3169 4134 
L 1269 4134 
L 1269 2991 
Q 1406 3038 1543 3061 
Q 1681 3084 1819 3084 
Q 2600 3084 3056 2656 
Q 3513 2228 3513 1497 
Q 3513 744 3044 326 
Q 2575 -91 1722 -91 
Q 1428 -91 1123 -41 
Q 819 9 494 109 
L 494 744 
Q 775 591 1075 516 
Q 1375 441 1709 441 
Q 2250 441 2565 725 
Q 2881 1009 2881 1497 
Q 2881 1984 2565 2268 
Q 2250 2553 1709 2553 
Q 1456 2553 1204 2497 
Q 953 2441 691 2322 
L 691 4666 
z
" transform="scale(0.015625)"/>
       </defs>
       <use xlink:href="#DejaVuSans-35"/>
      </g>
     </g>
    </g>
    <g id="xtick_6">
     <g id="line2d_6">
      <g>
       <use xlink:href="#m9e69fdcca2" x="169.830791" y="262.482812" style="stroke: #000000; stroke-width: 0.8"/>
      </g>
     </g>
     <g id="text_6">
      <!-- 6 -->
      <g transform="translate(166.331416 277.841094) scale(0.11 -0.11)">
       <defs>
        <path id="DejaVuSans-36" d="M 2113 2584 
Q 1688 2584 1439 2293 
Q 1191 2003 1191 1497 
Q 1191 994 1439 701 
Q 1688 409 2113 409 
Q 2538 409 2786 701 
Q 3034 994 3034 1497 
Q 3034 2003 2786 2293 
Q 2538 2584 2113 2584 
z
M 3366 4563 
L 3366 3988 
Q 3128 4100 2886 4159 
Q 2644 4219 2406 4219 
Q 1781 4219 1451 3797 
Q 1122 3375 1075 2522 
Q 1259 2794 1537 2939 
Q 1816 3084 2150 3084 
Q 2853 3084 3261 2657 
Q 3669 2231 3669 1497 
Q 3669 778 3244 343 
Q 2819 -91 2113 -91 
Q 1303 -91 875 529 
Q 447 1150 447 2328 
Q 447 3434 972 4092 
Q 1497 4750 2381 4750 
Q 2619 4750 2861 4703 
Q 3103 4656 3366 4563 
z
" transform="scale(0.015625)"/>
       </defs>
       <use xlink:href="#DejaVuSans-36"/>
      </g>
     </g>
    </g>
    <g id="xtick_7">
     <g id="line2d_7">
      <g>
       <use xlink:href="#m9e69fdcca2" x="189.867636" y="262.482812" style="stroke: #000000; stroke-width: 0.8"/>
      </g>
     </g>
     <g id="text_7">
      <!-- 7 -->
      <g transform="translate(186.368261 277.841094) scale(0.11 -0.11)">
       <defs>
        <path id="DejaVuSans-37" d="M 525 4666 
L 3525 4666 
L 3525 4397 
L 1831 0 
L 1172 0 
L 2766 4134 
L 525 4134 
L 525 4666 
z
" transform="scale(0.015625)"/>
       </defs>
       <use xlink:href="#DejaVuSans-37"/>
      </g>
     </g>
    </g>
    <g id="xtick_8">
     <g id="line2d_8">
      <g>
       <use xlink:href="#m9e69fdcca2" x="209.90448" y="262.482812" style="stroke: #000000; stroke-width: 0.8"/>
      </g>
     </g>
     <g id="text_8">
      <!-- 8 -->
      <g transform="translate(206.405105 277.841094) scale(0.11 -0.11)">
       <defs>
        <path id="DejaVuSans-38" d="M 2034 2216 
Q 1584 2216 1326 1975 
Q 1069 1734 1069 1313 
Q 1069 891 1326 650 
Q 1584 409 2034 409 
Q 2484 409 2743 651 
Q 3003 894 3003 1313 
Q 3003 1734 2745 1975 
Q 2488 2216 2034 2216 
z
M 1403 2484 
Q 997 2584 770 2862 
Q 544 3141 544 3541 
Q 544 4100 942 4425 
Q 1341 4750 2034 4750 
Q 2731 4750 3128 4425 
Q 3525 4100 3525 3541 
Q 3525 3141 3298 2862 
Q 3072 2584 2669 2484 
Q 3125 2378 3379 2068 
Q 3634 1759 3634 1313 
Q 3634 634 3220 271 
Q 2806 -91 2034 -91 
Q 1263 -91 848 271 
Q 434 634 434 1313 
Q 434 1759 690 2068 
Q 947 2378 1403 2484 
z
M 1172 3481 
Q 1172 3119 1398 2916 
Q 1625 2713 2034 2713 
Q 2441 2713 2670 2916 
Q 2900 3119 2900 3481 
Q 2900 3844 2670 4047 
Q 2441 4250 2034 4250 
Q 1625 4250 1398 4047 
Q 1172 3844 1172 3481 
z
" transform="scale(0.015625)"/>
       </defs>
       <use xlink:href="#DejaVuSans-38"/>
      </g>
     </g>
    </g>
    <g id="xtick_9">
     <g id="line2d_9">
      <g>
       <use xlink:href="#m9e69fdcca2" x="229.941325" y="262.482812" style="stroke: #000000; stroke-width: 0.8"/>
      </g>
     </g>
     <g id="text_9">
      <!-- 9 -->
      <g transform="translate(226.44195 277.841094) scale(0.11 -0.11)">
       <defs>
        <path id="DejaVuSans-39" d="M 703 97 
L 703 672 
Q 941 559 1184 500 
Q 1428 441 1663 441 
Q 2288 441 2617 861 
Q 2947 1281 2994 2138 
Q 2813 1869 2534 1725 
Q 2256 1581 1919 1581 
Q 1219 1581 811 2004 
Q 403 2428 403 3163 
Q 403 3881 828 4315 
Q 1253 4750 1959 4750 
Q 2769 4750 3195 4129 
Q 3622 3509 3622 2328 
Q 3622 1225 3098 567 
Q 2575 -91 1691 -91 
Q 1453 -91 1209 -44 
Q 966 3 703 97 
z
M 1959 2075 
Q 2384 2075 2632 2365 
Q 2881 2656 2881 3163 
Q 2881 3666 2632 3958 
Q 2384 4250 1959 4250 
Q 1534 4250 1286 3958 
Q 1038 3666 1038 3163 
Q 1038 2656 1286 2365 
Q 1534 2075 1959 2075 
z
" transform="scale(0.015625)"/>
       </defs>
       <use xlink:href="#DejaVuSans-39"/>
      </g>
     </g>
    </g>
    <g id="xtick_10">
     <g id="line2d_10">
      <g>
       <use xlink:href="#m9e69fdcca2" x="249.97817" y="262.482812" style="stroke: #000000; stroke-width: 0.8"/>
      </g>
     </g>
     <g id="text_10">
      <!-- 10 -->
      <g transform="translate(242.97942 277.841094) scale(0.11 -0.11)">
       <defs>
        <path id="DejaVuSans-30" d="M 2034 4250 
Q 1547 4250 1301 3770 
Q 1056 3291 1056 2328 
Q 1056 1369 1301 889 
Q 1547 409 2034 409 
Q 2525 409 2770 889 
Q 3016 1369 3016 2328 
Q 3016 3291 2770 3770 
Q 2525 4250 2034 4250 
z
M 2034 4750 
Q 2819 4750 3233 4129 
Q 3647 3509 3647 2328 
Q 3647 1150 3233 529 
Q 2819 -91 2034 -91 
Q 1250 -91 836 529 
Q 422 1150 422 2328 
Q 422 3509 836 4129 
Q 1250 4750 2034 4750 
z
" transform="scale(0.015625)"/>
       </defs>
       <use xlink:href="#DejaVuSans-31"/>
       <use xlink:href="#DejaVuSans-30" x="63.623047"/>
      </g>
     </g>
    </g>
    <g id="xtick_11">
     <g id="line2d_11">
      <g>
       <use xlink:href="#m9e69fdcca2" x="270.015014" y="262.482812" style="stroke: #000000; stroke-width: 0.8"/>
      </g>
     </g>
     <g id="text_11">
      <!-- 11 -->
      <g transform="translate(263.016264 277.841094) scale(0.11 -0.11)">
       <use xlink:href="#DejaVuSans-31"/>
       <use xlink:href="#DejaVuSans-31" x="63.623047"/>
      </g>
     </g>
    </g>
    <g id="xtick_12">
     <g id="line2d_12">
      <g>
       <use xlink:href="#m9e69fdcca2" x="290.051859" y="262.482812" style="stroke: #000000; stroke-width: 0.8"/>
      </g>
     </g>
     <g id="text_12">
      <!-- 12 -->
      <g transform="translate(283.053109 277.841094) scale(0.11 -0.11)">
       <use xlink:href="#DejaVuSans-31"/>
       <use xlink:href="#DejaVuSans-32" x="63.623047"/>
      </g>
     </g>
    </g>
    <g id="xtick_13">
     <g id="line2d_13">
      <g>
       <use xlink:href="#m9e69fdcca2" x="310.088704" y="262.482812" style="stroke: #000000; stroke-width: 0.8"/>
      </g>
     </g>
     <g id="text_13">
      <!-- 13 -->
      <g transform="translate(303.089954 277.841094) scale(0.11 -0.11)">
       <use xlink:href="#DejaVuSans-31"/>
       <use xlink:href="#DejaVuSans-33" x="63.623047"/>
      </g>
     </g>
    </g>
    <g id="xtick_14">
     <g id="line2d_14">
      <g>
       <use xlink:href="#m9e69fdcca2" x="330.125548" y="262.482812" style="stroke: #000000; stroke-width: 0.8"/>
      </g>
     </g>
     <g id="text_14">
      <!-- 14 -->
      <g transform="translate(323.126798 277.841094) scale(0.11 -0.11)">
       <use xlink:href="#DejaVuSans-31"/>
       <use xlink:href="#DejaVuSans-34" x="63.623047"/>
      </g>
     </g>
    </g>
    <g id="xtick_15">
     <g id="line2d_15">
      <g>
       <use xlink:href="#m9e69fdcca2" x="350.162393" y="262.482812" style="stroke: #000000; stroke-width: 0.8"/>
      </g>
     </g>
     <g id="text_15">
      <!-- 15 -->
      <g transform="translate(343.163643 277.841094) scale(0.11 -0.11)">
       <use xlink:href="#DejaVuSans-31"/>
       <use xlink:href="#DejaVuSans-35" x="63.623047"/>
      </g>
     </g>
    </g>
    <g id="xtick_16">
     <g id="line2d_16">
      <g>
       <use xlink:href="#m9e69fdcca2" x="370.199238" y="262.482812" style="stroke: #000000; stroke-width: 0.8"/>
      </g>
     </g>
     <g id="text_16">
      <!-- 16 -->
      <g transform="translate(363.200488 277.841094) scale(0.11 -0.11)">
       <use xlink:href="#DejaVuSans-31"/>
       <use xlink:href="#DejaVuSans-36" x="63.623047"/>
      </g>
     </g>
    </g>
    <g id="xtick_17">
     <g id="line2d_17">
      <g>
       <use xlink:href="#m9e69fdcca2" x="390.236083" y="262.482812" style="stroke: #000000; stroke-width: 0.8"/>
      </g>
     </g>
     <g id="text_17">
      <!-- 17 -->
      <g transform="translate(383.237333 277.841094) scale(0.11 -0.11)">
       <use xlink:href="#DejaVuSans-31"/>
       <use xlink:href="#DejaVuSans-37" x="63.623047"/>
      </g>
     </g>
    </g>
    <g id="xtick_18">
     <g id="line2d_18">
      <g>
       <use xlink:href="#m9e69fdcca2" x="410.272927" y="262.482812" style="stroke: #000000; stroke-width: 0.8"/>
      </g>
     </g>
     <g id="text_18">
      <!-- 18 -->
      <g transform="translate(403.274177 277.841094) scale(0.11 -0.11)">
       <use xlink:href="#DejaVuSans-31"/>
       <use xlink:href="#DejaVuSans-38" x="63.623047"/>
      </g>
     </g>
    </g>
    <g id="xtick_19">
     <g id="line2d_19">
      <g>
       <use xlink:href="#m9e69fdcca2" x="430.309772" y="262.482812" style="stroke: #000000; stroke-width: 0.8"/>
      </g>
     </g>
     <g id="text_19">
      <!-- 19 -->
      <g transform="translate(423.311022 277.841094) scale(0.11 -0.11)">
       <use xlink:href="#DejaVuSans-31"/>
       <use xlink:href="#DejaVuSans-39" x="63.623047"/>
      </g>
     </g>
    </g>
    <g id="xtick_20">
     <g id="line2d_20">
      <g>
       <use xlink:href="#m9e69fdcca2" x="450.346617" y="262.482812" style="stroke: #000000; stroke-width: 0.8"/>
      </g>
     </g>
     <g id="text_20">
      <!-- X -->
      <g transform="translate(446.579117 277.841094) scale(0.11 -0.11)">
       <defs>
        <path id="DejaVuSans-58" d="M 403 4666 
L 1081 4666 
L 2241 2931 
L 3406 4666 
L 4084 4666 
L 2584 2425 
L 4184 0 
L 3506 0 
L 2194 1984 
L 872 0 
L 191 0 
L 1856 2491 
L 403 4666 
z
" transform="scale(0.015625)"/>
       </defs>
       <use xlink:href="#DejaVuSans-58"/>
      </g>
     </g>
    </g>
    <g id="xtick_21">
     <g id="line2d_21">
      <g>
       <use xlink:href="#m9e69fdcca2" x="470.383461" y="262.482812" style="stroke: #000000; stroke-width: 0.8"/>
      </g>
     </g>
     <g id="text_21">
      <!-- Y -->
      <g transform="translate(467.024164 277.841094) scale(0.11 -0.11)">
       <defs>
        <path id="DejaVuSans-59" d="M -13 4666 
L 666 4666 
L 1959 2747 
L 3244 4666 
L 3922 4666 
L 2272 2222 
L 2272 0 
L 1638 0 
L 1638 2222 
L -13 4666 
z
" transform="scale(0.015625)"/>
       </defs>
       <use xlink:href="#DejaVuSans-59"/>
      </g>
     </g>
    </g>
    <g id="text_22">
     <!-- Mouse chr -->
     <g transform="translate(244.956563 292.487031) scale(0.11 -0.11)">
      <defs>
       <path id="DejaVuSans-4d" d="M 628 4666 
L 1569 4666 
L 2759 1491 
L 3956 4666 
L 4897 4666 
L 4897 0 
L 4281 0 
L 4281 4097 
L 3078 897 
L 2444 897 
L 1241 4097 
L 1241 0 
L 628 0 
L 628 4666 
z
" transform="scale(0.015625)"/>
       <path id="DejaVuSans-6f" d="M 1959 3097 
Q 1497 3097 1228 2736 
Q 959 2375 959 1747 
Q 959 1119 1226 758 
Q 1494 397 1959 397 
Q 2419 397 2687 759 
Q 2956 1122 2956 1747 
Q 2956 2369 2687 2733 
Q 2419 3097 1959 3097 
z
M 1959 3584 
Q 2709 3584 3137 3096 
Q 3566 2609 3566 1747 
Q 3566 888 3137 398 
Q 2709 -91 1959 -91 
Q 1206 -91 779 398 
Q 353 888 353 1747 
Q 353 2609 779 3096 
Q 1206 3584 1959 3584 
z
" transform="scale(0.015625)"/>
       <path id="DejaVuSans-75" d="M 544 1381 
L 544 3500 
L 1119 3500 
L 1119 1403 
Q 1119 906 1312 657 
Q 1506 409 1894 409 
Q 2359 409 2629 706 
Q 2900 1003 2900 1516 
L 2900 3500 
L 3475 3500 
L 3475 0 
L 2900 0 
L 2900 538 
Q 2691 219 2414 64 
Q 2138 -91 1772 -91 
Q 1169 -91 856 284 
Q 544 659 544 1381 
z
M 1991 3584 
L 1991 3584 
z
" transform="scale(0.015625)"/>
       <path id="DejaVuSans-73" d="M 2834 3397 
L 2834 2853 
Q 2591 2978 2328 3040 
Q 2066 3103 1784 3103 
Q 1356 3103 1142 2972 
Q 928 2841 928 2578 
Q 928 2378 1081 2264 
Q 1234 2150 1697 2047 
L 1894 2003 
Q 2506 1872 2764 1633 
Q 3022 1394 3022 966 
Q 3022 478 2636 193 
Q 2250 -91 1575 -91 
Q 1294 -91 989 -36 
Q 684 19 347 128 
L 347 722 
Q 666 556 975 473 
Q 1284 391 1588 391 
Q 1994 391 2212 530 
Q 2431 669 2431 922 
Q 2431 1156 2273 1281 
Q 2116 1406 1581 1522 
L 1381 1569 
Q 847 1681 609 1914 
Q 372 2147 372 2553 
Q 372 3047 722 3315 
Q 1072 3584 1716 3584 
Q 2034 3584 2315 3537 
Q 2597 3491 2834 3397 
z
" transform="scale(0.015625)"/>
       <path id="DejaVuSans-65" d="M 3597 1894 
L 3597 1613 
L 953 1613 
Q 991 1019 1311 708 
Q 1631 397 2203 397 
Q 2534 397 2845 478 
Q 3156 559 3463 722 
L 3463 178 
Q 3153 47 2828 -22 
Q 2503 -91 2169 -91 
Q 1331 -91 842 396 
Q 353 884 353 1716 
Q 353 2575 817 3079 
Q 1281 3584 2069 3584 
Q 2775 3584 3186 3129 
Q 3597 2675 3597 1894 
z
M 3022 2063 
Q 3016 2534 2758 2815 
Q 2500 3097 2075 3097 
Q 1594 3097 1305 2825 
Q 1016 2553 972 2059 
L 3022 2063 
z
" transform="scale(0.015625)"/>
       <path id="DejaVuSans-20" transform="scale(0.015625)"/>
       <path id="DejaVuSans-63" d="M 3122 3366 
L 3122 2828 
Q 2878 2963 2633 3030 
Q 2388 3097 2138 3097 
Q 1578 3097 1268 2742 
Q 959 2388 959 1747 
Q 959 1106 1268 751 
Q 1578 397 2138 397 
Q 2388 397 2633 464 
Q 2878 531 3122 666 
L 3122 134 
Q 2881 22 2623 -34 
Q 2366 -91 2075 -91 
Q 1284 -91 818 406 
Q 353 903 353 1747 
Q 353 2603 823 3093 
Q 1294 3584 2113 3584 
Q 2378 3584 2631 3529 
Q 2884 3475 3122 3366 
z
" transform="scale(0.015625)"/>
       <path id="DejaVuSans-68" d="M 3513 2113 
L 3513 0 
L 2938 0 
L 2938 2094 
Q 2938 2591 2744 2837 
Q 2550 3084 2163 3084 
Q 1697 3084 1428 2787 
Q 1159 2491 1159 1978 
L 1159 0 
L 581 0 
L 581 4863 
L 1159 4863 
L 1159 2956 
Q 1366 3272 1645 3428 
Q 1925 3584 2291 3584 
Q 2894 3584 3203 3211 
Q 3513 2838 3513 2113 
z
" transform="scale(0.015625)"/>
       <path id="DejaVuSans-72" d="M 2631 2963 
Q 2534 3019 2420 3045 
Q 2306 3072 2169 3072 
Q 1681 3072 1420 2755 
Q 1159 2438 1159 1844 
L 1159 0 
L 581 0 
L 581 3500 
L 1159 3500 
L 1159 2956 
Q 1341 3275 1631 3429 
Q 1922 3584 2338 3584 
Q 2397 3584 2469 3576 
Q 2541 3569 2628 3553 
L 2631 2963 
z
" transform="scale(0.015625)"/>
      </defs>
      <use xlink:href="#DejaVuSans-4d"/>
      <use xlink:href="#DejaVuSans-6f" x="86.279297"/>
      <use xlink:href="#DejaVuSans-75" x="147.460938"/>
      <use xlink:href="#DejaVuSans-73" x="210.839844"/>
      <use xlink:href="#DejaVuSans-65" x="262.939453"/>
      <use xlink:href="#DejaVuSans-20" x="324.462891"/>
      <use xlink:href="#DejaVuSans-63" x="356.25"/>
      <use xlink:href="#DejaVuSans-68" x="411.230469"/>
      <use xlink:href="#DejaVuSans-72" x="474.609375"/>
     </g>
    </g>
   </g>
   <g id="matplotlib.axis_2">
    <g id="ytick_1">
     <g id="line2d_22">
      <defs>
       <path id="mdb4e5c7699" d="M 0 0 
L -3.5 0 
" style="stroke: #000000; stroke-width: 0.8"/>
      </defs>
      <g>
       <use xlink:href="#mdb4e5c7699" x="45.642428" y="262.482812" style="stroke: #000000; stroke-width: 0.8"/>
      </g>
     </g>
     <g id="text_23">
      <!-- 0 -->
      <g transform="translate(31.643678 266.661953) scale(0.11 -0.11)">
       <use xlink:href="#DejaVuSans-30"/>
      </g>
     </g>
    </g>
    <g id="ytick_2">
     <g id="line2d_23">
      <g>
       <use xlink:href="#mdb4e5c7699" x="45.642428" y="225.140354" style="stroke: #000000; stroke-width: 0.8"/>
      </g>
     </g>
     <g id="text_24">
      <!-- 20 -->
      <g transform="translate(24.644928 229.319495) scale(0.11 -0.11)">
       <use xlink:href="#DejaVuSans-32"/>
       <use xlink:href="#DejaVuSans-30" x="63.623047"/>
      </g>
     </g>
    </g>
    <g id="ytick_3">
     <g id="line2d_24">
      <g>
       <use xlink:href="#mdb4e5c7699" x="45.642428" y="187.797896" style="stroke: #000000; stroke-width: 0.8"/>
      </g>
     </g>
     <g id="text_25">
      <!-- 40 -->
      <g transform="translate(24.644928 191.977037) scale(0.11 -0.11)">
       <use xlink:href="#DejaVuSans-34"/>
       <use xlink:href="#DejaVuSans-30" x="63.623047"/>
      </g>
     </g>
    </g>
    <g id="ytick_4">
     <g id="line2d_25">
      <g>
       <use xlink:href="#mdb4e5c7699" x="45.642428" y="150.455438" style="stroke: #000000; stroke-width: 0.8"/>
      </g>
     </g>
     <g id="text_26">
      <!-- 60 -->
      <g transform="translate(24.644928 154.634579) scale(0.11 -0.11)">
       <use xlink:href="#DejaVuSans-36"/>
       <use xlink:href="#DejaVuSans-30" x="63.623047"/>
      </g>
     </g>
    </g>
    <g id="ytick_5">
     <g id="line2d_26">
      <g>
       <use xlink:href="#mdb4e5c7699" x="45.642428" y="113.11298" style="stroke: #000000; stroke-width: 0.8"/>
      </g>
     </g>
     <g id="text_27">
      <!-- 80 -->
      <g transform="translate(24.644928 117.292121) scale(0.11 -0.11)">
       <use xlink:href="#DejaVuSans-38"/>
       <use xlink:href="#DejaVuSans-30" x="63.623047"/>
      </g>
     </g>
    </g>
    <g id="ytick_6">
     <g id="line2d_27">
      <g>
       <use xlink:href="#mdb4e5c7699" x="45.642428" y="75.770522" style="stroke: #000000; stroke-width: 0.8"/>
      </g>
     </g>
     <g id="text_28">
      <!-- 100 -->
      <g transform="translate(17.646178 79.949663) scale(0.11 -0.11)">
       <use xlink:href="#DejaVuSans-31"/>
       <use xlink:href="#DejaVuSans-30" x="63.623047"/>
       <use xlink:href="#DejaVuSans-30" x="127.246094"/>
      </g>
     </g>
    </g>
    <g id="ytick_7">
     <g id="line2d_28">
      <g>
       <use xlink:href="#mdb4e5c7699" x="45.642428" y="38.428064" style="stroke: #000000; stroke-width: 0.8"/>
      </g>
     </g>
     <g id="text_29">
      <!-- 120 -->
      <g transform="translate(17.646178 42.607204) scale(0.11 -0.11)">
       <use xlink:href="#DejaVuSans-31"/>
       <use xlink:href="#DejaVuSans-32" x="63.623047"/>
       <use xlink:href="#DejaVuSans-30" x="127.246094"/>
      </g>
     </g>
    </g>
    <g id="text_30">
     <!-- Matches in fly -->
     <g transform="translate(11.358521 188.715672) rotate(-90) scale(0.11 -0.11)">
      <defs>
       <path id="DejaVuSans-61" d="M 2194 1759 
Q 1497 1759 1228 1600 
Q 959 1441 959 1056 
Q 959 750 1161 570 
Q 1363 391 1709 391 
Q 2188 391 2477 730 
Q 2766 1069 2766 1631 
L 2766 1759 
L 2194 1759 
z
M 3341 1997 
L 3341 0 
L 2766 0 
L 2766 531 
Q 2569 213 2275 61 
Q 1981 -91 1556 -91 
Q 1019 -91 701 211 
Q 384 513 384 1019 
Q 384 1609 779 1909 
Q 1175 2209 1959 2209 
L 2766 2209 
L 2766 2266 
Q 2766 2663 2505 2880 
Q 2244 3097 1772 3097 
Q 1472 3097 1187 3025 
Q 903 2953 641 2809 
L 641 3341 
Q 956 3463 1253 3523 
Q 1550 3584 1831 3584 
Q 2591 3584 2966 3190 
Q 3341 2797 3341 1997 
z
" transform="scale(0.015625)"/>
       <path id="DejaVuSans-74" d="M 1172 4494 
L 1172 3500 
L 2356 3500 
L 2356 3053 
L 1172 3053 
L 1172 1153 
Q 1172 725 1289 603 
Q 1406 481 1766 481 
L 2356 481 
L 2356 0 
L 1766 0 
Q 1100 0 847 248 
Q 594 497 594 1153 
L 594 3053 
L 172 3053 
L 172 3500 
L 594 3500 
L 594 4494 
L 1172 4494 
z
" transform="scale(0.015625)"/>
       <path id="DejaVuSans-69" d="M 603 3500 
L 1178 3500 
L 1178 0 
L 603 0 
L 603 3500 
z
M 603 4863 
L 1178 4863 
L 1178 4134 
L 603 4134 
L 603 4863 
z
" transform="scale(0.015625)"/>
       <path id="DejaVuSans-6e" d="M 3513 2113 
L 3513 0 
L 2938 0 
L 2938 2094 
Q 2938 2591 2744 2837 
Q 2550 3084 2163 3084 
Q 1697 3084 1428 2787 
Q 1159 2491 1159 1978 
L 1159 0 
L 581 0 
L 581 3500 
L 1159 3500 
L 1159 2956 
Q 1366 3272 1645 3428 
Q 1925 3584 2291 3584 
Q 2894 3584 3203 3211 
Q 3513 2838 3513 2113 
z
" transform="scale(0.015625)"/>
       <path id="DejaVuSans-66" d="M 2375 4863 
L 2375 4384 
L 1825 4384 
Q 1516 4384 1395 4259 
Q 1275 4134 1275 3809 
L 1275 3500 
L 2222 3500 
L 2222 3053 
L 1275 3053 
L 1275 0 
L 697 0 
L 697 3053 
L 147 3053 
L 147 3500 
L 697 3500 
L 697 3744 
Q 697 4328 969 4595 
Q 1241 4863 1831 4863 
L 2375 4863 
z
" transform="scale(0.015625)"/>
       <path id="DejaVuSans-6c" d="M 603 4863 
L 1178 4863 
L 1178 0 
L 603 0 
L 603 4863 
z
" transform="scale(0.015625)"/>
       <path id="DejaVuSans-79" d="M 2059 -325 
Q 1816 -950 1584 -1140 
Q 1353 -1331 966 -1331 
L 506 -1331 
L 506 -850 
L 844 -850 
Q 1081 -850 1212 -737 
Q 1344 -625 1503 -206 
L 1606 56 
L 191 3500 
L 800 3500 
L 1894 763 
L 2988 3500 
L 3597 3500 
L 2059 -325 
z
" transform="scale(0.015625)"/>
      </defs>
      <use xlink:href="#DejaVuSans-4d"/>
      <use xlink:href="#DejaVuSans-61" x="86.279297"/>
      <use xlink:href="#DejaVuSans-74" x="147.558594"/>
      <use xlink:href="#DejaVuSans-63" x="186.767578"/>
      <use xlink:href="#DejaVuSans-68" x="241.748047"/>
      <use xlink:href="#DejaVuSans-65" x="305.126953"/>
      <use xlink:href="#DejaVuSans-73" x="366.650391"/>
      <use xlink:href="#DejaVuSans-20" x="418.75"/>
      <use xlink:href="#DejaVuSans-69" x="450.537109"/>
      <use xlink:href="#DejaVuSans-6e" x="478.320312"/>
      <use xlink:href="#DejaVuSans-20" x="541.699219"/>
      <use xlink:href="#DejaVuSans-66" x="573.486328"/>
      <use xlink:href="#DejaVuSans-6c" x="608.691406"/>
      <use xlink:href="#DejaVuSans-79" x="636.474609"/>
     </g>
    </g>
   </g>
   <g id="patch_45">
    <path d="M 45.642428 262.482812 
L 45.642428 38.428064 
" style="fill: none; stroke: #000000; stroke-width: 0.8; stroke-linejoin: miter; stroke-linecap: square"/>
   </g>
   <g id="patch_46">
    <path d="M 500.99976 262.482812 
L 500.99976 38.428064 
" style="fill: none; stroke: #000000; stroke-width: 0.8; stroke-linejoin: miter; stroke-linecap: square"/>
   </g>
   <g id="patch_47">
    <path d="M 45.642428 262.482812 
L 500.99976 262.482812 
" style="fill: none; stroke: #000000; stroke-width: 0.8; stroke-linejoin: miter; stroke-linecap: square"/>
   </g>
   <g id="patch_48">
    <path d="M 45.642428 38.428064 
L 500.99976 38.428064 
" style="fill: none; stroke: #000000; stroke-width: 0.8; stroke-linejoin: miter; stroke-linecap: square"/>
   </g>
   <g id="text_31">
    <!-- Default search (m=10) -->
    <g transform="translate(198.730547 32.428064) scale(0.13 -0.13)">
     <defs>
      <path id="DejaVuSans-44" d="M 1259 4147 
L 1259 519 
L 2022 519 
Q 2988 519 3436 956 
Q 3884 1394 3884 2338 
Q 3884 3275 3436 3711 
Q 2988 4147 2022 4147 
L 1259 4147 
z
M 628 4666 
L 1925 4666 
Q 3281 4666 3915 4102 
Q 4550 3538 4550 2338 
Q 4550 1131 3912 565 
Q 3275 0 1925 0 
L 628 0 
L 628 4666 
z
" transform="scale(0.015625)"/>
      <path id="DejaVuSans-28" d="M 1984 4856 
Q 1566 4138 1362 3434 
Q 1159 2731 1159 2009 
Q 1159 1288 1364 580 
Q 1569 -128 1984 -844 
L 1484 -844 
Q 1016 -109 783 600 
Q 550 1309 550 2009 
Q 550 2706 781 3412 
Q 1013 4119 1484 4856 
L 1984 4856 
z
" transform="scale(0.015625)"/>
      <path id="DejaVuSans-6d" d="M 3328 2828 
Q 3544 3216 3844 3400 
Q 4144 3584 4550 3584 
Q 5097 3584 5394 3201 
Q 5691 2819 5691 2113 
L 5691 0 
L 5113 0 
L 5113 2094 
Q 5113 2597 4934 2840 
Q 4756 3084 4391 3084 
Q 3944 3084 3684 2787 
Q 3425 2491 3425 1978 
L 3425 0 
L 2847 0 
L 2847 2094 
Q 2847 2600 2669 2842 
Q 2491 3084 2119 3084 
Q 1678 3084 1418 2786 
Q 1159 2488 1159 1978 
L 1159 0 
L 581 0 
L 581 3500 
L 1159 3500 
L 1159 2956 
Q 1356 3278 1631 3431 
Q 1906 3584 2284 3584 
Q 2666 3584 2933 3390 
Q 3200 3197 3328 2828 
z
" transform="scale(0.015625)"/>
      <path id="DejaVuSans-3d" d="M 678 2906 
L 4684 2906 
L 4684 2381 
L 678 2381 
L 678 2906 
z
M 678 1631 
L 4684 1631 
L 4684 1100 
L 678 1100 
L 678 1631 
z
" transform="scale(0.015625)"/>
      <path id="DejaVuSans-29" d="M 513 4856 
L 1013 4856 
Q 1481 4119 1714 3412 
Q 1947 2706 1947 2009 
Q 1947 1309 1714 600 
Q 1481 -109 1013 -844 
L 513 -844 
Q 928 -128 1133 580 
Q 1338 1288 1338 2009 
Q 1338 2731 1133 3434 
Q 928 4138 513 4856 
z
" transform="scale(0.015625)"/>
     </defs>
     <use xlink:href="#DejaVuSans-44"/>
     <use xlink:href="#DejaVuSans-65" x="77.001953"/>
     <use xlink:href="#DejaVuSans-66" x="138.525391"/>
     <use xlink:href="#DejaVuSans-61" x="173.730469"/>
     <use xlink:href="#DejaVuSans-75" x="235.009766"/>
     <use xlink:href="#DejaVuSans-6c" x="298.388672"/>
     <use xlink:href="#DejaVuSans-74" x="326.171875"/>
     <use xlink:href="#DejaVuSans-20" x="365.380859"/>
     <use xlink:href="#DejaVuSans-73" x="397.167969"/>
     <use xlink:href="#DejaVuSans-65" x="449.267578"/>
     <use xlink:href="#DejaVuSans-61" x="510.791016"/>
     <use xlink:href="#DejaVuSans-72" x="572.070312"/>
     <use xlink:href="#DejaVuSans-63" x="610.933594"/>
     <use xlink:href="#DejaVuSans-68" x="665.914062"/>
     <use xlink:href="#DejaVuSans-20" x="729.292969"/>
     <use xlink:href="#DejaVuSans-28" x="761.080078"/>
     <use xlink:href="#DejaVuSans-6d" x="800.09375"/>
     <use xlink:href="#DejaVuSans-3d" x="897.505859"/>
     <use xlink:href="#DejaVuSans-31" x="981.294922"/>
     <use xlink:href="#DejaVuSans-30" x="1044.917969"/>
     <use xlink:href="#DejaVuSans-29" x="1108.541016"/>
    </g>
   </g>
   <g id="legend_1">
    <g id="patch_49">
     <path d="M 54.042428 83.255564 
L 219.998678 83.255564 
Q 222.398678 83.255564 222.398678 80.855564 
L 222.398678 46.828064 
Q 222.398678 44.428064 219.998678 44.428064 
L 54.042428 44.428064 
Q 51.642428 44.428064 51.642428 46.828064 
L 51.642428 80.855564 
Q 51.642428 83.255564 54.042428 83.255564 
z
" style="fill: #ffffff; opacity: 0.8; stroke: #cccccc; stroke-linejoin: miter"/>
    </g>
    <g id="patch_50">
     <path d="M 56.442428 58.346189 
L 80.442428 58.346189 
L 80.442428 49.946189 
L 56.442428 49.946189 
z
" style="fill: #e41a1c"/>
    </g>
    <g id="text_32">
     <!-- missed eps (833) -->
     <g transform="translate(90.042428 58.346189) scale(0.12 -0.12)">
      <defs>
       <path id="DejaVuSans-64" d="M 2906 2969 
L 2906 4863 
L 3481 4863 
L 3481 0 
L 2906 0 
L 2906 525 
Q 2725 213 2448 61 
Q 2172 -91 1784 -91 
Q 1150 -91 751 415 
Q 353 922 353 1747 
Q 353 2572 751 3078 
Q 1150 3584 1784 3584 
Q 2172 3584 2448 3432 
Q 2725 3281 2906 2969 
z
M 947 1747 
Q 947 1113 1208 752 
Q 1469 391 1925 391 
Q 2381 391 2643 752 
Q 2906 1113 2906 1747 
Q 2906 2381 2643 2742 
Q 2381 3103 1925 3103 
Q 1469 3103 1208 2742 
Q 947 2381 947 1747 
z
" transform="scale(0.015625)"/>
       <path id="DejaVuSans-70" d="M 1159 525 
L 1159 -1331 
L 581 -1331 
L 581 3500 
L 1159 3500 
L 1159 2969 
Q 1341 3281 1617 3432 
Q 1894 3584 2278 3584 
Q 2916 3584 3314 3078 
Q 3713 2572 3713 1747 
Q 3713 922 3314 415 
Q 2916 -91 2278 -91 
Q 1894 -91 1617 61 
Q 1341 213 1159 525 
z
M 3116 1747 
Q 3116 2381 2855 2742 
Q 2594 3103 2138 3103 
Q 1681 3103 1420 2742 
Q 1159 2381 1159 1747 
Q 1159 1113 1420 752 
Q 1681 391 2138 391 
Q 2594 391 2855 752 
Q 3116 1113 3116 1747 
z
" transform="scale(0.015625)"/>
      </defs>
      <use xlink:href="#DejaVuSans-6d"/>
      <use xlink:href="#DejaVuSans-69" x="97.412109"/>
      <use xlink:href="#DejaVuSans-73" x="125.195312"/>
      <use xlink:href="#DejaVuSans-73" x="177.294922"/>
      <use xlink:href="#DejaVuSans-65" x="229.394531"/>
      <use xlink:href="#DejaVuSans-64" x="290.917969"/>
      <use xlink:href="#DejaVuSans-20" x="354.394531"/>
      <use xlink:href="#DejaVuSans-65" x="386.181641"/>
      <use xlink:href="#DejaVuSans-70" x="447.705078"/>
      <use xlink:href="#DejaVuSans-73" x="511.181641"/>
      <use xlink:href="#DejaVuSans-20" x="563.28125"/>
      <use xlink:href="#DejaVuSans-28" x="595.068359"/>
      <use xlink:href="#DejaVuSans-38" x="634.082031"/>
      <use xlink:href="#DejaVuSans-33" x="697.705078"/>
      <use xlink:href="#DejaVuSans-33" x="761.328125"/>
      <use xlink:href="#DejaVuSans-29" x="824.951172"/>
     </g>
    </g>
    <g id="patch_51">
     <path d="M 56.442428 75.959939 
L 80.442428 75.959939 
L 80.442428 67.559939 
L 56.442428 67.559939 
z
" style="fill: #999999"/>
    </g>
    <g id="text_33">
     <!-- LAST l&lt;50 e&gt;2 (769) -->
     <g transform="translate(90.042428 75.959939) scale(0.12 -0.12)">
      <defs>
       <path id="DejaVuSans-4c" d="M 628 4666 
L 1259 4666 
L 1259 531 
L 3531 531 
L 3531 0 
L 628 0 
L 628 4666 
z
" transform="scale(0.015625)"/>
       <path id="DejaVuSans-41" d="M 2188 4044 
L 1331 1722 
L 3047 1722 
L 2188 4044 
z
M 1831 4666 
L 2547 4666 
L 4325 0 
L 3669 0 
L 3244 1197 
L 1141 1197 
L 716 0 
L 50 0 
L 1831 4666 
z
" transform="scale(0.015625)"/>
       <path id="DejaVuSans-53" d="M 3425 4513 
L 3425 3897 
Q 3066 4069 2747 4153 
Q 2428 4238 2131 4238 
Q 1616 4238 1336 4038 
Q 1056 3838 1056 3469 
Q 1056 3159 1242 3001 
Q 1428 2844 1947 2747 
L 2328 2669 
Q 3034 2534 3370 2195 
Q 3706 1856 3706 1288 
Q 3706 609 3251 259 
Q 2797 -91 1919 -91 
Q 1588 -91 1214 -16 
Q 841 59 441 206 
L 441 856 
Q 825 641 1194 531 
Q 1563 422 1919 422 
Q 2459 422 2753 634 
Q 3047 847 3047 1241 
Q 3047 1584 2836 1778 
Q 2625 1972 2144 2069 
L 1759 2144 
Q 1053 2284 737 2584 
Q 422 2884 422 3419 
Q 422 4038 858 4394 
Q 1294 4750 2059 4750 
Q 2388 4750 2728 4690 
Q 3069 4631 3425 4513 
z
" transform="scale(0.015625)"/>
       <path id="DejaVuSans-54" d="M -19 4666 
L 3928 4666 
L 3928 4134 
L 2272 4134 
L 2272 0 
L 1638 0 
L 1638 4134 
L -19 4134 
L -19 4666 
z
" transform="scale(0.015625)"/>
       <path id="DejaVuSans-3c" d="M 4684 3150 
L 1459 2003 
L 4684 863 
L 4684 294 
L 678 1747 
L 678 2266 
L 4684 3719 
L 4684 3150 
z
" transform="scale(0.015625)"/>
       <path id="DejaVuSans-3e" d="M 678 3150 
L 678 3719 
L 4684 2266 
L 4684 1747 
L 678 294 
L 678 863 
L 3897 2003 
L 678 3150 
z
" transform="scale(0.015625)"/>
      </defs>
      <use xlink:href="#DejaVuSans-4c"/>
      <use xlink:href="#DejaVuSans-41" x="57.962891"/>
      <use xlink:href="#DejaVuSans-53" x="126.371094"/>
      <use xlink:href="#DejaVuSans-54" x="189.847656"/>
      <use xlink:href="#DejaVuSans-20" x="250.931641"/>
      <use xlink:href="#DejaVuSans-6c" x="282.71875"/>
      <use xlink:href="#DejaVuSans-3c" x="310.501953"/>
      <use xlink:href="#DejaVuSans-35" x="394.291016"/>
      <use xlink:href="#DejaVuSans-30" x="457.914062"/>
      <use xlink:href="#DejaVuSans-20" x="521.537109"/>
      <use xlink:href="#DejaVuSans-65" x="553.324219"/>
      <use xlink:href="#DejaVuSans-3e" x="614.847656"/>
      <use xlink:href="#DejaVuSans-32" x="698.636719"/>
      <use xlink:href="#DejaVuSans-20" x="762.259766"/>
      <use xlink:href="#DejaVuSans-28" x="794.046875"/>
      <use xlink:href="#DejaVuSans-37" x="833.060547"/>
      <use xlink:href="#DejaVuSans-36" x="896.683594"/>
      <use xlink:href="#DejaVuSans-39" x="960.306641"/>
      <use xlink:href="#DejaVuSans-29" x="1023.929688"/>
     </g>
    </g>
   </g>
  </g>
  <g id="axes_2">
   <g id="patch_52">
    <path d="M 45.642428 540.707885 
L 500.99976 540.707885 
L 500.99976 316.653136 
L 45.642428 316.653136 
z
" style="fill: #ffffff"/>
   </g>
   <g id="patch_53">
    <path d="M 66.340488 540.707885 
L 72.952647 540.707885 
L 72.952647 540.707885 
L 66.340488 540.707885 
z
" clip-path="url(#p5b8ddd825f)" style="fill: #e41a1c"/>
   </g>
   <g id="patch_54">
    <path d="M 86.377333 540.707885 
L 92.989492 540.707885 
L 92.989492 540.707885 
L 86.377333 540.707885 
z
" clip-path="url(#p5b8ddd825f)" style="fill: #e41a1c"/>
   </g>
   <g id="patch_55">
    <path d="M 106.414177 540.707885 
L 113.026336 540.707885 
L 113.026336 540.707885 
L 106.414177 540.707885 
z
" clip-path="url(#p5b8ddd825f)" style="fill: #e41a1c"/>
   </g>
   <g id="patch_56">
    <path d="M 126.451022 540.707885 
L 133.063181 540.707885 
L 133.063181 540.707885 
L 126.451022 540.707885 
z
" clip-path="url(#p5b8ddd825f)" style="fill: #e41a1c"/>
   </g>
   <g id="patch_57">
    <path d="M 146.487867 540.707885 
L 153.100026 540.707885 
L 153.100026 540.707885 
L 146.487867 540.707885 
z
" clip-path="url(#p5b8ddd825f)" style="fill: #e41a1c"/>
   </g>
   <g id="patch_58">
    <path d="M 166.524712 540.707885 
L 173.13687 540.707885 
L 173.13687 540.707885 
L 166.524712 540.707885 
z
" clip-path="url(#p5b8ddd825f)" style="fill: #e41a1c"/>
   </g>
   <g id="patch_59">
    <path d="M 186.561556 540.707885 
L 193.173715 540.707885 
L 193.173715 540.707885 
L 186.561556 540.707885 
z
" clip-path="url(#p5b8ddd825f)" style="fill: #e41a1c"/>
   </g>
   <g id="patch_60">
    <path d="M 206.598401 540.707885 
L 213.21056 540.707885 
L 213.21056 540.707885 
L 206.598401 540.707885 
z
" clip-path="url(#p5b8ddd825f)" style="fill: #e41a1c"/>
   </g>
   <g id="patch_61">
    <path d="M 226.635246 540.707885 
L 233.247404 540.707885 
L 233.247404 540.707885 
L 226.635246 540.707885 
z
" clip-path="url(#p5b8ddd825f)" style="fill: #e41a1c"/>
   </g>
   <g id="patch_62">
    <path d="M 246.67209 540.707885 
L 253.284249 540.707885 
L 253.284249 540.707885 
L 246.67209 540.707885 
z
" clip-path="url(#p5b8ddd825f)" style="fill: #e41a1c"/>
   </g>
   <g id="patch_63">
    <path d="M 266.708935 540.707885 
L 273.321094 540.707885 
L 273.321094 540.707885 
L 266.708935 540.707885 
z
" clip-path="url(#p5b8ddd825f)" style="fill: #e41a1c"/>
   </g>
   <g id="patch_64">
    <path d="M 286.74578 540.707885 
L 293.357938 540.707885 
L 293.357938 540.707885 
L 286.74578 540.707885 
z
" clip-path="url(#p5b8ddd825f)" style="fill: #e41a1c"/>
   </g>
   <g id="patch_65">
    <path d="M 306.782624 540.707885 
L 313.394783 540.707885 
L 313.394783 540.707885 
L 306.782624 540.707885 
z
" clip-path="url(#p5b8ddd825f)" style="fill: #e41a1c"/>
   </g>
   <g id="patch_66">
    <path d="M 326.819469 540.707885 
L 333.431628 540.707885 
L 333.431628 540.707885 
L 326.819469 540.707885 
z
" clip-path="url(#p5b8ddd825f)" style="fill: #e41a1c"/>
   </g>
   <g id="patch_67">
    <path d="M 346.856314 540.707885 
L 353.468473 540.707885 
L 353.468473 529.505148 
L 346.856314 529.505148 
z
" clip-path="url(#p5b8ddd825f)" style="fill: #e41a1c"/>
   </g>
   <g id="patch_68">
    <path d="M 366.893158 540.707885 
L 373.505317 540.707885 
L 373.505317 540.707885 
L 366.893158 540.707885 
z
" clip-path="url(#p5b8ddd825f)" style="fill: #e41a1c"/>
   </g>
   <g id="patch_69">
    <path d="M 386.930003 540.707885 
L 393.542162 540.707885 
L 393.542162 540.707885 
L 386.930003 540.707885 
z
" clip-path="url(#p5b8ddd825f)" style="fill: #e41a1c"/>
   </g>
   <g id="patch_70">
    <path d="M 406.966848 540.707885 
L 413.579007 540.707885 
L 413.579007 540.707885 
L 406.966848 540.707885 
z
" clip-path="url(#p5b8ddd825f)" style="fill: #e41a1c"/>
   </g>
   <g id="patch_71">
    <path d="M 427.003693 540.707885 
L 433.615851 540.707885 
L 433.615851 540.707885 
L 427.003693 540.707885 
z
" clip-path="url(#p5b8ddd825f)" style="fill: #e41a1c"/>
   </g>
   <g id="patch_72">
    <path d="M 447.040537 540.707885 
L 453.652696 540.707885 
L 453.652696 540.707885 
L 447.040537 540.707885 
z
" clip-path="url(#p5b8ddd825f)" style="fill: #e41a1c"/>
   </g>
   <g id="patch_73">
    <path d="M 467.077382 540.707885 
L 473.689541 540.707885 
L 473.689541 540.707885 
L 467.077382 540.707885 
z
" clip-path="url(#p5b8ddd825f)" style="fill: #e41a1c"/>
   </g>
   <g id="patch_74">
    <path d="M 72.952647 540.707885 
L 79.564806 540.707885 
L 79.564806 467.890092 
L 72.952647 467.890092 
z
" clip-path="url(#p5b8ddd825f)" style="fill: #999999"/>
   </g>
   <g id="patch_75">
    <path d="M 92.989492 540.707885 
L 99.60165 540.707885 
L 99.60165 458.554477 
L 92.989492 458.554477 
z
" clip-path="url(#p5b8ddd825f)" style="fill: #999999"/>
   </g>
   <g id="patch_76">
    <path d="M 113.026336 540.707885 
L 119.638495 540.707885 
L 119.638495 460.4216 
L 113.026336 460.4216 
z
" clip-path="url(#p5b8ddd825f)" style="fill: #999999"/>
   </g>
   <g id="patch_77">
    <path d="M 133.063181 540.707885 
L 139.67534 540.707885 
L 139.67534 503.365427 
L 133.063181 503.365427 
z
" clip-path="url(#p5b8ddd825f)" style="fill: #999999"/>
   </g>
   <g id="patch_78">
    <path d="M 153.100026 540.707885 
L 159.712184 540.707885 
L 159.712184 475.358583 
L 153.100026 475.358583 
z
" clip-path="url(#p5b8ddd825f)" style="fill: #999999"/>
   </g>
   <g id="patch_79">
    <path d="M 173.13687 540.707885 
L 179.749029 540.707885 
L 179.749029 507.099673 
L 173.13687 507.099673 
z
" clip-path="url(#p5b8ddd825f)" style="fill: #999999"/>
   </g>
   <g id="patch_80">
    <path d="M 193.173715 540.707885 
L 199.785874 540.707885 
L 199.785874 505.23255 
L 193.173715 505.23255 
z
" clip-path="url(#p5b8ddd825f)" style="fill: #999999"/>
   </g>
   <g id="patch_81">
    <path d="M 213.21056 540.707885 
L 219.822718 540.707885 
L 219.822718 527.638025 
L 213.21056 527.638025 
z
" clip-path="url(#p5b8ddd825f)" style="fill: #999999"/>
   </g>
   <g id="patch_82">
    <path d="M 233.247404 540.707885 
L 239.859563 540.707885 
L 239.859563 441.750371 
L 233.247404 441.750371 
z
" clip-path="url(#p5b8ddd825f)" style="fill: #999999"/>
   </g>
   <g id="patch_83">
    <path d="M 253.284249 540.707885 
L 259.896408 540.707885 
L 259.896408 449.218863 
L 253.284249 449.218863 
z
" clip-path="url(#p5b8ddd825f)" style="fill: #999999"/>
   </g>
   <g id="patch_84">
    <path d="M 273.321094 540.707885 
L 279.933252 540.707885 
L 279.933252 473.49146 
L 273.321094 473.49146 
z
" clip-path="url(#p5b8ddd825f)" style="fill: #999999"/>
   </g>
   <g id="patch_85">
    <path d="M 293.357938 540.707885 
L 299.970097 540.707885 
L 299.970097 458.554477 
L 293.357938 458.554477 
z
" clip-path="url(#p5b8ddd825f)" style="fill: #999999"/>
   </g>
   <g id="patch_86">
    <path d="M 313.394783 540.707885 
L 320.006942 540.707885 
L 320.006942 423.079142 
L 313.394783 423.079142 
z
" clip-path="url(#p5b8ddd825f)" style="fill: #999999"/>
   </g>
   <g id="patch_87">
    <path d="M 333.431628 540.707885 
L 340.043787 540.707885 
L 340.043787 479.092829 
L 333.431628 479.092829 
z
" clip-path="url(#p5b8ddd825f)" style="fill: #999999"/>
   </g>
   <g id="patch_88">
    <path d="M 353.468473 540.707885 
L 360.080631 540.707885 
L 360.080631 368.932578 
L 353.468473 368.932578 
z
" clip-path="url(#p5b8ddd825f)" style="fill: #999999"/>
   </g>
   <g id="patch_89">
    <path d="M 373.505317 540.707885 
L 380.117476 540.707885 
L 380.117476 445.484617 
L 373.505317 445.484617 
z
" clip-path="url(#p5b8ddd825f)" style="fill: #999999"/>
   </g>
   <g id="patch_90">
    <path d="M 393.542162 540.707885 
L 400.154321 540.707885 
L 400.154321 477.225706 
L 393.542162 477.225706 
z
" clip-path="url(#p5b8ddd825f)" style="fill: #999999"/>
   </g>
   <g id="patch_91">
    <path d="M 413.579007 540.707885 
L 420.191165 540.707885 
L 420.191165 445.484617 
L 413.579007 445.484617 
z
" clip-path="url(#p5b8ddd825f)" style="fill: #999999"/>
   </g>
   <g id="patch_92">
    <path d="M 433.615851 540.707885 
L 440.22801 540.707885 
L 440.22801 473.49146 
L 433.615851 473.49146 
z
" clip-path="url(#p5b8ddd825f)" style="fill: #999999"/>
   </g>
   <g id="patch_93">
    <path d="M 453.652696 540.707885 
L 460.264855 540.707885 
L 460.264855 331.590119 
L 453.652696 331.590119 
z
" clip-path="url(#p5b8ddd825f)" style="fill: #999999"/>
   </g>
   <g id="patch_94">
    <path d="M 473.689541 540.707885 
L 480.301699 540.707885 
L 480.301699 538.840762 
L 473.689541 538.840762 
z
" clip-path="url(#p5b8ddd825f)" style="fill: #999999"/>
   </g>
   <g id="matplotlib.axis_3">
    <g id="xtick_22">
     <g id="line2d_29">
      <g>
       <use xlink:href="#m9e69fdcca2" x="69.646567" y="540.707885" style="stroke: #000000; stroke-width: 0.8"/>
      </g>
     </g>
     <g id="text_34">
      <!-- 1 -->
      <g transform="translate(66.147192 556.066166) scale(0.11 -0.11)">
       <use xlink:href="#DejaVuSans-31"/>
      </g>
     </g>
    </g>
    <g id="xtick_23">
     <g id="line2d_30">
      <g>
       <use xlink:href="#m9e69fdcca2" x="89.683412" y="540.707885" style="stroke: #000000; stroke-width: 0.8"/>
      </g>
     </g>
     <g id="text_35">
      <!-- 2 -->
      <g transform="translate(86.184037 556.066166) scale(0.11 -0.11)">
       <use xlink:href="#DejaVuSans-32"/>
      </g>
     </g>
    </g>
    <g id="xtick_24">
     <g id="line2d_31">
      <g>
       <use xlink:href="#m9e69fdcca2" x="109.720257" y="540.707885" style="stroke: #000000; stroke-width: 0.8"/>
      </g>
     </g>
     <g id="text_36">
      <!-- 3 -->
      <g transform="translate(106.220882 556.066166) scale(0.11 -0.11)">
       <use xlink:href="#DejaVuSans-33"/>
      </g>
     </g>
    </g>
    <g id="xtick_25">
     <g id="line2d_32">
      <g>
       <use xlink:href="#m9e69fdcca2" x="129.757102" y="540.707885" style="stroke: #000000; stroke-width: 0.8"/>
      </g>
     </g>
     <g id="text_37">
      <!-- 4 -->
      <g transform="translate(126.257727 556.066166) scale(0.11 -0.11)">
       <use xlink:href="#DejaVuSans-34"/>
      </g>
     </g>
    </g>
    <g id="xtick_26">
     <g id="line2d_33">
      <g>
       <use xlink:href="#m9e69fdcca2" x="149.793946" y="540.707885" style="stroke: #000000; stroke-width: 0.8"/>
      </g>
     </g>
     <g id="text_38">
      <!-- 5 -->
      <g transform="translate(146.294571 556.066166) scale(0.11 -0.11)">
       <use xlink:href="#DejaVuSans-35"/>
      </g>
     </g>
    </g>
    <g id="xtick_27">
     <g id="line2d_34">
      <g>
       <use xlink:href="#m9e69fdcca2" x="169.830791" y="540.707885" style="stroke: #000000; stroke-width: 0.8"/>
      </g>
     </g>
     <g id="text_39">
      <!-- 6 -->
      <g transform="translate(166.331416 556.066166) scale(0.11 -0.11)">
       <use xlink:href="#DejaVuSans-36"/>
      </g>
     </g>
    </g>
    <g id="xtick_28">
     <g id="line2d_35">
      <g>
       <use xlink:href="#m9e69fdcca2" x="189.867636" y="540.707885" style="stroke: #000000; stroke-width: 0.8"/>
      </g>
     </g>
     <g id="text_40">
      <!-- 7 -->
      <g transform="translate(186.368261 556.066166) scale(0.11 -0.11)">
       <use xlink:href="#DejaVuSans-37"/>
      </g>
     </g>
    </g>
    <g id="xtick_29">
     <g id="line2d_36">
      <g>
       <use xlink:href="#m9e69fdcca2" x="209.90448" y="540.707885" style="stroke: #000000; stroke-width: 0.8"/>
      </g>
     </g>
     <g id="text_41">
      <!-- 8 -->
      <g transform="translate(206.405105 556.066166) scale(0.11 -0.11)">
       <use xlink:href="#DejaVuSans-38"/>
      </g>
     </g>
    </g>
    <g id="xtick_30">
     <g id="line2d_37">
      <g>
       <use xlink:href="#m9e69fdcca2" x="229.941325" y="540.707885" style="stroke: #000000; stroke-width: 0.8"/>
      </g>
     </g>
     <g id="text_42">
      <!-- 9 -->
      <g transform="translate(226.44195 556.066166) scale(0.11 -0.11)">
       <use xlink:href="#DejaVuSans-39"/>
      </g>
     </g>
    </g>
    <g id="xtick_31">
     <g id="line2d_38">
      <g>
       <use xlink:href="#m9e69fdcca2" x="249.97817" y="540.707885" style="stroke: #000000; stroke-width: 0.8"/>
      </g>
     </g>
     <g id="text_43">
      <!-- 10 -->
      <g transform="translate(242.97942 556.066166) scale(0.11 -0.11)">
       <use xlink:href="#DejaVuSans-31"/>
       <use xlink:href="#DejaVuSans-30" x="63.623047"/>
      </g>
     </g>
    </g>
    <g id="xtick_32">
     <g id="line2d_39">
      <g>
       <use xlink:href="#m9e69fdcca2" x="270.015014" y="540.707885" style="stroke: #000000; stroke-width: 0.8"/>
      </g>
     </g>
     <g id="text_44">
      <!-- 11 -->
      <g transform="translate(263.016264 556.066166) scale(0.11 -0.11)">
       <use xlink:href="#DejaVuSans-31"/>
       <use xlink:href="#DejaVuSans-31" x="63.623047"/>
      </g>
     </g>
    </g>
    <g id="xtick_33">
     <g id="line2d_40">
      <g>
       <use xlink:href="#m9e69fdcca2" x="290.051859" y="540.707885" style="stroke: #000000; stroke-width: 0.8"/>
      </g>
     </g>
     <g id="text_45">
      <!-- 12 -->
      <g transform="translate(283.053109 556.066166) scale(0.11 -0.11)">
       <use xlink:href="#DejaVuSans-31"/>
       <use xlink:href="#DejaVuSans-32" x="63.623047"/>
      </g>
     </g>
    </g>
    <g id="xtick_34">
     <g id="line2d_41">
      <g>
       <use xlink:href="#m9e69fdcca2" x="310.088704" y="540.707885" style="stroke: #000000; stroke-width: 0.8"/>
      </g>
     </g>
     <g id="text_46">
      <!-- 13 -->
      <g transform="translate(303.089954 556.066166) scale(0.11 -0.11)">
       <use xlink:href="#DejaVuSans-31"/>
       <use xlink:href="#DejaVuSans-33" x="63.623047"/>
      </g>
     </g>
    </g>
    <g id="xtick_35">
     <g id="line2d_42">
      <g>
       <use xlink:href="#m9e69fdcca2" x="330.125548" y="540.707885" style="stroke: #000000; stroke-width: 0.8"/>
      </g>
     </g>
     <g id="text_47">
      <!-- 14 -->
      <g transform="translate(323.126798 556.066166) scale(0.11 -0.11)">
       <use xlink:href="#DejaVuSans-31"/>
       <use xlink:href="#DejaVuSans-34" x="63.623047"/>
      </g>
     </g>
    </g>
    <g id="xtick_36">
     <g id="line2d_43">
      <g>
       <use xlink:href="#m9e69fdcca2" x="350.162393" y="540.707885" style="stroke: #000000; stroke-width: 0.8"/>
      </g>
     </g>
     <g id="text_48">
      <!-- 15 -->
      <g transform="translate(343.163643 556.066166) scale(0.11 -0.11)">
       <use xlink:href="#DejaVuSans-31"/>
       <use xlink:href="#DejaVuSans-35" x="63.623047"/>
      </g>
     </g>
    </g>
    <g id="xtick_37">
     <g id="line2d_44">
      <g>
       <use xlink:href="#m9e69fdcca2" x="370.199238" y="540.707885" style="stroke: #000000; stroke-width: 0.8"/>
      </g>
     </g>
     <g id="text_49">
      <!-- 16 -->
      <g transform="translate(363.200488 556.066166) scale(0.11 -0.11)">
       <use xlink:href="#DejaVuSans-31"/>
       <use xlink:href="#DejaVuSans-36" x="63.623047"/>
      </g>
     </g>
    </g>
    <g id="xtick_38">
     <g id="line2d_45">
      <g>
       <use xlink:href="#m9e69fdcca2" x="390.236083" y="540.707885" style="stroke: #000000; stroke-width: 0.8"/>
      </g>
     </g>
     <g id="text_50">
      <!-- 17 -->
      <g transform="translate(383.237333 556.066166) scale(0.11 -0.11)">
       <use xlink:href="#DejaVuSans-31"/>
       <use xlink:href="#DejaVuSans-37" x="63.623047"/>
      </g>
     </g>
    </g>
    <g id="xtick_39">
     <g id="line2d_46">
      <g>
       <use xlink:href="#m9e69fdcca2" x="410.272927" y="540.707885" style="stroke: #000000; stroke-width: 0.8"/>
      </g>
     </g>
     <g id="text_51">
      <!-- 18 -->
      <g transform="translate(403.274177 556.066166) scale(0.11 -0.11)">
       <use xlink:href="#DejaVuSans-31"/>
       <use xlink:href="#DejaVuSans-38" x="63.623047"/>
      </g>
     </g>
    </g>
    <g id="xtick_40">
     <g id="line2d_47">
      <g>
       <use xlink:href="#m9e69fdcca2" x="430.309772" y="540.707885" style="stroke: #000000; stroke-width: 0.8"/>
      </g>
     </g>
     <g id="text_52">
      <!-- 19 -->
      <g transform="translate(423.311022 556.066166) scale(0.11 -0.11)">
       <use xlink:href="#DejaVuSans-31"/>
       <use xlink:href="#DejaVuSans-39" x="63.623047"/>
      </g>
     </g>
    </g>
    <g id="xtick_41">
     <g id="line2d_48">
      <g>
       <use xlink:href="#m9e69fdcca2" x="450.346617" y="540.707885" style="stroke: #000000; stroke-width: 0.8"/>
      </g>
     </g>
     <g id="text_53">
      <!-- X -->
      <g transform="translate(446.579117 556.066166) scale(0.11 -0.11)">
       <use xlink:href="#DejaVuSans-58"/>
      </g>
     </g>
    </g>
    <g id="xtick_42">
     <g id="line2d_49">
      <g>
       <use xlink:href="#m9e69fdcca2" x="470.383461" y="540.707885" style="stroke: #000000; stroke-width: 0.8"/>
      </g>
     </g>
     <g id="text_54">
      <!-- Y -->
      <g transform="translate(467.024164 556.066166) scale(0.11 -0.11)">
       <use xlink:href="#DejaVuSans-59"/>
      </g>
     </g>
    </g>
    <g id="text_55">
     <!-- Mouse chr -->
     <g transform="translate(244.956563 570.712104) scale(0.11 -0.11)">
      <use xlink:href="#DejaVuSans-4d"/>
      <use xlink:href="#DejaVuSans-6f" x="86.279297"/>
      <use xlink:href="#DejaVuSans-75" x="147.460938"/>
      <use xlink:href="#DejaVuSans-73" x="210.839844"/>
      <use xlink:href="#DejaVuSans-65" x="262.939453"/>
      <use xlink:href="#DejaVuSans-20" x="324.462891"/>
      <use xlink:href="#DejaVuSans-63" x="356.25"/>
      <use xlink:href="#DejaVuSans-68" x="411.230469"/>
      <use xlink:href="#DejaVuSans-72" x="474.609375"/>
     </g>
    </g>
   </g>
   <g id="matplotlib.axis_4">
    <g id="ytick_8">
     <g id="line2d_50">
      <g>
       <use xlink:href="#mdb4e5c7699" x="45.642428" y="540.707885" style="stroke: #000000; stroke-width: 0.8"/>
      </g>
     </g>
     <g id="text_56">
      <!-- 0 -->
      <g transform="translate(31.643678 544.887026) scale(0.11 -0.11)">
       <use xlink:href="#DejaVuSans-30"/>
      </g>
     </g>
    </g>
    <g id="ytick_9">
     <g id="line2d_51">
      <g>
       <use xlink:href="#mdb4e5c7699" x="45.642428" y="503.365427" style="stroke: #000000; stroke-width: 0.8"/>
      </g>
     </g>
     <g id="text_57">
      <!-- 20 -->
      <g transform="translate(24.644928 507.544567) scale(0.11 -0.11)">
       <use xlink:href="#DejaVuSans-32"/>
       <use xlink:href="#DejaVuSans-30" x="63.623047"/>
      </g>
     </g>
    </g>
    <g id="ytick_10">
     <g id="line2d_52">
      <g>
       <use xlink:href="#mdb4e5c7699" x="45.642428" y="466.022969" style="stroke: #000000; stroke-width: 0.8"/>
      </g>
     </g>
     <g id="text_58">
      <!-- 40 -->
      <g transform="translate(24.644928 470.202109) scale(0.11 -0.11)">
       <use xlink:href="#DejaVuSans-34"/>
       <use xlink:href="#DejaVuSans-30" x="63.623047"/>
      </g>
     </g>
    </g>
    <g id="ytick_11">
     <g id="line2d_53">
      <g>
       <use xlink:href="#mdb4e5c7699" x="45.642428" y="428.680511" style="stroke: #000000; stroke-width: 0.8"/>
      </g>
     </g>
     <g id="text_59">
      <!-- 60 -->
      <g transform="translate(24.644928 432.859651) scale(0.11 -0.11)">
       <use xlink:href="#DejaVuSans-36"/>
       <use xlink:href="#DejaVuSans-30" x="63.623047"/>
      </g>
     </g>
    </g>
    <g id="ytick_12">
     <g id="line2d_54">
      <g>
       <use xlink:href="#mdb4e5c7699" x="45.642428" y="391.338052" style="stroke: #000000; stroke-width: 0.8"/>
      </g>
     </g>
     <g id="text_60">
      <!-- 80 -->
      <g transform="translate(24.644928 395.517193) scale(0.11 -0.11)">
       <use xlink:href="#DejaVuSans-38"/>
       <use xlink:href="#DejaVuSans-30" x="63.623047"/>
      </g>
     </g>
    </g>
    <g id="ytick_13">
     <g id="line2d_55">
      <g>
       <use xlink:href="#mdb4e5c7699" x="45.642428" y="353.995594" style="stroke: #000000; stroke-width: 0.8"/>
      </g>
     </g>
     <g id="text_61">
      <!-- 100 -->
      <g transform="translate(17.646178 358.174735) scale(0.11 -0.11)">
       <use xlink:href="#DejaVuSans-31"/>
       <use xlink:href="#DejaVuSans-30" x="63.623047"/>
       <use xlink:href="#DejaVuSans-30" x="127.246094"/>
      </g>
     </g>
    </g>
    <g id="ytick_14">
     <g id="line2d_56">
      <g>
       <use xlink:href="#mdb4e5c7699" x="45.642428" y="316.653136" style="stroke: #000000; stroke-width: 0.8"/>
      </g>
     </g>
     <g id="text_62">
      <!-- 120 -->
      <g transform="translate(17.646178 320.832277) scale(0.11 -0.11)">
       <use xlink:href="#DejaVuSans-31"/>
       <use xlink:href="#DejaVuSans-32" x="63.623047"/>
       <use xlink:href="#DejaVuSans-30" x="127.246094"/>
      </g>
     </g>
    </g>
    <g id="text_63">
     <!-- Matches in fly -->
     <g transform="translate(11.358521 466.940745) rotate(-90) scale(0.11 -0.11)">
      <use xlink:href="#DejaVuSans-4d"/>
      <use xlink:href="#DejaVuSans-61" x="86.279297"/>
      <use xlink:href="#DejaVuSans-74" x="147.558594"/>
      <use xlink:href="#DejaVuSans-63" x="186.767578"/>
      <use xlink:href="#DejaVuSans-68" x="241.748047"/>
      <use xlink:href="#DejaVuSans-65" x="305.126953"/>
      <use xlink:href="#DejaVuSans-73" x="366.650391"/>
      <use xlink:href="#DejaVuSans-20" x="418.75"/>
      <use xlink:href="#DejaVuSans-69" x="450.537109"/>
      <use xlink:href="#DejaVuSans-6e" x="478.320312"/>
      <use xlink:href="#DejaVuSans-20" x="541.699219"/>
      <use xlink:href="#DejaVuSans-66" x="573.486328"/>
      <use xlink:href="#DejaVuSans-6c" x="608.691406"/>
      <use xlink:href="#DejaVuSans-79" x="636.474609"/>
     </g>
    </g>
   </g>
   <g id="patch_95">
    <path d="M 45.642428 540.707885 
L 45.642428 316.653136 
" style="fill: none; stroke: #000000; stroke-width: 0.8; stroke-linejoin: miter; stroke-linecap: square"/>
   </g>
   <g id="patch_96">
    <path d="M 500.99976 540.707885 
L 500.99976 316.653136 
" style="fill: none; stroke: #000000; stroke-width: 0.8; stroke-linejoin: miter; stroke-linecap: square"/>
   </g>
   <g id="patch_97">
    <path d="M 45.642428 540.707885 
L 500.99976 540.707885 
" style="fill: none; stroke: #000000; stroke-width: 0.8; stroke-linejoin: miter; stroke-linecap: square"/>
   </g>
   <g id="patch_98">
    <path d="M 45.642428 316.653136 
L 500.99976 316.653136 
" style="fill: none; stroke: #000000; stroke-width: 0.8; stroke-linejoin: miter; stroke-linecap: square"/>
   </g>
   <g id="text_64">
    <!-- Sensitive search (m=100) -->
    <g transform="translate(188.706328 310.653136) scale(0.13 -0.13)">
     <defs>
      <path id="DejaVuSans-76" d="M 191 3500 
L 800 3500 
L 1894 563 
L 2988 3500 
L 3597 3500 
L 2284 0 
L 1503 0 
L 191 3500 
z
" transform="scale(0.015625)"/>
     </defs>
     <use xlink:href="#DejaVuSans-53"/>
     <use xlink:href="#DejaVuSans-65" x="63.476562"/>
     <use xlink:href="#DejaVuSans-6e" x="125"/>
     <use xlink:href="#DejaVuSans-73" x="188.378906"/>
     <use xlink:href="#DejaVuSans-69" x="240.478516"/>
     <use xlink:href="#DejaVuSans-74" x="268.261719"/>
     <use xlink:href="#DejaVuSans-69" x="307.470703"/>
     <use xlink:href="#DejaVuSans-76" x="335.253906"/>
     <use xlink:href="#DejaVuSans-65" x="394.433594"/>
     <use xlink:href="#DejaVuSans-20" x="455.957031"/>
     <use xlink:href="#DejaVuSans-73" x="487.744141"/>
     <use xlink:href="#DejaVuSans-65" x="539.84375"/>
     <use xlink:href="#DejaVuSans-61" x="601.367188"/>
     <use xlink:href="#DejaVuSans-72" x="662.646484"/>
     <use xlink:href="#DejaVuSans-63" x="701.509766"/>
     <use xlink:href="#DejaVuSans-68" x="756.490234"/>
     <use xlink:href="#DejaVuSans-20" x="819.869141"/>
     <use xlink:href="#DejaVuSans-28" x="851.65625"/>
     <use xlink:href="#DejaVuSans-6d" x="890.669922"/>
     <use xlink:href="#DejaVuSans-3d" x="988.082031"/>
     <use xlink:href="#DejaVuSans-31" x="1071.871094"/>
     <use xlink:href="#DejaVuSans-30" x="1135.494141"/>
     <use xlink:href="#DejaVuSans-30" x="1199.117188"/>
     <use xlink:href="#DejaVuSans-29" x="1262.740234"/>
    </g>
   </g>
   <g id="legend_2">
    <g id="patch_99">
     <path d="M 54.042428 361.480636 
L 219.998678 361.480636 
Q 222.398678 361.480636 222.398678 359.080636 
L 222.398678 325.053136 
Q 222.398678 322.653136 219.998678 322.653136 
L 54.042428 322.653136 
Q 51.642428 322.653136 51.642428 325.053136 
L 51.642428 359.080636 
Q 51.642428 361.480636 54.042428 361.480636 
z
" style="fill: #ffffff; opacity: 0.8; stroke: #cccccc; stroke-linejoin: miter"/>
    </g>
    <g id="patch_100">
     <path d="M 56.442428 336.571261 
L 80.442428 336.571261 
L 80.442428 328.171261 
L 56.442428 328.171261 
z
" style="fill: #e41a1c"/>
    </g>
    <g id="text_65">
     <!-- missed eps (6) -->
     <g transform="translate(90.042428 336.571261) scale(0.12 -0.12)">
      <use xlink:href="#DejaVuSans-6d"/>
      <use xlink:href="#DejaVuSans-69" x="97.412109"/>
      <use xlink:href="#DejaVuSans-73" x="125.195312"/>
      <use xlink:href="#DejaVuSans-73" x="177.294922"/>
      <use xlink:href="#DejaVuSans-65" x="229.394531"/>
      <use xlink:href="#DejaVuSans-64" x="290.917969"/>
      <use xlink:href="#DejaVuSans-20" x="354.394531"/>
      <use xlink:href="#DejaVuSans-65" x="386.181641"/>
      <use xlink:href="#DejaVuSans-70" x="447.705078"/>
      <use xlink:href="#DejaVuSans-73" x="511.181641"/>
      <use xlink:href="#DejaVuSans-20" x="563.28125"/>
      <use xlink:href="#DejaVuSans-28" x="595.068359"/>
      <use xlink:href="#DejaVuSans-36" x="634.082031"/>
      <use xlink:href="#DejaVuSans-29" x="697.705078"/>
     </g>
    </g>
    <g id="patch_101">
     <path d="M 56.442428 354.185011 
L 80.442428 354.185011 
L 80.442428 345.785011 
L 56.442428 345.785011 
z
" style="fill: #999999"/>
    </g>
    <g id="text_66">
     <!-- LAST l&lt;50 e&gt;2 (880) -->
     <g transform="translate(90.042428 354.185011) scale(0.12 -0.12)">
      <use xlink:href="#DejaVuSans-4c"/>
      <use xlink:href="#DejaVuSans-41" x="57.962891"/>
      <use xlink:href="#DejaVuSans-53" x="126.371094"/>
      <use xlink:href="#DejaVuSans-54" x="189.847656"/>
      <use xlink:href="#DejaVuSans-20" x="250.931641"/>
      <use xlink:href="#DejaVuSans-6c" x="282.71875"/>
      <use xlink:href="#DejaVuSans-3c" x="310.501953"/>
      <use xlink:href="#DejaVuSans-35" x="394.291016"/>
      <use xlink:href="#DejaVuSans-30" x="457.914062"/>
      <use xlink:href="#DejaVuSans-20" x="521.537109"/>
      <use xlink:href="#DejaVuSans-65" x="553.324219"/>
      <use xlink:href="#DejaVuSans-3e" x="614.847656"/>
      <use xlink:href="#DejaVuSans-32" x="698.636719"/>
      <use xlink:href="#DejaVuSans-20" x="762.259766"/>
      <use xlink:href="#DejaVuSans-28" x="794.046875"/>
      <use xlink:href="#DejaVuSans-38" x="833.060547"/>
      <use xlink:href="#DejaVuSans-38" x="896.683594"/>
      <use xlink:href="#DejaVuSans-30" x="960.306641"/>
      <use xlink:href="#DejaVuSans-29" x="1023.929688"/>
     </g>
    </g>
   </g>
  </g>
  <g id="text_67">
   <!-- How many LAST alignments differ from epsilon matches? -->
   <g transform="translate(71.449219 13.638052) scale(0.14 -0.14)">
    <defs>
     <path id="DejaVuSans-48" d="M 628 4666 
L 1259 4666 
L 1259 2753 
L 3553 2753 
L 3553 4666 
L 4184 4666 
L 4184 0 
L 3553 0 
L 3553 2222 
L 1259 2222 
L 1259 0 
L 628 0 
L 628 4666 
z
" transform="scale(0.015625)"/>
     <path id="DejaVuSans-77" d="M 269 3500 
L 844 3500 
L 1563 769 
L 2278 3500 
L 2956 3500 
L 3675 769 
L 4391 3500 
L 4966 3500 
L 4050 0 
L 3372 0 
L 2619 2869 
L 1863 0 
L 1184 0 
L 269 3500 
z
" transform="scale(0.015625)"/>
     <path id="DejaVuSans-67" d="M 2906 1791 
Q 2906 2416 2648 2759 
Q 2391 3103 1925 3103 
Q 1463 3103 1205 2759 
Q 947 2416 947 1791 
Q 947 1169 1205 825 
Q 1463 481 1925 481 
Q 2391 481 2648 825 
Q 2906 1169 2906 1791 
z
M 3481 434 
Q 3481 -459 3084 -895 
Q 2688 -1331 1869 -1331 
Q 1566 -1331 1297 -1286 
Q 1028 -1241 775 -1147 
L 775 -588 
Q 1028 -725 1275 -790 
Q 1522 -856 1778 -856 
Q 2344 -856 2625 -561 
Q 2906 -266 2906 331 
L 2906 616 
Q 2728 306 2450 153 
Q 2172 0 1784 0 
Q 1141 0 747 490 
Q 353 981 353 1791 
Q 353 2603 747 3093 
Q 1141 3584 1784 3584 
Q 2172 3584 2450 3431 
Q 2728 3278 2906 2969 
L 2906 3500 
L 3481 3500 
L 3481 434 
z
" transform="scale(0.015625)"/>
     <path id="DejaVuSans-3f" d="M 1222 794 
L 1856 794 
L 1856 0 
L 1222 0 
L 1222 794 
z
M 1838 1253 
L 1241 1253 
L 1241 1734 
Q 1241 2050 1328 2253 
Q 1416 2456 1697 2725 
L 1978 3003 
Q 2156 3169 2236 3316 
Q 2316 3463 2316 3616 
Q 2316 3894 2111 4066 
Q 1906 4238 1569 4238 
Q 1322 4238 1042 4128 
Q 763 4019 459 3809 
L 459 4397 
Q 753 4575 1054 4662 
Q 1356 4750 1678 4750 
Q 2253 4750 2601 4447 
Q 2950 4144 2950 3647 
Q 2950 3409 2837 3195 
Q 2725 2981 2444 2713 
L 2169 2444 
Q 2022 2297 1961 2214 
Q 1900 2131 1875 2053 
Q 1856 1988 1847 1894 
Q 1838 1800 1838 1638 
L 1838 1253 
z
" transform="scale(0.015625)"/>
    </defs>
    <use xlink:href="#DejaVuSans-48"/>
    <use xlink:href="#DejaVuSans-6f" x="75.195312"/>
    <use xlink:href="#DejaVuSans-77" x="136.376953"/>
    <use xlink:href="#DejaVuSans-20" x="218.164062"/>
    <use xlink:href="#DejaVuSans-6d" x="249.951172"/>
    <use xlink:href="#DejaVuSans-61" x="347.363281"/>
    <use xlink:href="#DejaVuSans-6e" x="408.642578"/>
    <use xlink:href="#DejaVuSans-79" x="472.021484"/>
    <use xlink:href="#DejaVuSans-20" x="531.201172"/>
    <use xlink:href="#DejaVuSans-4c" x="562.988281"/>
    <use xlink:href="#DejaVuSans-41" x="620.951172"/>
    <use xlink:href="#DejaVuSans-53" x="689.359375"/>
    <use xlink:href="#DejaVuSans-54" x="752.835938"/>
    <use xlink:href="#DejaVuSans-20" x="813.919922"/>
    <use xlink:href="#DejaVuSans-61" x="845.707031"/>
    <use xlink:href="#DejaVuSans-6c" x="906.986328"/>
    <use xlink:href="#DejaVuSans-69" x="934.769531"/>
    <use xlink:href="#DejaVuSans-67" x="962.552734"/>
    <use xlink:href="#DejaVuSans-6e" x="1026.029297"/>
    <use xlink:href="#DejaVuSans-6d" x="1089.408203"/>
    <use xlink:href="#DejaVuSans-65" x="1186.820312"/>
    <use xlink:href="#DejaVuSans-6e" x="1248.34375"/>
    <use xlink:href="#DejaVuSans-74" x="1311.722656"/>
    <use xlink:href="#DejaVuSans-73" x="1350.931641"/>
    <use xlink:href="#DejaVuSans-20" x="1403.03125"/>
    <use xlink:href="#DejaVuSans-64" x="1434.818359"/>
    <use xlink:href="#DejaVuSans-69" x="1498.294922"/>
    <use xlink:href="#DejaVuSans-66" x="1526.078125"/>
    <use xlink:href="#DejaVuSans-66" x="1561.283203"/>
    <use xlink:href="#DejaVuSans-65" x="1596.488281"/>
    <use xlink:href="#DejaVuSans-72" x="1658.011719"/>
    <use xlink:href="#DejaVuSans-20" x="1699.125"/>
    <use xlink:href="#DejaVuSans-66" x="1730.912109"/>
    <use xlink:href="#DejaVuSans-72" x="1766.117188"/>
    <use xlink:href="#DejaVuSans-6f" x="1804.980469"/>
    <use xlink:href="#DejaVuSans-6d" x="1866.162109"/>
    <use xlink:href="#DejaVuSans-20" x="1963.574219"/>
    <use xlink:href="#DejaVuSans-65" x="1995.361328"/>
    <use xlink:href="#DejaVuSans-70" x="2056.884766"/>
    <use xlink:href="#DejaVuSans-73" x="2120.361328"/>
    <use xlink:href="#DejaVuSans-69" x="2172.460938"/>
    <use xlink:href="#DejaVuSans-6c" x="2200.244141"/>
    <use xlink:href="#DejaVuSans-6f" x="2228.027344"/>
    <use xlink:href="#DejaVuSans-6e" x="2289.208984"/>
    <use xlink:href="#DejaVuSans-20" x="2352.587891"/>
    <use xlink:href="#DejaVuSans-6d" x="2384.375"/>
    <use xlink:href="#DejaVuSans-61" x="2481.787109"/>
    <use xlink:href="#DejaVuSans-74" x="2543.066406"/>
    <use xlink:href="#DejaVuSans-63" x="2582.275391"/>
    <use xlink:href="#DejaVuSans-68" x="2637.255859"/>
    <use xlink:href="#DejaVuSans-65" x="2700.634766"/>
    <use xlink:href="#DejaVuSans-73" x="2762.158203"/>
    <use xlink:href="#DejaVuSans-3f" x="2814.257812"/>
   </g>
  </g>
 </g>
 <defs>
  <clipPath id="p016e13b5d5">
   <rect x="45.642428" y="38.428064" width="455.357333" height="224.054749"/>
  </clipPath>
  <clipPath id="p5b8ddd825f">
   <rect x="45.642428" y="316.653136" width="455.357333" height="224.054749"/>
  </clipPath>
 </defs>
</svg>
