<?xml version="1.0" encoding="utf-8" standalone="no"?>
<!DOCTYPE svg PUBLIC "-//W3C//DTD SVG 1.1//EN"
  "http://www.w3.org/Graphics/SVG/1.1/DTD/svg11.dtd">
<svg xmlns:xlink="http://www.w3.org/1999/xlink" width="504pt" height="576pt" viewBox="0 0 504 576" xmlns="http://www.w3.org/2000/svg" version="1.1">
 <metadata>
  <rdf:RDF xmlns:dc="http://purl.org/dc/elements/1.1/" xmlns:cc="http://creativecommons.org/ns#" xmlns:rdf="http://www.w3.org/1999/02/22-rdf-syntax-ns#">
   <cc:Work>
    <dc:type rdf:resource="http://purl.org/dc/dcmitype/StillImage"/>
    <dc:date>2025-05-13T10:59:20.474811</dc:date>
    <dc:format>image/svg+xml</dc:format>
    <dc:creator>
     <cc:Agent>
      <dc:title>Matplotlib v3.8.4, https://matplotlib.org/</dc:title>
     </cc:Agent>
    </dc:creator>
   </cc:Work>
  </rdf:RDF>
 </metadata>
 <defs>
  <style type="text/css">*{stroke-linejoin: round; stroke-linecap: butt}</style>
 </defs>
 <g id="figure_1">
  <g id="patch_1">
   <path d="M 0 576 
L 504 576 
L 504 0 
L 0 0 
z
" style="fill: #ffffff"/>
  </g>
  <g id="axes_1">
   <g id="patch_2">
    <path d="M 38.643678 262.482812 
L 500.99976 262.482812 
L 500.99976 38.428064 
L 38.643678 38.428064 
z
" style="fill: #ffffff"/>
   </g>
   <g id="patch_3">
    <path d="M 59.659863 262.482812 
L 66.373649 262.482812 
L 66.373649 248.479391 
L 59.659863 248.479391 
z
" clip-path="url(#pa3252bfc7e)" style="fill: #e41a1c"/>
   </g>
   <g id="patch_4">
    <path d="M 80.00467 262.482812 
L 86.718456 262.482812 
L 86.718456 262.482812 
L 80.00467 262.482812 
z
" clip-path="url(#pa3252bfc7e)" style="fill: #e41a1c"/>
   </g>
   <g id="patch_5">
    <path d="M 100.349477 262.482812 
L 107.063263 262.482812 
L 107.063263 245.678706 
L 100.349477 245.678706 
z
" clip-path="url(#pa3252bfc7e)" style="fill: #e41a1c"/>
   </g>
   <g id="patch_6">
    <path d="M 120.694284 262.482812 
L 127.40807 262.482812 
L 127.40807 259.682128 
L 120.694284 259.682128 
z
" clip-path="url(#pa3252bfc7e)" style="fill: #e41a1c"/>
   </g>
   <g id="patch_7">
    <path d="M 141.039091 262.482812 
L 147.752877 262.482812 
L 147.752877 262.482812 
L 141.039091 262.482812 
z
" clip-path="url(#pa3252bfc7e)" style="fill: #e41a1c"/>
   </g>
   <g id="patch_8">
    <path d="M 161.383898 262.482812 
L 168.097684 262.482812 
L 168.097684 262.482812 
L 161.383898 262.482812 
z
" clip-path="url(#pa3252bfc7e)" style="fill: #e41a1c"/>
   </g>
   <g id="patch_9">
    <path d="M 181.728705 262.482812 
L 188.442491 262.482812 
L 188.442491 245.678706 
L 181.728705 245.678706 
z
" clip-path="url(#pa3252bfc7e)" style="fill: #e41a1c"/>
   </g>
   <g id="patch_10">
    <path d="M 202.073512 262.482812 
L 208.787298 262.482812 
L 208.787298 262.482812 
L 202.073512 262.482812 
z
" clip-path="url(#pa3252bfc7e)" style="fill: #e41a1c"/>
   </g>
   <g id="patch_11">
    <path d="M 222.418319 262.482812 
L 229.132105 262.482812 
L 229.132105 262.482812 
L 222.418319 262.482812 
z
" clip-path="url(#pa3252bfc7e)" style="fill: #e41a1c"/>
   </g>
   <g id="patch_12">
    <path d="M 242.763126 262.482812 
L 249.476912 262.482812 
L 249.476912 262.482812 
L 242.763126 262.482812 
z
" clip-path="url(#pa3252bfc7e)" style="fill: #e41a1c"/>
   </g>
   <g id="patch_13">
    <path d="M 263.107932 262.482812 
L 269.821719 262.482812 
L 269.821719 262.482812 
L 263.107932 262.482812 
z
" clip-path="url(#pa3252bfc7e)" style="fill: #e41a1c"/>
   </g>
   <g id="patch_14">
    <path d="M 283.452739 262.482812 
L 290.166526 262.482812 
L 290.166526 262.482812 
L 283.452739 262.482812 
z
" clip-path="url(#pa3252bfc7e)" style="fill: #e41a1c"/>
   </g>
   <g id="patch_15">
    <path d="M 303.797546 262.482812 
L 310.511333 262.482812 
L 310.511333 262.482812 
L 303.797546 262.482812 
z
" clip-path="url(#pa3252bfc7e)" style="fill: #e41a1c"/>
   </g>
   <g id="patch_16">
    <path d="M 324.142353 262.482812 
L 330.85614 262.482812 
L 330.85614 245.678706 
L 324.142353 245.678706 
z
" clip-path="url(#pa3252bfc7e)" style="fill: #e41a1c"/>
   </g>
   <g id="patch_17">
    <path d="M 344.48716 262.482812 
L 351.200947 262.482812 
L 351.200947 245.678706 
L 344.48716 245.678706 
z
" clip-path="url(#pa3252bfc7e)" style="fill: #e41a1c"/>
   </g>
   <g id="patch_18">
    <path d="M 364.831967 262.482812 
L 371.545753 262.482812 
L 371.545753 262.482812 
L 364.831967 262.482812 
z
" clip-path="url(#pa3252bfc7e)" style="fill: #e41a1c"/>
   </g>
   <g id="patch_19">
    <path d="M 385.176774 262.482812 
L 391.89056 262.482812 
L 391.89056 262.482812 
L 385.176774 262.482812 
z
" clip-path="url(#pa3252bfc7e)" style="fill: #e41a1c"/>
   </g>
   <g id="patch_20">
    <path d="M 405.521581 262.482812 
L 412.235367 262.482812 
L 412.235367 262.482812 
L 405.521581 262.482812 
z
" clip-path="url(#pa3252bfc7e)" style="fill: #e41a1c"/>
   </g>
   <g id="patch_21">
    <path d="M 425.866388 262.482812 
L 432.580174 262.482812 
L 432.580174 262.482812 
L 425.866388 262.482812 
z
" clip-path="url(#pa3252bfc7e)" style="fill: #e41a1c"/>
   </g>
   <g id="patch_22">
    <path d="M 446.211195 262.482812 
L 452.924981 262.482812 
L 452.924981 262.482812 
L 446.211195 262.482812 
z
" clip-path="url(#pa3252bfc7e)" style="fill: #e41a1c"/>
   </g>
   <g id="patch_23">
    <path d="M 466.556002 262.482812 
L 473.269788 262.482812 
L 473.269788 262.482812 
L 466.556002 262.482812 
z
" clip-path="url(#pa3252bfc7e)" style="fill: #e41a1c"/>
   </g>
   <g id="patch_24">
    <path d="M 66.373649 262.482812 
L 73.087436 262.482812 
L 73.087436 150.455438 
L 66.373649 150.455438 
z
" clip-path="url(#pa3252bfc7e)" style="fill: #999999"/>
   </g>
   <g id="patch_25">
    <path d="M 86.718456 262.482812 
L 93.432243 262.482812 
L 93.432243 130.850648 
L 86.718456 130.850648 
z
" clip-path="url(#pa3252bfc7e)" style="fill: #999999"/>
   </g>
   <g id="patch_26">
    <path d="M 107.063263 262.482812 
L 113.77705 262.482812 
L 113.77705 186.864335 
L 107.063263 186.864335 
z
" clip-path="url(#pa3252bfc7e)" style="fill: #999999"/>
   </g>
   <g id="patch_27">
    <path d="M 127.40807 262.482812 
L 134.121856 262.482812 
L 134.121856 226.073916 
L 127.40807 226.073916 
z
" clip-path="url(#pa3252bfc7e)" style="fill: #999999"/>
   </g>
   <g id="patch_28">
    <path d="M 147.752877 262.482812 
L 154.466663 262.482812 
L 154.466663 203.668441 
L 147.752877 203.668441 
z
" clip-path="url(#pa3252bfc7e)" style="fill: #999999"/>
   </g>
   <g id="patch_29">
    <path d="M 168.097684 262.482812 
L 174.81147 262.482812 
L 174.81147 217.671863 
L 168.097684 217.671863 
z
" clip-path="url(#pa3252bfc7e)" style="fill: #999999"/>
   </g>
   <g id="patch_30">
    <path d="M 188.442491 262.482812 
L 195.156277 262.482812 
L 195.156277 212.070494 
L 188.442491 212.070494 
z
" clip-path="url(#pa3252bfc7e)" style="fill: #999999"/>
   </g>
   <g id="patch_31">
    <path d="M 208.787298 262.482812 
L 215.501084 262.482812 
L 215.501084 217.671863 
L 208.787298 217.671863 
z
" clip-path="url(#pa3252bfc7e)" style="fill: #999999"/>
   </g>
   <g id="patch_32">
    <path d="M 229.132105 262.482812 
L 235.845891 262.482812 
L 235.845891 175.661597 
L 229.132105 175.661597 
z
" clip-path="url(#pa3252bfc7e)" style="fill: #999999"/>
   </g>
   <g id="patch_33">
    <path d="M 249.476912 262.482812 
L 256.190698 262.482812 
L 256.190698 184.06365 
L 249.476912 184.06365 
z
" clip-path="url(#pa3252bfc7e)" style="fill: #999999"/>
   </g>
   <g id="patch_34">
    <path d="M 269.821719 262.482812 
L 276.535505 262.482812 
L 276.535505 186.864335 
L 269.821719 186.864335 
z
" clip-path="url(#pa3252bfc7e)" style="fill: #999999"/>
   </g>
   <g id="patch_35">
    <path d="M 290.166526 262.482812 
L 296.880312 262.482812 
L 296.880312 147.654754 
L 290.166526 147.654754 
z
" clip-path="url(#pa3252bfc7e)" style="fill: #999999"/>
   </g>
   <g id="patch_36">
    <path d="M 310.511333 262.482812 
L 317.225119 262.482812 
L 317.225119 111.245857 
L 310.511333 111.245857 
z
" clip-path="url(#pa3252bfc7e)" style="fill: #999999"/>
   </g>
   <g id="patch_37">
    <path d="M 330.85614 262.482812 
L 337.569926 262.482812 
L 337.569926 212.070494 
L 330.85614 212.070494 
z
" clip-path="url(#pa3252bfc7e)" style="fill: #999999"/>
   </g>
   <g id="patch_38">
    <path d="M 351.200947 262.482812 
L 357.914733 262.482812 
L 357.914733 55.23217 
L 351.200947 55.23217 
z
" clip-path="url(#pa3252bfc7e)" style="fill: #999999"/>
   </g>
   <g id="patch_39">
    <path d="M 371.545753 262.482812 
L 378.25954 262.482812 
L 378.25954 133.651332 
L 371.545753 133.651332 
z
" clip-path="url(#pa3252bfc7e)" style="fill: #999999"/>
   </g>
   <g id="patch_40">
    <path d="M 391.89056 262.482812 
L 398.604347 262.482812 
L 398.604347 189.665019 
L 391.89056 189.665019 
z
" clip-path="url(#pa3252bfc7e)" style="fill: #999999"/>
   </g>
   <g id="patch_41">
    <path d="M 412.235367 262.482812 
L 418.949154 262.482812 
L 418.949154 206.469125 
L 412.235367 206.469125 
z
" clip-path="url(#pa3252bfc7e)" style="fill: #999999"/>
   </g>
   <g id="patch_42">
    <path d="M 432.580174 262.482812 
L 439.293961 262.482812 
L 439.293961 139.252701 
L 432.580174 139.252701 
z
" clip-path="url(#pa3252bfc7e)" style="fill: #999999"/>
   </g>
   <g id="patch_43">
    <path d="M 452.924981 262.482812 
L 459.638767 262.482812 
L 459.638767 105.644488 
L 452.924981 105.644488 
z
" clip-path="url(#pa3252bfc7e)" style="fill: #999999"/>
   </g>
   <g id="patch_44">
    <path d="M 473.269788 262.482812 
L 479.983574 262.482812 
L 479.983574 254.080759 
L 473.269788 254.080759 
z
" clip-path="url(#pa3252bfc7e)" style="fill: #999999"/>
   </g>
   <g id="matplotlib.axis_1">
    <g id="xtick_1">
     <g id="line2d_1">
      <defs>
       <path id="mdd7d3c8831" d="M 0 0 
L 0 3.5 
" style="stroke: #000000; stroke-width: 0.8"/>
      </defs>
      <g>
       <use xlink:href="#mdd7d3c8831" x="63.016756" y="262.482812" style="stroke: #000000; stroke-width: 0.8"/>
      </g>
     </g>
     <g id="text_1">
      <!-- 1 -->
      <g transform="translate(59.517381 277.841094) scale(0.11 -0.11)">
       <defs>
        <path id="DejaVuSans-31" d="M 794 531 
L 1825 531 
L 1825 4091 
L 703 3866 
L 703 4441 
L 1819 4666 
L 2450 4666 
L 2450 531 
L 3481 531 
L 3481 0 
L 794 0 
L 794 531 
z
" transform="scale(0.015625)"/>
       </defs>
       <use xlink:href="#DejaVuSans-31"/>
      </g>
     </g>
    </g>
    <g id="xtick_2">
     <g id="line2d_2">
      <g>
       <use xlink:href="#mdd7d3c8831" x="83.361563" y="262.482812" style="stroke: #000000; stroke-width: 0.8"/>
      </g>
     </g>
     <g id="text_2">
      <!-- 2 -->
      <g transform="translate(79.862188 277.841094) scale(0.11 -0.11)">
       <defs>
        <path id="DejaVuSans-32" d="M 1228 531 
L 3431 531 
L 3431 0 
L 469 0 
L 469 531 
Q 828 903 1448 1529 
Q 2069 2156 2228 2338 
Q 2531 2678 2651 2914 
Q 2772 3150 2772 3378 
Q 2772 3750 2511 3984 
Q 2250 4219 1831 4219 
Q 1534 4219 1204 4116 
Q 875 4013 500 3803 
L 500 4441 
Q 881 4594 1212 4672 
Q 1544 4750 1819 4750 
Q 2544 4750 2975 4387 
Q 3406 4025 3406 3419 
Q 3406 3131 3298 2873 
Q 3191 2616 2906 2266 
Q 2828 2175 2409 1742 
Q 1991 1309 1228 531 
z
" transform="scale(0.015625)"/>
       </defs>
       <use xlink:href="#DejaVuSans-32"/>
      </g>
     </g>
    </g>
    <g id="xtick_3">
     <g id="line2d_3">
      <g>
       <use xlink:href="#mdd7d3c8831" x="103.70637" y="262.482812" style="stroke: #000000; stroke-width: 0.8"/>
      </g>
     </g>
     <g id="text_3">
      <!-- 3 -->
      <g transform="translate(100.206995 277.841094) scale(0.11 -0.11)">
       <defs>
        <path id="DejaVuSans-33" d="M 2597 2516 
Q 3050 2419 3304 2112 
Q 3559 1806 3559 1356 
Q 3559 666 3084 287 
Q 2609 -91 1734 -91 
Q 1441 -91 1130 -33 
Q 819 25 488 141 
L 488 750 
Q 750 597 1062 519 
Q 1375 441 1716 441 
Q 2309 441 2620 675 
Q 2931 909 2931 1356 
Q 2931 1769 2642 2001 
Q 2353 2234 1838 2234 
L 1294 2234 
L 1294 2753 
L 1863 2753 
Q 2328 2753 2575 2939 
Q 2822 3125 2822 3475 
Q 2822 3834 2567 4026 
Q 2313 4219 1838 4219 
Q 1578 4219 1281 4162 
Q 984 4106 628 3988 
L 628 4550 
Q 988 4650 1302 4700 
Q 1616 4750 1894 4750 
Q 2613 4750 3031 4423 
Q 3450 4097 3450 3541 
Q 3450 3153 3228 2886 
Q 3006 2619 2597 2516 
z
" transform="scale(0.015625)"/>
       </defs>
       <use xlink:href="#DejaVuSans-33"/>
      </g>
     </g>
    </g>
    <g id="xtick_4">
     <g id="line2d_4">
      <g>
       <use xlink:href="#mdd7d3c8831" x="124.051177" y="262.482812" style="stroke: #000000; stroke-width: 0.8"/>
      </g>
     </g>
     <g id="text_4">
      <!-- 4 -->
      <g transform="translate(120.551802 277.841094) scale(0.11 -0.11)">
       <defs>
        <path id="DejaVuSans-34" d="M 2419 4116 
L 825 1625 
L 2419 1625 
L 2419 4116 
z
M 2253 4666 
L 3047 4666 
L 3047 1625 
L 3713 1625 
L 3713 1100 
L 3047 1100 
L 3047 0 
L 2419 0 
L 2419 1100 
L 313 1100 
L 313 1709 
L 2253 4666 
z
" transform="scale(0.015625)"/>
       </defs>
       <use xlink:href="#DejaVuSans-34"/>
      </g>
     </g>
    </g>
    <g id="xtick_5">
     <g id="line2d_5">
      <g>
       <use xlink:href="#mdd7d3c8831" x="144.395984" y="262.482812" style="stroke: #000000; stroke-width: 0.8"/>
      </g>
     </g>
     <g id="text_5">
      <!-- 5 -->
      <g transform="translate(140.896609 277.841094) scale(0.11 -0.11)">
       <defs>
        <path id="DejaVuSans-35" d="M 691 4666 
L 3169 4666 
L 3169 4134 
L 1269 4134 
L 1269 2991 
Q 1406 3038 1543 3061 
Q 1681 3084 1819 3084 
Q 2600 3084 3056 2656 
Q 3513 2228 3513 1497 
Q 3513 744 3044 326 
Q 2575 -91 1722 -91 
Q 1428 -91 1123 -41 
Q 819 9 494 109 
L 494 744 
Q 775 591 1075 516 
Q 1375 441 1709 441 
Q 2250 441 2565 725 
Q 2881 1009 2881 1497 
Q 2881 1984 2565 2268 
Q 2250 2553 1709 2553 
Q 1456 2553 1204 2497 
Q 953 2441 691 2322 
L 691 4666 
z
" transform="scale(0.015625)"/>
       </defs>
       <use xlink:href="#DejaVuSans-35"/>
      </g>
     </g>
    </g>
    <g id="xtick_6">
     <g id="line2d_6">
      <g>
       <use xlink:href="#mdd7d3c8831" x="164.740791" y="262.482812" style="stroke: #000000; stroke-width: 0.8"/>
      </g>
     </g>
     <g id="text_6">
      <!-- 6 -->
      <g transform="translate(161.241416 277.841094) scale(0.11 -0.11)">
       <defs>
        <path id="DejaVuSans-36" d="M 2113 2584 
Q 1688 2584 1439 2293 
Q 1191 2003 1191 1497 
Q 1191 994 1439 701 
Q 1688 409 2113 409 
Q 2538 409 2786 701 
Q 3034 994 3034 1497 
Q 3034 2003 2786 2293 
Q 2538 2584 2113 2584 
z
M 3366 4563 
L 3366 3988 
Q 3128 4100 2886 4159 
Q 2644 4219 2406 4219 
Q 1781 4219 1451 3797 
Q 1122 3375 1075 2522 
Q 1259 2794 1537 2939 
Q 1816 3084 2150 3084 
Q 2853 3084 3261 2657 
Q 3669 2231 3669 1497 
Q 3669 778 3244 343 
Q 2819 -91 2113 -91 
Q 1303 -91 875 529 
Q 447 1150 447 2328 
Q 447 3434 972 4092 
Q 1497 4750 2381 4750 
Q 2619 4750 2861 4703 
Q 3103 4656 3366 4563 
z
" transform="scale(0.015625)"/>
       </defs>
       <use xlink:href="#DejaVuSans-36"/>
      </g>
     </g>
    </g>
    <g id="xtick_7">
     <g id="line2d_7">
      <g>
       <use xlink:href="#mdd7d3c8831" x="185.085598" y="262.482812" style="stroke: #000000; stroke-width: 0.8"/>
      </g>
     </g>
     <g id="text_7">
      <!-- 7 -->
      <g transform="translate(181.586223 277.841094) scale(0.11 -0.11)">
       <defs>
        <path id="DejaVuSans-37" d="M 525 4666 
L 3525 4666 
L 3525 4397 
L 1831 0 
L 1172 0 
L 2766 4134 
L 525 4134 
L 525 4666 
z
" transform="scale(0.015625)"/>
       </defs>
       <use xlink:href="#DejaVuSans-37"/>
      </g>
     </g>
    </g>
    <g id="xtick_8">
     <g id="line2d_8">
      <g>
       <use xlink:href="#mdd7d3c8831" x="205.430405" y="262.482812" style="stroke: #000000; stroke-width: 0.8"/>
      </g>
     </g>
     <g id="text_8">
      <!-- 8 -->
      <g transform="translate(201.93103 277.841094) scale(0.11 -0.11)">
       <defs>
        <path id="DejaVuSans-38" d="M 2034 2216 
Q 1584 2216 1326 1975 
Q 1069 1734 1069 1313 
Q 1069 891 1326 650 
Q 1584 409 2034 409 
Q 2484 409 2743 651 
Q 3003 894 3003 1313 
Q 3003 1734 2745 1975 
Q 2488 2216 2034 2216 
z
M 1403 2484 
Q 997 2584 770 2862 
Q 544 3141 544 3541 
Q 544 4100 942 4425 
Q 1341 4750 2034 4750 
Q 2731 4750 3128 4425 
Q 3525 4100 3525 3541 
Q 3525 3141 3298 2862 
Q 3072 2584 2669 2484 
Q 3125 2378 3379 2068 
Q 3634 1759 3634 1313 
Q 3634 634 3220 271 
Q 2806 -91 2034 -91 
Q 1263 -91 848 271 
Q 434 634 434 1313 
Q 434 1759 690 2068 
Q 947 2378 1403 2484 
z
M 1172 3481 
Q 1172 3119 1398 2916 
Q 1625 2713 2034 2713 
Q 2441 2713 2670 2916 
Q 2900 3119 2900 3481 
Q 2900 3844 2670 4047 
Q 2441 4250 2034 4250 
Q 1625 4250 1398 4047 
Q 1172 3844 1172 3481 
z
" transform="scale(0.015625)"/>
       </defs>
       <use xlink:href="#DejaVuSans-38"/>
      </g>
     </g>
    </g>
    <g id="xtick_9">
     <g id="line2d_9">
      <g>
       <use xlink:href="#mdd7d3c8831" x="225.775212" y="262.482812" style="stroke: #000000; stroke-width: 0.8"/>
      </g>
     </g>
     <g id="text_9">
      <!-- 9 -->
      <g transform="translate(222.275837 277.841094) scale(0.11 -0.11)">
       <defs>
        <path id="DejaVuSans-39" d="M 703 97 
L 703 672 
Q 941 559 1184 500 
Q 1428 441 1663 441 
Q 2288 441 2617 861 
Q 2947 1281 2994 2138 
Q 2813 1869 2534 1725 
Q 2256 1581 1919 1581 
Q 1219 1581 811 2004 
Q 403 2428 403 3163 
Q 403 3881 828 4315 
Q 1253 4750 1959 4750 
Q 2769 4750 3195 4129 
Q 3622 3509 3622 2328 
Q 3622 1225 3098 567 
Q 2575 -91 1691 -91 
Q 1453 -91 1209 -44 
Q 966 3 703 97 
z
M 1959 2075 
Q 2384 2075 2632 2365 
Q 2881 2656 2881 3163 
Q 2881 3666 2632 3958 
Q 2384 4250 1959 4250 
Q 1534 4250 1286 3958 
Q 1038 3666 1038 3163 
Q 1038 2656 1286 2365 
Q 1534 2075 1959 2075 
z
" transform="scale(0.015625)"/>
       </defs>
       <use xlink:href="#DejaVuSans-39"/>
      </g>
     </g>
    </g>
    <g id="xtick_10">
     <g id="line2d_10">
      <g>
       <use xlink:href="#mdd7d3c8831" x="246.120019" y="262.482812" style="stroke: #000000; stroke-width: 0.8"/>
      </g>
     </g>
     <g id="text_10">
      <!-- 10 -->
      <g transform="translate(239.121269 277.841094) scale(0.11 -0.11)">
       <defs>
        <path id="DejaVuSans-30" d="M 2034 4250 
Q 1547 4250 1301 3770 
Q 1056 3291 1056 2328 
Q 1056 1369 1301 889 
Q 1547 409 2034 409 
Q 2525 409 2770 889 
Q 3016 1369 3016 2328 
Q 3016 3291 2770 3770 
Q 2525 4250 2034 4250 
z
M 2034 4750 
Q 2819 4750 3233 4129 
Q 3647 3509 3647 2328 
Q 3647 1150 3233 529 
Q 2819 -91 2034 -91 
Q 1250 -91 836 529 
Q 422 1150 422 2328 
Q 422 3509 836 4129 
Q 1250 4750 2034 4750 
z
" transform="scale(0.015625)"/>
       </defs>
       <use xlink:href="#DejaVuSans-31"/>
       <use xlink:href="#DejaVuSans-30" x="63.623047"/>
      </g>
     </g>
    </g>
    <g id="xtick_11">
     <g id="line2d_11">
      <g>
       <use xlink:href="#mdd7d3c8831" x="266.464826" y="262.482812" style="stroke: #000000; stroke-width: 0.8"/>
      </g>
     </g>
     <g id="text_11">
      <!-- 11 -->
      <g transform="translate(259.466076 277.841094) scale(0.11 -0.11)">
       <use xlink:href="#DejaVuSans-31"/>
       <use xlink:href="#DejaVuSans-31" x="63.623047"/>
      </g>
     </g>
    </g>
    <g id="xtick_12">
     <g id="line2d_12">
      <g>
       <use xlink:href="#mdd7d3c8831" x="286.809633" y="262.482812" style="stroke: #000000; stroke-width: 0.8"/>
      </g>
     </g>
     <g id="text_12">
      <!-- 12 -->
      <g transform="translate(279.810883 277.841094) scale(0.11 -0.11)">
       <use xlink:href="#DejaVuSans-31"/>
       <use xlink:href="#DejaVuSans-32" x="63.623047"/>
      </g>
     </g>
    </g>
    <g id="xtick_13">
     <g id="line2d_13">
      <g>
       <use xlink:href="#mdd7d3c8831" x="307.154439" y="262.482812" style="stroke: #000000; stroke-width: 0.8"/>
      </g>
     </g>
     <g id="text_13">
      <!-- 13 -->
      <g transform="translate(300.155689 277.841094) scale(0.11 -0.11)">
       <use xlink:href="#DejaVuSans-31"/>
       <use xlink:href="#DejaVuSans-33" x="63.623047"/>
      </g>
     </g>
    </g>
    <g id="xtick_14">
     <g id="line2d_14">
      <g>
       <use xlink:href="#mdd7d3c8831" x="327.499246" y="262.482812" style="stroke: #000000; stroke-width: 0.8"/>
      </g>
     </g>
     <g id="text_14">
      <!-- 14 -->
      <g transform="translate(320.500496 277.841094) scale(0.11 -0.11)">
       <use xlink:href="#DejaVuSans-31"/>
       <use xlink:href="#DejaVuSans-34" x="63.623047"/>
      </g>
     </g>
    </g>
    <g id="xtick_15">
     <g id="line2d_15">
      <g>
       <use xlink:href="#mdd7d3c8831" x="347.844053" y="262.482812" style="stroke: #000000; stroke-width: 0.8"/>
      </g>
     </g>
     <g id="text_15">
      <!-- 15 -->
      <g transform="translate(340.845303 277.841094) scale(0.11 -0.11)">
       <use xlink:href="#DejaVuSans-31"/>
       <use xlink:href="#DejaVuSans-35" x="63.623047"/>
      </g>
     </g>
    </g>
    <g id="xtick_16">
     <g id="line2d_16">
      <g>
       <use xlink:href="#mdd7d3c8831" x="368.18886" y="262.482812" style="stroke: #000000; stroke-width: 0.8"/>
      </g>
     </g>
     <g id="text_16">
      <!-- 16 -->
      <g transform="translate(361.19011 277.841094) scale(0.11 -0.11)">
       <use xlink:href="#DejaVuSans-31"/>
       <use xlink:href="#DejaVuSans-36" x="63.623047"/>
      </g>
     </g>
    </g>
    <g id="xtick_17">
     <g id="line2d_17">
      <g>
       <use xlink:href="#mdd7d3c8831" x="388.533667" y="262.482812" style="stroke: #000000; stroke-width: 0.8"/>
      </g>
     </g>
     <g id="text_17">
      <!-- 17 -->
      <g transform="translate(381.534917 277.841094) scale(0.11 -0.11)">
       <use xlink:href="#DejaVuSans-31"/>
       <use xlink:href="#DejaVuSans-37" x="63.623047"/>
      </g>
     </g>
    </g>
    <g id="xtick_18">
     <g id="line2d_18">
      <g>
       <use xlink:href="#mdd7d3c8831" x="408.878474" y="262.482812" style="stroke: #000000; stroke-width: 0.8"/>
      </g>
     </g>
     <g id="text_18">
      <!-- 18 -->
      <g transform="translate(401.879724 277.841094) scale(0.11 -0.11)">
       <use xlink:href="#DejaVuSans-31"/>
       <use xlink:href="#DejaVuSans-38" x="63.623047"/>
      </g>
     </g>
    </g>
    <g id="xtick_19">
     <g id="line2d_19">
      <g>
       <use xlink:href="#mdd7d3c8831" x="429.223281" y="262.482812" style="stroke: #000000; stroke-width: 0.8"/>
      </g>
     </g>
     <g id="text_19">
      <!-- 19 -->
      <g transform="translate(422.224531 277.841094) scale(0.11 -0.11)">
       <use xlink:href="#DejaVuSans-31"/>
       <use xlink:href="#DejaVuSans-39" x="63.623047"/>
      </g>
     </g>
    </g>
    <g id="xtick_20">
     <g id="line2d_20">
      <g>
       <use xlink:href="#mdd7d3c8831" x="449.568088" y="262.482812" style="stroke: #000000; stroke-width: 0.8"/>
      </g>
     </g>
     <g id="text_20">
      <!-- X -->
      <g transform="translate(445.800588 277.841094) scale(0.11 -0.11)">
       <defs>
        <path id="DejaVuSans-58" d="M 403 4666 
L 1081 4666 
L 2241 2931 
L 3406 4666 
L 4084 4666 
L 2584 2425 
L 4184 0 
L 3506 0 
L 2194 1984 
L 872 0 
L 191 0 
L 1856 2491 
L 403 4666 
z
" transform="scale(0.015625)"/>
       </defs>
       <use xlink:href="#DejaVuSans-58"/>
      </g>
     </g>
    </g>
    <g id="xtick_21">
     <g id="line2d_21">
      <g>
       <use xlink:href="#mdd7d3c8831" x="469.912895" y="262.482812" style="stroke: #000000; stroke-width: 0.8"/>
      </g>
     </g>
     <g id="text_21">
      <!-- Y -->
      <g transform="translate(466.553598 277.841094) scale(0.11 -0.11)">
       <defs>
        <path id="DejaVuSans-59" d="M -13 4666 
L 666 4666 
L 1959 2747 
L 3244 4666 
L 3922 4666 
L 2272 2222 
L 2272 0 
L 1638 0 
L 1638 2222 
L -13 4666 
z
" transform="scale(0.015625)"/>
       </defs>
       <use xlink:href="#DejaVuSans-59"/>
      </g>
     </g>
    </g>
    <g id="text_22">
     <!-- Mouse chr -->
     <g transform="translate(241.457188 292.487031) scale(0.11 -0.11)">
      <defs>
       <path id="DejaVuSans-4d" d="M 628 4666 
L 1569 4666 
L 2759 1491 
L 3956 4666 
L 4897 4666 
L 4897 0 
L 4281 0 
L 4281 4097 
L 3078 897 
L 2444 897 
L 1241 4097 
L 1241 0 
L 628 0 
L 628 4666 
z
" transform="scale(0.015625)"/>
       <path id="DejaVuSans-6f" d="M 1959 3097 
Q 1497 3097 1228 2736 
Q 959 2375 959 1747 
Q 959 1119 1226 758 
Q 1494 397 1959 397 
Q 2419 397 2687 759 
Q 2956 1122 2956 1747 
Q 2956 2369 2687 2733 
Q 2419 3097 1959 3097 
z
M 1959 3584 
Q 2709 3584 3137 3096 
Q 3566 2609 3566 1747 
Q 3566 888 3137 398 
Q 2709 -91 1959 -91 
Q 1206 -91 779 398 
Q 353 888 353 1747 
Q 353 2609 779 3096 
Q 1206 3584 1959 3584 
z
" transform="scale(0.015625)"/>
       <path id="DejaVuSans-75" d="M 544 1381 
L 544 3500 
L 1119 3500 
L 1119 1403 
Q 1119 906 1312 657 
Q 1506 409 1894 409 
Q 2359 409 2629 706 
Q 2900 1003 2900 1516 
L 2900 3500 
L 3475 3500 
L 3475 0 
L 2900 0 
L 2900 538 
Q 2691 219 2414 64 
Q 2138 -91 1772 -91 
Q 1169 -91 856 284 
Q 544 659 544 1381 
z
M 1991 3584 
L 1991 3584 
z
" transform="scale(0.015625)"/>
       <path id="DejaVuSans-73" d="M 2834 3397 
L 2834 2853 
Q 2591 2978 2328 3040 
Q 2066 3103 1784 3103 
Q 1356 3103 1142 2972 
Q 928 2841 928 2578 
Q 928 2378 1081 2264 
Q 1234 2150 1697 2047 
L 1894 2003 
Q 2506 1872 2764 1633 
Q 3022 1394 3022 966 
Q 3022 478 2636 193 
Q 2250 -91 1575 -91 
Q 1294 -91 989 -36 
Q 684 19 347 128 
L 347 722 
Q 666 556 975 473 
Q 1284 391 1588 391 
Q 1994 391 2212 530 
Q 2431 669 2431 922 
Q 2431 1156 2273 1281 
Q 2116 1406 1581 1522 
L 1381 1569 
Q 847 1681 609 1914 
Q 372 2147 372 2553 
Q 372 3047 722 3315 
Q 1072 3584 1716 3584 
Q 2034 3584 2315 3537 
Q 2597 3491 2834 3397 
z
" transform="scale(0.015625)"/>
       <path id="DejaVuSans-65" d="M 3597 1894 
L 3597 1613 
L 953 1613 
Q 991 1019 1311 708 
Q 1631 397 2203 397 
Q 2534 397 2845 478 
Q 3156 559 3463 722 
L 3463 178 
Q 3153 47 2828 -22 
Q 2503 -91 2169 -91 
Q 1331 -91 842 396 
Q 353 884 353 1716 
Q 353 2575 817 3079 
Q 1281 3584 2069 3584 
Q 2775 3584 3186 3129 
Q 3597 2675 3597 1894 
z
M 3022 2063 
Q 3016 2534 2758 2815 
Q 2500 3097 2075 3097 
Q 1594 3097 1305 2825 
Q 1016 2553 972 2059 
L 3022 2063 
z
" transform="scale(0.015625)"/>
       <path id="DejaVuSans-20" transform="scale(0.015625)"/>
       <path id="DejaVuSans-63" d="M 3122 3366 
L 3122 2828 
Q 2878 2963 2633 3030 
Q 2388 3097 2138 3097 
Q 1578 3097 1268 2742 
Q 959 2388 959 1747 
Q 959 1106 1268 751 
Q 1578 397 2138 397 
Q 2388 397 2633 464 
Q 2878 531 3122 666 
L 3122 134 
Q 2881 22 2623 -34 
Q 2366 -91 2075 -91 
Q 1284 -91 818 406 
Q 353 903 353 1747 
Q 353 2603 823 3093 
Q 1294 3584 2113 3584 
Q 2378 3584 2631 3529 
Q 2884 3475 3122 3366 
z
" transform="scale(0.015625)"/>
       <path id="DejaVuSans-68" d="M 3513 2113 
L 3513 0 
L 2938 0 
L 2938 2094 
Q 2938 2591 2744 2837 
Q 2550 3084 2163 3084 
Q 1697 3084 1428 2787 
Q 1159 2491 1159 1978 
L 1159 0 
L 581 0 
L 581 4863 
L 1159 4863 
L 1159 2956 
Q 1366 3272 1645 3428 
Q 1925 3584 2291 3584 
Q 2894 3584 3203 3211 
Q 3513 2838 3513 2113 
z
" transform="scale(0.015625)"/>
       <path id="DejaVuSans-72" d="M 2631 2963 
Q 2534 3019 2420 3045 
Q 2306 3072 2169 3072 
Q 1681 3072 1420 2755 
Q 1159 2438 1159 1844 
L 1159 0 
L 581 0 
L 581 3500 
L 1159 3500 
L 1159 2956 
Q 1341 3275 1631 3429 
Q 1922 3584 2338 3584 
Q 2397 3584 2469 3576 
Q 2541 3569 2628 3553 
L 2631 2963 
z
" transform="scale(0.015625)"/>
      </defs>
      <use xlink:href="#DejaVuSans-4d"/>
      <use xlink:href="#DejaVuSans-6f" x="86.279297"/>
      <use xlink:href="#DejaVuSans-75" x="147.460938"/>
      <use xlink:href="#DejaVuSans-73" x="210.839844"/>
      <use xlink:href="#DejaVuSans-65" x="262.939453"/>
      <use xlink:href="#DejaVuSans-20" x="324.462891"/>
      <use xlink:href="#DejaVuSans-63" x="356.25"/>
      <use xlink:href="#DejaVuSans-68" x="411.230469"/>
      <use xlink:href="#DejaVuSans-72" x="474.609375"/>
     </g>
    </g>
   </g>
   <g id="matplotlib.axis_2">
    <g id="ytick_1">
     <g id="line2d_22">
      <defs>
       <path id="m4998c633ca" d="M 0 0 
L -3.5 0 
" style="stroke: #000000; stroke-width: 0.8"/>
      </defs>
      <g>
       <use xlink:href="#m4998c633ca" x="38.643678" y="262.482812" style="stroke: #000000; stroke-width: 0.8"/>
      </g>
     </g>
     <g id="text_23">
      <!-- 0 -->
      <g transform="translate(24.644928 266.661953) scale(0.11 -0.11)">
       <use xlink:href="#DejaVuSans-30"/>
      </g>
     </g>
    </g>
    <g id="ytick_2">
     <g id="line2d_23">
      <g>
       <use xlink:href="#m4998c633ca" x="38.643678" y="234.475969" style="stroke: #000000; stroke-width: 0.8"/>
      </g>
     </g>
     <g id="text_24">
      <!-- 10 -->
      <g transform="translate(17.646178 238.65511) scale(0.11 -0.11)">
       <use xlink:href="#DejaVuSans-31"/>
       <use xlink:href="#DejaVuSans-30" x="63.623047"/>
      </g>
     </g>
    </g>
    <g id="ytick_3">
     <g id="line2d_24">
      <g>
       <use xlink:href="#m4998c633ca" x="38.643678" y="206.469125" style="stroke: #000000; stroke-width: 0.8"/>
      </g>
     </g>
     <g id="text_25">
      <!-- 20 -->
      <g transform="translate(17.646178 210.648266) scale(0.11 -0.11)">
       <use xlink:href="#DejaVuSans-32"/>
       <use xlink:href="#DejaVuSans-30" x="63.623047"/>
      </g>
     </g>
    </g>
    <g id="ytick_4">
     <g id="line2d_25">
      <g>
       <use xlink:href="#m4998c633ca" x="38.643678" y="178.462282" style="stroke: #000000; stroke-width: 0.8"/>
      </g>
     </g>
     <g id="text_26">
      <!-- 30 -->
      <g transform="translate(17.646178 182.641422) scale(0.11 -0.11)">
       <use xlink:href="#DejaVuSans-33"/>
       <use xlink:href="#DejaVuSans-30" x="63.623047"/>
      </g>
     </g>
    </g>
    <g id="ytick_5">
     <g id="line2d_26">
      <g>
       <use xlink:href="#m4998c633ca" x="38.643678" y="150.455438" style="stroke: #000000; stroke-width: 0.8"/>
      </g>
     </g>
     <g id="text_27">
      <!-- 40 -->
      <g transform="translate(17.646178 154.634579) scale(0.11 -0.11)">
       <use xlink:href="#DejaVuSans-34"/>
       <use xlink:href="#DejaVuSans-30" x="63.623047"/>
      </g>
     </g>
    </g>
    <g id="ytick_6">
     <g id="line2d_27">
      <g>
       <use xlink:href="#m4998c633ca" x="38.643678" y="122.448595" style="stroke: #000000; stroke-width: 0.8"/>
      </g>
     </g>
     <g id="text_28">
      <!-- 50 -->
      <g transform="translate(17.646178 126.627735) scale(0.11 -0.11)">
       <use xlink:href="#DejaVuSans-35"/>
       <use xlink:href="#DejaVuSans-30" x="63.623047"/>
      </g>
     </g>
    </g>
    <g id="ytick_7">
     <g id="line2d_28">
      <g>
       <use xlink:href="#m4998c633ca" x="38.643678" y="94.441751" style="stroke: #000000; stroke-width: 0.8"/>
      </g>
     </g>
     <g id="text_29">
      <!-- 60 -->
      <g transform="translate(17.646178 98.620892) scale(0.11 -0.11)">
       <use xlink:href="#DejaVuSans-36"/>
       <use xlink:href="#DejaVuSans-30" x="63.623047"/>
      </g>
     </g>
    </g>
    <g id="ytick_8">
     <g id="line2d_29">
      <g>
       <use xlink:href="#m4998c633ca" x="38.643678" y="66.434907" style="stroke: #000000; stroke-width: 0.8"/>
      </g>
     </g>
     <g id="text_30">
      <!-- 70 -->
      <g transform="translate(17.646178 70.614048) scale(0.11 -0.11)">
       <use xlink:href="#DejaVuSans-37"/>
       <use xlink:href="#DejaVuSans-30" x="63.623047"/>
      </g>
     </g>
    </g>
    <g id="ytick_9">
     <g id="line2d_30">
      <g>
       <use xlink:href="#m4998c633ca" x="38.643678" y="38.428064" style="stroke: #000000; stroke-width: 0.8"/>
      </g>
     </g>
     <g id="text_31">
      <!-- 80 -->
      <g transform="translate(17.646178 42.607204) scale(0.11 -0.11)">
       <use xlink:href="#DejaVuSans-38"/>
       <use xlink:href="#DejaVuSans-30" x="63.623047"/>
      </g>
     </g>
    </g>
    <g id="text_32">
     <!-- Matches in fly -->
     <g transform="translate(11.358521 188.715672) rotate(-90) scale(0.11 -0.11)">
      <defs>
       <path id="DejaVuSans-61" d="M 2194 1759 
Q 1497 1759 1228 1600 
Q 959 1441 959 1056 
Q 959 750 1161 570 
Q 1363 391 1709 391 
Q 2188 391 2477 730 
Q 2766 1069 2766 1631 
L 2766 1759 
L 2194 1759 
z
M 3341 1997 
L 3341 0 
L 2766 0 
L 2766 531 
Q 2569 213 2275 61 
Q 1981 -91 1556 -91 
Q 1019 -91 701 211 
Q 384 513 384 1019 
Q 384 1609 779 1909 
Q 1175 2209 1959 2209 
L 2766 2209 
L 2766 2266 
Q 2766 2663 2505 2880 
Q 2244 3097 1772 3097 
Q 1472 3097 1187 3025 
Q 903 2953 641 2809 
L 641 3341 
Q 956 3463 1253 3523 
Q 1550 3584 1831 3584 
Q 2591 3584 2966 3190 
Q 3341 2797 3341 1997 
z
" transform="scale(0.015625)"/>
       <path id="DejaVuSans-74" d="M 1172 4494 
L 1172 3500 
L 2356 3500 
L 2356 3053 
L 1172 3053 
L 1172 1153 
Q 1172 725 1289 603 
Q 1406 481 1766 481 
L 2356 481 
L 2356 0 
L 1766 0 
Q 1100 0 847 248 
Q 594 497 594 1153 
L 594 3053 
L 172 3053 
L 172 3500 
L 594 3500 
L 594 4494 
L 1172 4494 
z
" transform="scale(0.015625)"/>
       <path id="DejaVuSans-69" d="M 603 3500 
L 1178 3500 
L 1178 0 
L 603 0 
L 603 3500 
z
M 603 4863 
L 1178 4863 
L 1178 4134 
L 603 4134 
L 603 4863 
z
" transform="scale(0.015625)"/>
       <path id="DejaVuSans-6e" d="M 3513 2113 
L 3513 0 
L 2938 0 
L 2938 2094 
Q 2938 2591 2744 2837 
Q 2550 3084 2163 3084 
Q 1697 3084 1428 2787 
Q 1159 2491 1159 1978 
L 1159 0 
L 581 0 
L 581 3500 
L 1159 3500 
L 1159 2956 
Q 1366 3272 1645 3428 
Q 1925 3584 2291 3584 
Q 2894 3584 3203 3211 
Q 3513 2838 3513 2113 
z
" transform="scale(0.015625)"/>
       <path id="DejaVuSans-66" d="M 2375 4863 
L 2375 4384 
L 1825 4384 
Q 1516 4384 1395 4259 
Q 1275 4134 1275 3809 
L 1275 3500 
L 2222 3500 
L 2222 3053 
L 1275 3053 
L 1275 0 
L 697 0 
L 697 3053 
L 147 3053 
L 147 3500 
L 697 3500 
L 697 3744 
Q 697 4328 969 4595 
Q 1241 4863 1831 4863 
L 2375 4863 
z
" transform="scale(0.015625)"/>
       <path id="DejaVuSans-6c" d="M 603 4863 
L 1178 4863 
L 1178 0 
L 603 0 
L 603 4863 
z
" transform="scale(0.015625)"/>
       <path id="DejaVuSans-79" d="M 2059 -325 
Q 1816 -950 1584 -1140 
Q 1353 -1331 966 -1331 
L 506 -1331 
L 506 -850 
L 844 -850 
Q 1081 -850 1212 -737 
Q 1344 -625 1503 -206 
L 1606 56 
L 191 3500 
L 800 3500 
L 1894 763 
L 2988 3500 
L 3597 3500 
L 2059 -325 
z
" transform="scale(0.015625)"/>
      </defs>
      <use xlink:href="#DejaVuSans-4d"/>
      <use xlink:href="#DejaVuSans-61" x="86.279297"/>
      <use xlink:href="#DejaVuSans-74" x="147.558594"/>
      <use xlink:href="#DejaVuSans-63" x="186.767578"/>
      <use xlink:href="#DejaVuSans-68" x="241.748047"/>
      <use xlink:href="#DejaVuSans-65" x="305.126953"/>
      <use xlink:href="#DejaVuSans-73" x="366.650391"/>
      <use xlink:href="#DejaVuSans-20" x="418.75"/>
      <use xlink:href="#DejaVuSans-69" x="450.537109"/>
      <use xlink:href="#DejaVuSans-6e" x="478.320312"/>
      <use xlink:href="#DejaVuSans-20" x="541.699219"/>
      <use xlink:href="#DejaVuSans-66" x="573.486328"/>
      <use xlink:href="#DejaVuSans-6c" x="608.691406"/>
      <use xlink:href="#DejaVuSans-79" x="636.474609"/>
     </g>
    </g>
   </g>
   <g id="patch_45">
    <path d="M 38.643678 262.482812 
L 38.643678 38.428064 
" style="fill: none; stroke: #000000; stroke-width: 0.8; stroke-linejoin: miter; stroke-linecap: square"/>
   </g>
   <g id="patch_46">
    <path d="M 500.99976 262.482812 
L 500.99976 38.428064 
" style="fill: none; stroke: #000000; stroke-width: 0.8; stroke-linejoin: miter; stroke-linecap: square"/>
   </g>
   <g id="patch_47">
    <path d="M 38.643678 262.482812 
L 500.99976 262.482812 
" style="fill: none; stroke: #000000; stroke-width: 0.8; stroke-linejoin: miter; stroke-linecap: square"/>
   </g>
   <g id="patch_48">
    <path d="M 38.643678 38.428064 
L 500.99976 38.428064 
" style="fill: none; stroke: #000000; stroke-width: 0.8; stroke-linejoin: miter; stroke-linecap: square"/>
   </g>
   <g id="text_33">
    <!-- Sensitive search (s=3) -->
    <g transform="translate(196.423516 32.428064) scale(0.13 -0.13)">
     <defs>
      <path id="DejaVuSans-53" d="M 3425 4513 
L 3425 3897 
Q 3066 4069 2747 4153 
Q 2428 4238 2131 4238 
Q 1616 4238 1336 4038 
Q 1056 3838 1056 3469 
Q 1056 3159 1242 3001 
Q 1428 2844 1947 2747 
L 2328 2669 
Q 3034 2534 3370 2195 
Q 3706 1856 3706 1288 
Q 3706 609 3251 259 
Q 2797 -91 1919 -91 
Q 1588 -91 1214 -16 
Q 841 59 441 206 
L 441 856 
Q 825 641 1194 531 
Q 1563 422 1919 422 
Q 2459 422 2753 634 
Q 3047 847 3047 1241 
Q 3047 1584 2836 1778 
Q 2625 1972 2144 2069 
L 1759 2144 
Q 1053 2284 737 2584 
Q 422 2884 422 3419 
Q 422 4038 858 4394 
Q 1294 4750 2059 4750 
Q 2388 4750 2728 4690 
Q 3069 4631 3425 4513 
z
" transform="scale(0.015625)"/>
      <path id="DejaVuSans-76" d="M 191 3500 
L 800 3500 
L 1894 563 
L 2988 3500 
L 3597 3500 
L 2284 0 
L 1503 0 
L 191 3500 
z
" transform="scale(0.015625)"/>
      <path id="DejaVuSans-28" d="M 1984 4856 
Q 1566 4138 1362 3434 
Q 1159 2731 1159 2009 
Q 1159 1288 1364 580 
Q 1569 -128 1984 -844 
L 1484 -844 
Q 1016 -109 783 600 
Q 550 1309 550 2009 
Q 550 2706 781 3412 
Q 1013 4119 1484 4856 
L 1984 4856 
z
" transform="scale(0.015625)"/>
      <path id="DejaVuSans-3d" d="M 678 2906 
L 4684 2906 
L 4684 2381 
L 678 2381 
L 678 2906 
z
M 678 1631 
L 4684 1631 
L 4684 1100 
L 678 1100 
L 678 1631 
z
" transform="scale(0.015625)"/>
      <path id="DejaVuSans-29" d="M 513 4856 
L 1013 4856 
Q 1481 4119 1714 3412 
Q 1947 2706 1947 2009 
Q 1947 1309 1714 600 
Q 1481 -109 1013 -844 
L 513 -844 
Q 928 -128 1133 580 
Q 1338 1288 1338 2009 
Q 1338 2731 1133 3434 
Q 928 4138 513 4856 
z
" transform="scale(0.015625)"/>
     </defs>
     <use xlink:href="#DejaVuSans-53"/>
     <use xlink:href="#DejaVuSans-65" x="63.476562"/>
     <use xlink:href="#DejaVuSans-6e" x="125"/>
     <use xlink:href="#DejaVuSans-73" x="188.378906"/>
     <use xlink:href="#DejaVuSans-69" x="240.478516"/>
     <use xlink:href="#DejaVuSans-74" x="268.261719"/>
     <use xlink:href="#DejaVuSans-69" x="307.470703"/>
     <use xlink:href="#DejaVuSans-76" x="335.253906"/>
     <use xlink:href="#DejaVuSans-65" x="394.433594"/>
     <use xlink:href="#DejaVuSans-20" x="455.957031"/>
     <use xlink:href="#DejaVuSans-73" x="487.744141"/>
     <use xlink:href="#DejaVuSans-65" x="539.84375"/>
     <use xlink:href="#DejaVuSans-61" x="601.367188"/>
     <use xlink:href="#DejaVuSans-72" x="662.646484"/>
     <use xlink:href="#DejaVuSans-63" x="701.509766"/>
     <use xlink:href="#DejaVuSans-68" x="756.490234"/>
     <use xlink:href="#DejaVuSans-20" x="819.869141"/>
     <use xlink:href="#DejaVuSans-28" x="851.65625"/>
     <use xlink:href="#DejaVuSans-73" x="890.669922"/>
     <use xlink:href="#DejaVuSans-3d" x="942.769531"/>
     <use xlink:href="#DejaVuSans-33" x="1026.558594"/>
     <use xlink:href="#DejaVuSans-29" x="1090.181641"/>
    </g>
   </g>
   <g id="legend_1">
    <g id="patch_49">
     <path d="M 47.043678 83.255564 
L 221.219928 83.255564 
Q 223.619928 83.255564 223.619928 80.855564 
L 223.619928 46.828064 
Q 223.619928 44.428064 221.219928 44.428064 
L 47.043678 44.428064 
Q 44.643678 44.428064 44.643678 46.828064 
L 44.643678 80.855564 
Q 44.643678 83.255564 47.043678 83.255564 
z
" style="fill: #ffffff; opacity: 0.8; stroke: #cccccc; stroke-linejoin: miter"/>
    </g>
    <g id="patch_50">
     <path d="M 49.443678 58.346189 
L 73.443678 58.346189 
L 73.443678 49.946189 
L 49.443678 49.946189 
z
" style="fill: #e41a1c"/>
    </g>
    <g id="text_34">
     <!-- missed eps (30) -->
     <g transform="translate(83.043678 58.346189) scale(0.12 -0.12)">
      <defs>
       <path id="DejaVuSans-6d" d="M 3328 2828 
Q 3544 3216 3844 3400 
Q 4144 3584 4550 3584 
Q 5097 3584 5394 3201 
Q 5691 2819 5691 2113 
L 5691 0 
L 5113 0 
L 5113 2094 
Q 5113 2597 4934 2840 
Q 4756 3084 4391 3084 
Q 3944 3084 3684 2787 
Q 3425 2491 3425 1978 
L 3425 0 
L 2847 0 
L 2847 2094 
Q 2847 2600 2669 2842 
Q 2491 3084 2119 3084 
Q 1678 3084 1418 2786 
Q 1159 2488 1159 1978 
L 1159 0 
L 581 0 
L 581 3500 
L 1159 3500 
L 1159 2956 
Q 1356 3278 1631 3431 
Q 1906 3584 2284 3584 
Q 2666 3584 2933 3390 
Q 3200 3197 3328 2828 
z
" transform="scale(0.015625)"/>
       <path id="DejaVuSans-64" d="M 2906 2969 
L 2906 4863 
L 3481 4863 
L 3481 0 
L 2906 0 
L 2906 525 
Q 2725 213 2448 61 
Q 2172 -91 1784 -91 
Q 1150 -91 751 415 
Q 353 922 353 1747 
Q 353 2572 751 3078 
Q 1150 3584 1784 3584 
Q 2172 3584 2448 3432 
Q 2725 3281 2906 2969 
z
M 947 1747 
Q 947 1113 1208 752 
Q 1469 391 1925 391 
Q 2381 391 2643 752 
Q 2906 1113 2906 1747 
Q 2906 2381 2643 2742 
Q 2381 3103 1925 3103 
Q 1469 3103 1208 2742 
Q 947 2381 947 1747 
z
" transform="scale(0.015625)"/>
       <path id="DejaVuSans-70" d="M 1159 525 
L 1159 -1331 
L 581 -1331 
L 581 3500 
L 1159 3500 
L 1159 2969 
Q 1341 3281 1617 3432 
Q 1894 3584 2278 3584 
Q 2916 3584 3314 3078 
Q 3713 2572 3713 1747 
Q 3713 922 3314 415 
Q 2916 -91 2278 -91 
Q 1894 -91 1617 61 
Q 1341 213 1159 525 
z
M 3116 1747 
Q 3116 2381 2855 2742 
Q 2594 3103 2138 3103 
Q 1681 3103 1420 2742 
Q 1159 2381 1159 1747 
Q 1159 1113 1420 752 
Q 1681 391 2138 391 
Q 2594 391 2855 752 
Q 3116 1113 3116 1747 
z
" transform="scale(0.015625)"/>
      </defs>
      <use xlink:href="#DejaVuSans-6d"/>
      <use xlink:href="#DejaVuSans-69" x="97.412109"/>
      <use xlink:href="#DejaVuSans-73" x="125.195312"/>
      <use xlink:href="#DejaVuSans-73" x="177.294922"/>
      <use xlink:href="#DejaVuSans-65" x="229.394531"/>
      <use xlink:href="#DejaVuSans-64" x="290.917969"/>
      <use xlink:href="#DejaVuSans-20" x="354.394531"/>
      <use xlink:href="#DejaVuSans-65" x="386.181641"/>
      <use xlink:href="#DejaVuSans-70" x="447.705078"/>
      <use xlink:href="#DejaVuSans-73" x="511.181641"/>
      <use xlink:href="#DejaVuSans-20" x="563.28125"/>
      <use xlink:href="#DejaVuSans-28" x="595.068359"/>
      <use xlink:href="#DejaVuSans-33" x="634.082031"/>
      <use xlink:href="#DejaVuSans-30" x="697.705078"/>
      <use xlink:href="#DejaVuSans-29" x="761.328125"/>
     </g>
    </g>
    <g id="patch_51">
     <path d="M 49.443678 75.959939 
L 73.443678 75.959939 
L 73.443678 67.559939 
L 49.443678 67.559939 
z
" style="fill: #999999"/>
    </g>
    <g id="text_35">
     <!-- LASTZ l&lt;50 e&gt;2 (666) -->
     <g transform="translate(83.043678 75.959939) scale(0.12 -0.12)">
      <defs>
       <path id="DejaVuSans-4c" d="M 628 4666 
L 1259 4666 
L 1259 531 
L 3531 531 
L 3531 0 
L 628 0 
L 628 4666 
z
" transform="scale(0.015625)"/>
       <path id="DejaVuSans-41" d="M 2188 4044 
L 1331 1722 
L 3047 1722 
L 2188 4044 
z
M 1831 4666 
L 2547 4666 
L 4325 0 
L 3669 0 
L 3244 1197 
L 1141 1197 
L 716 0 
L 50 0 
L 1831 4666 
z
" transform="scale(0.015625)"/>
       <path id="DejaVuSans-54" d="M -19 4666 
L 3928 4666 
L 3928 4134 
L 2272 4134 
L 2272 0 
L 1638 0 
L 1638 4134 
L -19 4134 
L -19 4666 
z
" transform="scale(0.015625)"/>
       <path id="DejaVuSans-5a" d="M 359 4666 
L 4025 4666 
L 4025 4184 
L 1075 531 
L 4097 531 
L 4097 0 
L 288 0 
L 288 481 
L 3238 4134 
L 359 4134 
L 359 4666 
z
" transform="scale(0.015625)"/>
       <path id="DejaVuSans-3c" d="M 4684 3150 
L 1459 2003 
L 4684 863 
L 4684 294 
L 678 1747 
L 678 2266 
L 4684 3719 
L 4684 3150 
z
" transform="scale(0.015625)"/>
       <path id="DejaVuSans-3e" d="M 678 3150 
L 678 3719 
L 4684 2266 
L 4684 1747 
L 678 294 
L 678 863 
L 3897 2003 
L 678 3150 
z
" transform="scale(0.015625)"/>
      </defs>
      <use xlink:href="#DejaVuSans-4c"/>
      <use xlink:href="#DejaVuSans-41" x="57.962891"/>
      <use xlink:href="#DejaVuSans-53" x="126.371094"/>
      <use xlink:href="#DejaVuSans-54" x="189.847656"/>
      <use xlink:href="#DejaVuSans-5a" x="250.931641"/>
      <use xlink:href="#DejaVuSans-20" x="319.4375"/>
      <use xlink:href="#DejaVuSans-6c" x="351.224609"/>
      <use xlink:href="#DejaVuSans-3c" x="379.007812"/>
      <use xlink:href="#DejaVuSans-35" x="462.796875"/>
      <use xlink:href="#DejaVuSans-30" x="526.419922"/>
      <use xlink:href="#DejaVuSans-20" x="590.042969"/>
      <use xlink:href="#DejaVuSans-65" x="621.830078"/>
      <use xlink:href="#DejaVuSans-3e" x="683.353516"/>
      <use xlink:href="#DejaVuSans-32" x="767.142578"/>
      <use xlink:href="#DejaVuSans-20" x="830.765625"/>
      <use xlink:href="#DejaVuSans-28" x="862.552734"/>
      <use xlink:href="#DejaVuSans-36" x="901.566406"/>
      <use xlink:href="#DejaVuSans-36" x="965.189453"/>
      <use xlink:href="#DejaVuSans-36" x="1028.8125"/>
      <use xlink:href="#DejaVuSans-29" x="1092.435547"/>
     </g>
    </g>
   </g>
  </g>
  <g id="axes_2">
   <g id="patch_52">
    <path d="M 38.643678 540.707885 
L 500.99976 540.707885 
L 500.99976 316.653136 
L 38.643678 316.653136 
z
" style="fill: #ffffff"/>
   </g>
   <g id="patch_53">
    <path d="M 59.659863 540.707885 
L 66.373649 540.707885 
L 66.373649 358.663402 
L 59.659863 358.663402 
z
" clip-path="url(#pdf1cf27699)" style="fill: #e41a1c"/>
   </g>
   <g id="patch_54">
    <path d="M 80.00467 540.707885 
L 86.718456 540.707885 
L 86.718456 540.707885 
L 80.00467 540.707885 
z
" clip-path="url(#pdf1cf27699)" style="fill: #e41a1c"/>
   </g>
   <g id="patch_55">
    <path d="M 100.349477 540.707885 
L 107.063263 540.707885 
L 107.063263 378.268192 
L 100.349477 378.268192 
z
" clip-path="url(#pdf1cf27699)" style="fill: #e41a1c"/>
   </g>
   <g id="patch_56">
    <path d="M 120.694284 540.707885 
L 127.40807 540.707885 
L 127.40807 512.701041 
L 120.694284 512.701041 
z
" clip-path="url(#pdf1cf27699)" style="fill: #e41a1c"/>
   </g>
   <g id="patch_57">
    <path d="M 141.039091 540.707885 
L 147.752877 540.707885 
L 147.752877 439.883248 
L 141.039091 439.883248 
z
" clip-path="url(#pdf1cf27699)" style="fill: #e41a1c"/>
   </g>
   <g id="patch_58">
    <path d="M 161.383898 540.707885 
L 168.097684 540.707885 
L 168.097684 537.907201 
L 161.383898 537.907201 
z
" clip-path="url(#pdf1cf27699)" style="fill: #e41a1c"/>
   </g>
   <g id="patch_59">
    <path d="M 181.728705 540.707885 
L 188.442491 540.707885 
L 188.442491 507.099673 
L 181.728705 507.099673 
z
" clip-path="url(#pdf1cf27699)" style="fill: #e41a1c"/>
   </g>
   <g id="patch_60">
    <path d="M 202.073512 540.707885 
L 208.787298 540.707885 
L 208.787298 540.707885 
L 202.073512 540.707885 
z
" clip-path="url(#pdf1cf27699)" style="fill: #e41a1c"/>
   </g>
   <g id="patch_61">
    <path d="M 222.418319 540.707885 
L 229.132105 540.707885 
L 229.132105 529.505148 
L 222.418319 529.505148 
z
" clip-path="url(#pdf1cf27699)" style="fill: #e41a1c"/>
   </g>
   <g id="patch_62">
    <path d="M 242.763126 540.707885 
L 249.476912 540.707885 
L 249.476912 521.103094 
L 242.763126 521.103094 
z
" clip-path="url(#pdf1cf27699)" style="fill: #e41a1c"/>
   </g>
   <g id="patch_63">
    <path d="M 263.107932 540.707885 
L 269.821719 540.707885 
L 269.821719 512.701041 
L 263.107932 512.701041 
z
" clip-path="url(#pdf1cf27699)" style="fill: #e41a1c"/>
   </g>
   <g id="patch_64">
    <path d="M 283.452739 540.707885 
L 290.166526 540.707885 
L 290.166526 523.903779 
L 283.452739 523.903779 
z
" clip-path="url(#pdf1cf27699)" style="fill: #e41a1c"/>
   </g>
   <g id="patch_65">
    <path d="M 303.797546 540.707885 
L 310.511333 540.707885 
L 310.511333 495.896935 
L 303.797546 495.896935 
z
" clip-path="url(#pdf1cf27699)" style="fill: #e41a1c"/>
   </g>
   <g id="patch_66">
    <path d="M 324.142353 540.707885 
L 330.85614 540.707885 
L 330.85614 470.690776 
L 324.142353 470.690776 
z
" clip-path="url(#pdf1cf27699)" style="fill: #e41a1c"/>
   </g>
   <g id="patch_67">
    <path d="M 344.48716 540.707885 
L 351.200947 540.707885 
L 351.200947 521.103094 
L 344.48716 521.103094 
z
" clip-path="url(#pdf1cf27699)" style="fill: #e41a1c"/>
   </g>
   <g id="patch_68">
    <path d="M 364.831967 540.707885 
L 371.545753 540.707885 
L 371.545753 537.907201 
L 364.831967 537.907201 
z
" clip-path="url(#pdf1cf27699)" style="fill: #e41a1c"/>
   </g>
   <g id="patch_69">
    <path d="M 385.176774 540.707885 
L 391.89056 540.707885 
L 391.89056 490.295567 
L 385.176774 490.295567 
z
" clip-path="url(#pdf1cf27699)" style="fill: #e41a1c"/>
   </g>
   <g id="patch_70">
    <path d="M 405.521581 540.707885 
L 412.235367 540.707885 
L 412.235367 456.687354 
L 405.521581 456.687354 
z
" clip-path="url(#pdf1cf27699)" style="fill: #e41a1c"/>
   </g>
   <g id="patch_71">
    <path d="M 425.866388 540.707885 
L 432.580174 540.707885 
L 432.580174 515.501726 
L 425.866388 515.501726 
z
" clip-path="url(#pdf1cf27699)" style="fill: #e41a1c"/>
   </g>
   <g id="patch_72">
    <path d="M 446.211195 540.707885 
L 452.924981 540.707885 
L 452.924981 532.305832 
L 446.211195 532.305832 
z
" clip-path="url(#pdf1cf27699)" style="fill: #e41a1c"/>
   </g>
   <g id="patch_73">
    <path d="M 466.556002 540.707885 
L 473.269788 540.707885 
L 473.269788 540.707885 
L 466.556002 540.707885 
z
" clip-path="url(#pdf1cf27699)" style="fill: #e41a1c"/>
   </g>
   <g id="patch_74">
    <path d="M 66.373649 540.707885 
L 73.087436 540.707885 
L 73.087436 490.295567 
L 66.373649 490.295567 
z
" clip-path="url(#pdf1cf27699)" style="fill: #999999"/>
   </g>
   <g id="patch_75">
    <path d="M 86.718456 540.707885 
L 93.432243 540.707885 
L 93.432243 467.890092 
L 86.718456 467.890092 
z
" clip-path="url(#pdf1cf27699)" style="fill: #999999"/>
   </g>
   <g id="patch_76">
    <path d="M 107.063263 540.707885 
L 113.77705 540.707885 
L 113.77705 521.103094 
L 107.063263 521.103094 
z
" clip-path="url(#pdf1cf27699)" style="fill: #999999"/>
   </g>
   <g id="patch_77">
    <path d="M 127.40807 540.707885 
L 134.121856 540.707885 
L 134.121856 529.505148 
L 127.40807 529.505148 
z
" clip-path="url(#pdf1cf27699)" style="fill: #999999"/>
   </g>
   <g id="patch_78">
    <path d="M 147.752877 540.707885 
L 154.466663 540.707885 
L 154.466663 521.103094 
L 147.752877 521.103094 
z
" clip-path="url(#pdf1cf27699)" style="fill: #999999"/>
   </g>
   <g id="patch_79">
    <path d="M 168.097684 540.707885 
L 174.81147 540.707885 
L 174.81147 523.903779 
L 168.097684 523.903779 
z
" clip-path="url(#pdf1cf27699)" style="fill: #999999"/>
   </g>
   <g id="patch_80">
    <path d="M 188.442491 540.707885 
L 195.156277 540.707885 
L 195.156277 521.103094 
L 188.442491 521.103094 
z
" clip-path="url(#pdf1cf27699)" style="fill: #999999"/>
   </g>
   <g id="patch_81">
    <path d="M 208.787298 540.707885 
L 215.501084 540.707885 
L 215.501084 537.907201 
L 208.787298 537.907201 
z
" clip-path="url(#pdf1cf27699)" style="fill: #999999"/>
   </g>
   <g id="patch_82">
    <path d="M 229.132105 540.707885 
L 235.845891 540.707885 
L 235.845891 537.907201 
L 229.132105 537.907201 
z
" clip-path="url(#pdf1cf27699)" style="fill: #999999"/>
   </g>
   <g id="patch_83">
    <path d="M 249.476912 540.707885 
L 256.190698 540.707885 
L 256.190698 518.30241 
L 249.476912 518.30241 
z
" clip-path="url(#pdf1cf27699)" style="fill: #999999"/>
   </g>
   <g id="patch_84">
    <path d="M 269.821719 540.707885 
L 276.535505 540.707885 
L 276.535505 515.501726 
L 269.821719 515.501726 
z
" clip-path="url(#pdf1cf27699)" style="fill: #999999"/>
   </g>
   <g id="patch_85">
    <path d="M 290.166526 540.707885 
L 296.880312 540.707885 
L 296.880312 518.30241 
L 290.166526 518.30241 
z
" clip-path="url(#pdf1cf27699)" style="fill: #999999"/>
   </g>
   <g id="patch_86">
    <path d="M 310.511333 540.707885 
L 317.225119 540.707885 
L 317.225119 445.484617 
L 310.511333 445.484617 
z
" clip-path="url(#pdf1cf27699)" style="fill: #999999"/>
   </g>
   <g id="patch_87">
    <path d="M 330.85614 540.707885 
L 337.569926 540.707885 
L 337.569926 507.099673 
L 330.85614 507.099673 
z
" clip-path="url(#pdf1cf27699)" style="fill: #999999"/>
   </g>
   <g id="patch_88">
    <path d="M 351.200947 540.707885 
L 357.914733 540.707885 
L 357.914733 490.295567 
L 351.200947 490.295567 
z
" clip-path="url(#pdf1cf27699)" style="fill: #999999"/>
   </g>
   <g id="patch_89">
    <path d="M 371.545753 540.707885 
L 378.25954 540.707885 
L 378.25954 473.49146 
L 371.545753 473.49146 
z
" clip-path="url(#pdf1cf27699)" style="fill: #999999"/>
   </g>
   <g id="patch_90">
    <path d="M 391.89056 540.707885 
L 398.604347 540.707885 
L 398.604347 512.701041 
L 391.89056 512.701041 
z
" clip-path="url(#pdf1cf27699)" style="fill: #999999"/>
   </g>
   <g id="patch_91">
    <path d="M 412.235367 540.707885 
L 418.949154 540.707885 
L 418.949154 526.704463 
L 412.235367 526.704463 
z
" clip-path="url(#pdf1cf27699)" style="fill: #999999"/>
   </g>
   <g id="patch_92">
    <path d="M 432.580174 540.707885 
L 439.293961 540.707885 
L 439.293961 484.694198 
L 432.580174 484.694198 
z
" clip-path="url(#pdf1cf27699)" style="fill: #999999"/>
   </g>
   <g id="patch_93">
    <path d="M 452.924981 540.707885 
L 459.638767 540.707885 
L 459.638767 456.687354 
L 452.924981 456.687354 
z
" clip-path="url(#pdf1cf27699)" style="fill: #999999"/>
   </g>
   <g id="patch_94">
    <path d="M 473.269788 540.707885 
L 479.983574 540.707885 
L 479.983574 535.106516 
L 473.269788 535.106516 
z
" clip-path="url(#pdf1cf27699)" style="fill: #999999"/>
   </g>
   <g id="matplotlib.axis_3">
    <g id="xtick_22">
     <g id="line2d_31">
      <g>
       <use xlink:href="#mdd7d3c8831" x="63.016756" y="540.707885" style="stroke: #000000; stroke-width: 0.8"/>
      </g>
     </g>
     <g id="text_36">
      <!-- 1 -->
      <g transform="translate(59.517381 556.066166) scale(0.11 -0.11)">
       <use xlink:href="#DejaVuSans-31"/>
      </g>
     </g>
    </g>
    <g id="xtick_23">
     <g id="line2d_32">
      <g>
       <use xlink:href="#mdd7d3c8831" x="83.361563" y="540.707885" style="stroke: #000000; stroke-width: 0.8"/>
      </g>
     </g>
     <g id="text_37">
      <!-- 2 -->
      <g transform="translate(79.862188 556.066166) scale(0.11 -0.11)">
       <use xlink:href="#DejaVuSans-32"/>
      </g>
     </g>
    </g>
    <g id="xtick_24">
     <g id="line2d_33">
      <g>
       <use xlink:href="#mdd7d3c8831" x="103.70637" y="540.707885" style="stroke: #000000; stroke-width: 0.8"/>
      </g>
     </g>
     <g id="text_38">
      <!-- 3 -->
      <g transform="translate(100.206995 556.066166) scale(0.11 -0.11)">
       <use xlink:href="#DejaVuSans-33"/>
      </g>
     </g>
    </g>
    <g id="xtick_25">
     <g id="line2d_34">
      <g>
       <use xlink:href="#mdd7d3c8831" x="124.051177" y="540.707885" style="stroke: #000000; stroke-width: 0.8"/>
      </g>
     </g>
     <g id="text_39">
      <!-- 4 -->
      <g transform="translate(120.551802 556.066166) scale(0.11 -0.11)">
       <use xlink:href="#DejaVuSans-34"/>
      </g>
     </g>
    </g>
    <g id="xtick_26">
     <g id="line2d_35">
      <g>
       <use xlink:href="#mdd7d3c8831" x="144.395984" y="540.707885" style="stroke: #000000; stroke-width: 0.8"/>
      </g>
     </g>
     <g id="text_40">
      <!-- 5 -->
      <g transform="translate(140.896609 556.066166) scale(0.11 -0.11)">
       <use xlink:href="#DejaVuSans-35"/>
      </g>
     </g>
    </g>
    <g id="xtick_27">
     <g id="line2d_36">
      <g>
       <use xlink:href="#mdd7d3c8831" x="164.740791" y="540.707885" style="stroke: #000000; stroke-width: 0.8"/>
      </g>
     </g>
     <g id="text_41">
      <!-- 6 -->
      <g transform="translate(161.241416 556.066166) scale(0.11 -0.11)">
       <use xlink:href="#DejaVuSans-36"/>
      </g>
     </g>
    </g>
    <g id="xtick_28">
     <g id="line2d_37">
      <g>
       <use xlink:href="#mdd7d3c8831" x="185.085598" y="540.707885" style="stroke: #000000; stroke-width: 0.8"/>
      </g>
     </g>
     <g id="text_42">
      <!-- 7 -->
      <g transform="translate(181.586223 556.066166) scale(0.11 -0.11)">
       <use xlink:href="#DejaVuSans-37"/>
      </g>
     </g>
    </g>
    <g id="xtick_29">
     <g id="line2d_38">
      <g>
       <use xlink:href="#mdd7d3c8831" x="205.430405" y="540.707885" style="stroke: #000000; stroke-width: 0.8"/>
      </g>
     </g>
     <g id="text_43">
      <!-- 8 -->
      <g transform="translate(201.93103 556.066166) scale(0.11 -0.11)">
       <use xlink:href="#DejaVuSans-38"/>
      </g>
     </g>
    </g>
    <g id="xtick_30">
     <g id="line2d_39">
      <g>
       <use xlink:href="#mdd7d3c8831" x="225.775212" y="540.707885" style="stroke: #000000; stroke-width: 0.8"/>
      </g>
     </g>
     <g id="text_44">
      <!-- 9 -->
      <g transform="translate(222.275837 556.066166) scale(0.11 -0.11)">
       <use xlink:href="#DejaVuSans-39"/>
      </g>
     </g>
    </g>
    <g id="xtick_31">
     <g id="line2d_40">
      <g>
       <use xlink:href="#mdd7d3c8831" x="246.120019" y="540.707885" style="stroke: #000000; stroke-width: 0.8"/>
      </g>
     </g>
     <g id="text_45">
      <!-- 10 -->
      <g transform="translate(239.121269 556.066166) scale(0.11 -0.11)">
       <use xlink:href="#DejaVuSans-31"/>
       <use xlink:href="#DejaVuSans-30" x="63.623047"/>
      </g>
     </g>
    </g>
    <g id="xtick_32">
     <g id="line2d_41">
      <g>
       <use xlink:href="#mdd7d3c8831" x="266.464826" y="540.707885" style="stroke: #000000; stroke-width: 0.8"/>
      </g>
     </g>
     <g id="text_46">
      <!-- 11 -->
      <g transform="translate(259.466076 556.066166) scale(0.11 -0.11)">
       <use xlink:href="#DejaVuSans-31"/>
       <use xlink:href="#DejaVuSans-31" x="63.623047"/>
      </g>
     </g>
    </g>
    <g id="xtick_33">
     <g id="line2d_42">
      <g>
       <use xlink:href="#mdd7d3c8831" x="286.809633" y="540.707885" style="stroke: #000000; stroke-width: 0.8"/>
      </g>
     </g>
     <g id="text_47">
      <!-- 12 -->
      <g transform="translate(279.810883 556.066166) scale(0.11 -0.11)">
       <use xlink:href="#DejaVuSans-31"/>
       <use xlink:href="#DejaVuSans-32" x="63.623047"/>
      </g>
     </g>
    </g>
    <g id="xtick_34">
     <g id="line2d_43">
      <g>
       <use xlink:href="#mdd7d3c8831" x="307.154439" y="540.707885" style="stroke: #000000; stroke-width: 0.8"/>
      </g>
     </g>
     <g id="text_48">
      <!-- 13 -->
      <g transform="translate(300.155689 556.066166) scale(0.11 -0.11)">
       <use xlink:href="#DejaVuSans-31"/>
       <use xlink:href="#DejaVuSans-33" x="63.623047"/>
      </g>
     </g>
    </g>
    <g id="xtick_35">
     <g id="line2d_44">
      <g>
       <use xlink:href="#mdd7d3c8831" x="327.499246" y="540.707885" style="stroke: #000000; stroke-width: 0.8"/>
      </g>
     </g>
     <g id="text_49">
      <!-- 14 -->
      <g transform="translate(320.500496 556.066166) scale(0.11 -0.11)">
       <use xlink:href="#DejaVuSans-31"/>
       <use xlink:href="#DejaVuSans-34" x="63.623047"/>
      </g>
     </g>
    </g>
    <g id="xtick_36">
     <g id="line2d_45">
      <g>
       <use xlink:href="#mdd7d3c8831" x="347.844053" y="540.707885" style="stroke: #000000; stroke-width: 0.8"/>
      </g>
     </g>
     <g id="text_50">
      <!-- 15 -->
      <g transform="translate(340.845303 556.066166) scale(0.11 -0.11)">
       <use xlink:href="#DejaVuSans-31"/>
       <use xlink:href="#DejaVuSans-35" x="63.623047"/>
      </g>
     </g>
    </g>
    <g id="xtick_37">
     <g id="line2d_46">
      <g>
       <use xlink:href="#mdd7d3c8831" x="368.18886" y="540.707885" style="stroke: #000000; stroke-width: 0.8"/>
      </g>
     </g>
     <g id="text_51">
      <!-- 16 -->
      <g transform="translate(361.19011 556.066166) scale(0.11 -0.11)">
       <use xlink:href="#DejaVuSans-31"/>
       <use xlink:href="#DejaVuSans-36" x="63.623047"/>
      </g>
     </g>
    </g>
    <g id="xtick_38">
     <g id="line2d_47">
      <g>
       <use xlink:href="#mdd7d3c8831" x="388.533667" y="540.707885" style="stroke: #000000; stroke-width: 0.8"/>
      </g>
     </g>
     <g id="text_52">
      <!-- 17 -->
      <g transform="translate(381.534917 556.066166) scale(0.11 -0.11)">
       <use xlink:href="#DejaVuSans-31"/>
       <use xlink:href="#DejaVuSans-37" x="63.623047"/>
      </g>
     </g>
    </g>
    <g id="xtick_39">
     <g id="line2d_48">
      <g>
       <use xlink:href="#mdd7d3c8831" x="408.878474" y="540.707885" style="stroke: #000000; stroke-width: 0.8"/>
      </g>
     </g>
     <g id="text_53">
      <!-- 18 -->
      <g transform="translate(401.879724 556.066166) scale(0.11 -0.11)">
       <use xlink:href="#DejaVuSans-31"/>
       <use xlink:href="#DejaVuSans-38" x="63.623047"/>
      </g>
     </g>
    </g>
    <g id="xtick_40">
     <g id="line2d_49">
      <g>
       <use xlink:href="#mdd7d3c8831" x="429.223281" y="540.707885" style="stroke: #000000; stroke-width: 0.8"/>
      </g>
     </g>
     <g id="text_54">
      <!-- 19 -->
      <g transform="translate(422.224531 556.066166) scale(0.11 -0.11)">
       <use xlink:href="#DejaVuSans-31"/>
       <use xlink:href="#DejaVuSans-39" x="63.623047"/>
      </g>
     </g>
    </g>
    <g id="xtick_41">
     <g id="line2d_50">
      <g>
       <use xlink:href="#mdd7d3c8831" x="449.568088" y="540.707885" style="stroke: #000000; stroke-width: 0.8"/>
      </g>
     </g>
     <g id="text_55">
      <!-- X -->
      <g transform="translate(445.800588 556.066166) scale(0.11 -0.11)">
       <use xlink:href="#DejaVuSans-58"/>
      </g>
     </g>
    </g>
    <g id="xtick_42">
     <g id="line2d_51">
      <g>
       <use xlink:href="#mdd7d3c8831" x="469.912895" y="540.707885" style="stroke: #000000; stroke-width: 0.8"/>
      </g>
     </g>
     <g id="text_56">
      <!-- Y -->
      <g transform="translate(466.553598 556.066166) scale(0.11 -0.11)">
       <use xlink:href="#DejaVuSans-59"/>
      </g>
     </g>
    </g>
    <g id="text_57">
     <!-- Mouse chr -->
     <g transform="translate(241.457188 570.712104) scale(0.11 -0.11)">
      <use xlink:href="#DejaVuSans-4d"/>
      <use xlink:href="#DejaVuSans-6f" x="86.279297"/>
      <use xlink:href="#DejaVuSans-75" x="147.460938"/>
      <use xlink:href="#DejaVuSans-73" x="210.839844"/>
      <use xlink:href="#DejaVuSans-65" x="262.939453"/>
      <use xlink:href="#DejaVuSans-20" x="324.462891"/>
      <use xlink:href="#DejaVuSans-63" x="356.25"/>
      <use xlink:href="#DejaVuSans-68" x="411.230469"/>
      <use xlink:href="#DejaVuSans-72" x="474.609375"/>
     </g>
    </g>
   </g>
   <g id="matplotlib.axis_4">
    <g id="ytick_10">
     <g id="line2d_52">
      <g>
       <use xlink:href="#m4998c633ca" x="38.643678" y="540.707885" style="stroke: #000000; stroke-width: 0.8"/>
      </g>
     </g>
     <g id="text_58">
      <!-- 0 -->
      <g transform="translate(24.644928 544.887026) scale(0.11 -0.11)">
       <use xlink:href="#DejaVuSans-30"/>
      </g>
     </g>
    </g>
    <g id="ytick_11">
     <g id="line2d_53">
      <g>
       <use xlink:href="#m4998c633ca" x="38.643678" y="512.701041" style="stroke: #000000; stroke-width: 0.8"/>
      </g>
     </g>
     <g id="text_59">
      <!-- 10 -->
      <g transform="translate(17.646178 516.880182) scale(0.11 -0.11)">
       <use xlink:href="#DejaVuSans-31"/>
       <use xlink:href="#DejaVuSans-30" x="63.623047"/>
      </g>
     </g>
    </g>
    <g id="ytick_12">
     <g id="line2d_54">
      <g>
       <use xlink:href="#m4998c633ca" x="38.643678" y="484.694198" style="stroke: #000000; stroke-width: 0.8"/>
      </g>
     </g>
     <g id="text_60">
      <!-- 20 -->
      <g transform="translate(17.646178 488.873338) scale(0.11 -0.11)">
       <use xlink:href="#DejaVuSans-32"/>
       <use xlink:href="#DejaVuSans-30" x="63.623047"/>
      </g>
     </g>
    </g>
    <g id="ytick_13">
     <g id="line2d_55">
      <g>
       <use xlink:href="#m4998c633ca" x="38.643678" y="456.687354" style="stroke: #000000; stroke-width: 0.8"/>
      </g>
     </g>
     <g id="text_61">
      <!-- 30 -->
      <g transform="translate(17.646178 460.866495) scale(0.11 -0.11)">
       <use xlink:href="#DejaVuSans-33"/>
       <use xlink:href="#DejaVuSans-30" x="63.623047"/>
      </g>
     </g>
    </g>
    <g id="ytick_14">
     <g id="line2d_56">
      <g>
       <use xlink:href="#m4998c633ca" x="38.643678" y="428.680511" style="stroke: #000000; stroke-width: 0.8"/>
      </g>
     </g>
     <g id="text_62">
      <!-- 40 -->
      <g transform="translate(17.646178 432.859651) scale(0.11 -0.11)">
       <use xlink:href="#DejaVuSans-34"/>
       <use xlink:href="#DejaVuSans-30" x="63.623047"/>
      </g>
     </g>
    </g>
    <g id="ytick_15">
     <g id="line2d_57">
      <g>
       <use xlink:href="#m4998c633ca" x="38.643678" y="400.673667" style="stroke: #000000; stroke-width: 0.8"/>
      </g>
     </g>
     <g id="text_63">
      <!-- 50 -->
      <g transform="translate(17.646178 404.852808) scale(0.11 -0.11)">
       <use xlink:href="#DejaVuSans-35"/>
       <use xlink:href="#DejaVuSans-30" x="63.623047"/>
      </g>
     </g>
    </g>
    <g id="ytick_16">
     <g id="line2d_58">
      <g>
       <use xlink:href="#m4998c633ca" x="38.643678" y="372.666823" style="stroke: #000000; stroke-width: 0.8"/>
      </g>
     </g>
     <g id="text_64">
      <!-- 60 -->
      <g transform="translate(17.646178 376.845964) scale(0.11 -0.11)">
       <use xlink:href="#DejaVuSans-36"/>
       <use xlink:href="#DejaVuSans-30" x="63.623047"/>
      </g>
     </g>
    </g>
    <g id="ytick_17">
     <g id="line2d_59">
      <g>
       <use xlink:href="#m4998c633ca" x="38.643678" y="344.65998" style="stroke: #000000; stroke-width: 0.8"/>
      </g>
     </g>
     <g id="text_65">
      <!-- 70 -->
      <g transform="translate(17.646178 348.83912) scale(0.11 -0.11)">
       <use xlink:href="#DejaVuSans-37"/>
       <use xlink:href="#DejaVuSans-30" x="63.623047"/>
      </g>
     </g>
    </g>
    <g id="ytick_18">
     <g id="line2d_60">
      <g>
       <use xlink:href="#m4998c633ca" x="38.643678" y="316.653136" style="stroke: #000000; stroke-width: 0.8"/>
      </g>
     </g>
     <g id="text_66">
      <!-- 80 -->
      <g transform="translate(17.646178 320.832277) scale(0.11 -0.11)">
       <use xlink:href="#DejaVuSans-38"/>
       <use xlink:href="#DejaVuSans-30" x="63.623047"/>
      </g>
     </g>
    </g>
    <g id="text_67">
     <!-- Matches in fly -->
     <g transform="translate(11.358521 466.940745) rotate(-90) scale(0.11 -0.11)">
      <use xlink:href="#DejaVuSans-4d"/>
      <use xlink:href="#DejaVuSans-61" x="86.279297"/>
      <use xlink:href="#DejaVuSans-74" x="147.558594"/>
      <use xlink:href="#DejaVuSans-63" x="186.767578"/>
      <use xlink:href="#DejaVuSans-68" x="241.748047"/>
      <use xlink:href="#DejaVuSans-65" x="305.126953"/>
      <use xlink:href="#DejaVuSans-73" x="366.650391"/>
      <use xlink:href="#DejaVuSans-20" x="418.75"/>
      <use xlink:href="#DejaVuSans-69" x="450.537109"/>
      <use xlink:href="#DejaVuSans-6e" x="478.320312"/>
      <use xlink:href="#DejaVuSans-20" x="541.699219"/>
      <use xlink:href="#DejaVuSans-66" x="573.486328"/>
      <use xlink:href="#DejaVuSans-6c" x="608.691406"/>
      <use xlink:href="#DejaVuSans-79" x="636.474609"/>
     </g>
    </g>
   </g>
   <g id="patch_95">
    <path d="M 38.643678 540.707885 
L 38.643678 316.653136 
" style="fill: none; stroke: #000000; stroke-width: 0.8; stroke-linejoin: miter; stroke-linecap: square"/>
   </g>
   <g id="patch_96">
    <path d="M 500.99976 540.707885 
L 500.99976 316.653136 
" style="fill: none; stroke: #000000; stroke-width: 0.8; stroke-linejoin: miter; stroke-linecap: square"/>
   </g>
   <g id="patch_97">
    <path d="M 38.643678 540.707885 
L 500.99976 540.707885 
" style="fill: none; stroke: #000000; stroke-width: 0.8; stroke-linejoin: miter; stroke-linecap: square"/>
   </g>
   <g id="patch_98">
    <path d="M 38.643678 316.653136 
L 500.99976 316.653136 
" style="fill: none; stroke: #000000; stroke-width: 0.8; stroke-linejoin: miter; stroke-linecap: square"/>
   </g>
   <g id="text_68">
    <!-- Fast search (s=30) -->
    <g transform="translate(208.862891 310.653136) scale(0.13 -0.13)">
     <defs>
      <path id="DejaVuSans-46" d="M 628 4666 
L 3309 4666 
L 3309 4134 
L 1259 4134 
L 1259 2759 
L 3109 2759 
L 3109 2228 
L 1259 2228 
L 1259 0 
L 628 0 
L 628 4666 
z
" transform="scale(0.015625)"/>
     </defs>
     <use xlink:href="#DejaVuSans-46"/>
     <use xlink:href="#DejaVuSans-61" x="48.394531"/>
     <use xlink:href="#DejaVuSans-73" x="109.673828"/>
     <use xlink:href="#DejaVuSans-74" x="161.773438"/>
     <use xlink:href="#DejaVuSans-20" x="200.982422"/>
     <use xlink:href="#DejaVuSans-73" x="232.769531"/>
     <use xlink:href="#DejaVuSans-65" x="284.869141"/>
     <use xlink:href="#DejaVuSans-61" x="346.392578"/>
     <use xlink:href="#DejaVuSans-72" x="407.671875"/>
     <use xlink:href="#DejaVuSans-63" x="446.535156"/>
     <use xlink:href="#DejaVuSans-68" x="501.515625"/>
     <use xlink:href="#DejaVuSans-20" x="564.894531"/>
     <use xlink:href="#DejaVuSans-28" x="596.681641"/>
     <use xlink:href="#DejaVuSans-73" x="635.695312"/>
     <use xlink:href="#DejaVuSans-3d" x="687.794922"/>
     <use xlink:href="#DejaVuSans-33" x="771.583984"/>
     <use xlink:href="#DejaVuSans-30" x="835.207031"/>
     <use xlink:href="#DejaVuSans-29" x="898.830078"/>
    </g>
   </g>
   <g id="legend_2">
    <g id="patch_99">
     <path d="M 47.043678 361.480636 
L 221.219928 361.480636 
Q 223.619928 361.480636 223.619928 359.080636 
L 223.619928 325.053136 
Q 223.619928 322.653136 221.219928 322.653136 
L 47.043678 322.653136 
Q 44.643678 322.653136 44.643678 325.053136 
L 44.643678 359.080636 
Q 44.643678 361.480636 47.043678 361.480636 
z
" style="fill: #ffffff; opacity: 0.8; stroke: #cccccc; stroke-linejoin: miter"/>
    </g>
    <g id="patch_100">
     <path d="M 49.443678 336.571261 
L 73.443678 336.571261 
L 73.443678 328.171261 
L 49.443678 328.171261 
z
" style="fill: #e41a1c"/>
    </g>
    <g id="text_69">
     <!-- missed eps (318) -->
     <g transform="translate(83.043678 336.571261) scale(0.12 -0.12)">
      <use xlink:href="#DejaVuSans-6d"/>
      <use xlink:href="#DejaVuSans-69" x="97.412109"/>
      <use xlink:href="#DejaVuSans-73" x="125.195312"/>
      <use xlink:href="#DejaVuSans-73" x="177.294922"/>
      <use xlink:href="#DejaVuSans-65" x="229.394531"/>
      <use xlink:href="#DejaVuSans-64" x="290.917969"/>
      <use xlink:href="#DejaVuSans-20" x="354.394531"/>
      <use xlink:href="#DejaVuSans-65" x="386.181641"/>
      <use xlink:href="#DejaVuSans-70" x="447.705078"/>
      <use xlink:href="#DejaVuSans-73" x="511.181641"/>
      <use xlink:href="#DejaVuSans-20" x="563.28125"/>
      <use xlink:href="#DejaVuSans-28" x="595.068359"/>
      <use xlink:href="#DejaVuSans-33" x="634.082031"/>
      <use xlink:href="#DejaVuSans-31" x="697.705078"/>
      <use xlink:href="#DejaVuSans-38" x="761.328125"/>
      <use xlink:href="#DejaVuSans-29" x="824.951172"/>
     </g>
    </g>
    <g id="patch_101">
     <path d="M 49.443678 354.185011 
L 73.443678 354.185011 
L 73.443678 345.785011 
L 49.443678 345.785011 
z
" style="fill: #999999"/>
    </g>
    <g id="text_70">
     <!-- LASTZ l&lt;50 e&gt;2 (257) -->
     <g transform="translate(83.043678 354.185011) scale(0.12 -0.12)">
      <use xlink:href="#DejaVuSans-4c"/>
      <use xlink:href="#DejaVuSans-41" x="57.962891"/>
      <use xlink:href="#DejaVuSans-53" x="126.371094"/>
      <use xlink:href="#DejaVuSans-54" x="189.847656"/>
      <use xlink:href="#DejaVuSans-5a" x="250.931641"/>
      <use xlink:href="#DejaVuSans-20" x="319.4375"/>
      <use xlink:href="#DejaVuSans-6c" x="351.224609"/>
      <use xlink:href="#DejaVuSans-3c" x="379.007812"/>
      <use xlink:href="#DejaVuSans-35" x="462.796875"/>
      <use xlink:href="#DejaVuSans-30" x="526.419922"/>
      <use xlink:href="#DejaVuSans-20" x="590.042969"/>
      <use xlink:href="#DejaVuSans-65" x="621.830078"/>
      <use xlink:href="#DejaVuSans-3e" x="683.353516"/>
      <use xlink:href="#DejaVuSans-32" x="767.142578"/>
      <use xlink:href="#DejaVuSans-20" x="830.765625"/>
      <use xlink:href="#DejaVuSans-28" x="862.552734"/>
      <use xlink:href="#DejaVuSans-32" x="901.566406"/>
      <use xlink:href="#DejaVuSans-35" x="965.189453"/>
      <use xlink:href="#DejaVuSans-37" x="1028.8125"/>
      <use xlink:href="#DejaVuSans-29" x="1092.435547"/>
     </g>
    </g>
   </g>
  </g>
  <g id="text_71">
   <!-- How many LASTZ alignments differ from epsilon matches? -->
   <g transform="translate(66.654219 13.638052) scale(0.14 -0.14)">
    <defs>
     <path id="DejaVuSans-48" d="M 628 4666 
L 1259 4666 
L 1259 2753 
L 3553 2753 
L 3553 4666 
L 4184 4666 
L 4184 0 
L 3553 0 
L 3553 2222 
L 1259 2222 
L 1259 0 
L 628 0 
L 628 4666 
z
" transform="scale(0.015625)"/>
     <path id="DejaVuSans-77" d="M 269 3500 
L 844 3500 
L 1563 769 
L 2278 3500 
L 2956 3500 
L 3675 769 
L 4391 3500 
L 4966 3500 
L 4050 0 
L 3372 0 
L 2619 2869 
L 1863 0 
L 1184 0 
L 269 3500 
z
" transform="scale(0.015625)"/>
     <path id="DejaVuSans-67" d="M 2906 1791 
Q 2906 2416 2648 2759 
Q 2391 3103 1925 3103 
Q 1463 3103 1205 2759 
Q 947 2416 947 1791 
Q 947 1169 1205 825 
Q 1463 481 1925 481 
Q 2391 481 2648 825 
Q 2906 1169 2906 1791 
z
M 3481 434 
Q 3481 -459 3084 -895 
Q 2688 -1331 1869 -1331 
Q 1566 -1331 1297 -1286 
Q 1028 -1241 775 -1147 
L 775 -588 
Q 1028 -725 1275 -790 
Q 1522 -856 1778 -856 
Q 2344 -856 2625 -561 
Q 2906 -266 2906 331 
L 2906 616 
Q 2728 306 2450 153 
Q 2172 0 1784 0 
Q 1141 0 747 490 
Q 353 981 353 1791 
Q 353 2603 747 3093 
Q 1141 3584 1784 3584 
Q 2172 3584 2450 3431 
Q 2728 3278 2906 2969 
L 2906 3500 
L 3481 3500 
L 3481 434 
z
" transform="scale(0.015625)"/>
     <path id="DejaVuSans-3f" d="M 1222 794 
L 1856 794 
L 1856 0 
L 1222 0 
L 1222 794 
z
M 1838 1253 
L 1241 1253 
L 1241 1734 
Q 1241 2050 1328 2253 
Q 1416 2456 1697 2725 
L 1978 3003 
Q 2156 3169 2236 3316 
Q 2316 3463 2316 3616 
Q 2316 3894 2111 4066 
Q 1906 4238 1569 4238 
Q 1322 4238 1042 4128 
Q 763 4019 459 3809 
L 459 4397 
Q 753 4575 1054 4662 
Q 1356 4750 1678 4750 
Q 2253 4750 2601 4447 
Q 2950 4144 2950 3647 
Q 2950 3409 2837 3195 
Q 2725 2981 2444 2713 
L 2169 2444 
Q 2022 2297 1961 2214 
Q 1900 2131 1875 2053 
Q 1856 1988 1847 1894 
Q 1838 1800 1838 1638 
L 1838 1253 
z
" transform="scale(0.015625)"/>
    </defs>
    <use xlink:href="#DejaVuSans-48"/>
    <use xlink:href="#DejaVuSans-6f" x="75.195312"/>
    <use xlink:href="#DejaVuSans-77" x="136.376953"/>
    <use xlink:href="#DejaVuSans-20" x="218.164062"/>
    <use xlink:href="#DejaVuSans-6d" x="249.951172"/>
    <use xlink:href="#DejaVuSans-61" x="347.363281"/>
    <use xlink:href="#DejaVuSans-6e" x="408.642578"/>
    <use xlink:href="#DejaVuSans-79" x="472.021484"/>
    <use xlink:href="#DejaVuSans-20" x="531.201172"/>
    <use xlink:href="#DejaVuSans-4c" x="562.988281"/>
    <use xlink:href="#DejaVuSans-41" x="620.951172"/>
    <use xlink:href="#DejaVuSans-53" x="689.359375"/>
    <use xlink:href="#DejaVuSans-54" x="752.835938"/>
    <use xlink:href="#DejaVuSans-5a" x="813.919922"/>
    <use xlink:href="#DejaVuSans-20" x="882.425781"/>
    <use xlink:href="#DejaVuSans-61" x="914.212891"/>
    <use xlink:href="#DejaVuSans-6c" x="975.492188"/>
    <use xlink:href="#DejaVuSans-69" x="1003.275391"/>
    <use xlink:href="#DejaVuSans-67" x="1031.058594"/>
    <use xlink:href="#DejaVuSans-6e" x="1094.535156"/>
    <use xlink:href="#DejaVuSans-6d" x="1157.914062"/>
    <use xlink:href="#DejaVuSans-65" x="1255.326172"/>
    <use xlink:href="#DejaVuSans-6e" x="1316.849609"/>
    <use xlink:href="#DejaVuSans-74" x="1380.228516"/>
    <use xlink:href="#DejaVuSans-73" x="1419.4375"/>
    <use xlink:href="#DejaVuSans-20" x="1471.537109"/>
    <use xlink:href="#DejaVuSans-64" x="1503.324219"/>
    <use xlink:href="#DejaVuSans-69" x="1566.800781"/>
    <use xlink:href="#DejaVuSans-66" x="1594.583984"/>
    <use xlink:href="#DejaVuSans-66" x="1629.789062"/>
    <use xlink:href="#DejaVuSans-65" x="1664.994141"/>
    <use xlink:href="#DejaVuSans-72" x="1726.517578"/>
    <use xlink:href="#DejaVuSans-20" x="1767.630859"/>
    <use xlink:href="#DejaVuSans-66" x="1799.417969"/>
    <use xlink:href="#DejaVuSans-72" x="1834.623047"/>
    <use xlink:href="#DejaVuSans-6f" x="1873.486328"/>
    <use xlink:href="#DejaVuSans-6d" x="1934.667969"/>
    <use xlink:href="#DejaVuSans-20" x="2032.080078"/>
    <use xlink:href="#DejaVuSans-65" x="2063.867188"/>
    <use xlink:href="#DejaVuSans-70" x="2125.390625"/>
    <use xlink:href="#DejaVuSans-73" x="2188.867188"/>
    <use xlink:href="#DejaVuSans-69" x="2240.966797"/>
    <use xlink:href="#DejaVuSans-6c" x="2268.75"/>
    <use xlink:href="#DejaVuSans-6f" x="2296.533203"/>
    <use xlink:href="#DejaVuSans-6e" x="2357.714844"/>
    <use xlink:href="#DejaVuSans-20" x="2421.09375"/>
    <use xlink:href="#DejaVuSans-6d" x="2452.880859"/>
    <use xlink:href="#DejaVuSans-61" x="2550.292969"/>
    <use xlink:href="#DejaVuSans-74" x="2611.572266"/>
    <use xlink:href="#DejaVuSans-63" x="2650.78125"/>
    <use xlink:href="#DejaVuSans-68" x="2705.761719"/>
    <use xlink:href="#DejaVuSans-65" x="2769.140625"/>
    <use xlink:href="#DejaVuSans-73" x="2830.664062"/>
    <use xlink:href="#DejaVuSans-3f" x="2882.763672"/>
   </g>
  </g>
 </g>
 <defs>
  <clipPath id="pa3252bfc7e">
   <rect x="38.643678" y="38.428064" width="462.356083" height="224.054749"/>
  </clipPath>
  <clipPath id="pdf1cf27699">
   <rect x="38.643678" y="316.653136" width="462.356083" height="224.054749"/>
  </clipPath>
 </defs>
</svg>
